<svg width="60" height="36" viewBox="0 0 60 36" fill="none" xmlns="http://www.w3.org/2000/svg">
<g id="Icon / Open  Copy 2">
<path id="Combined Shape" d="M7.69691 3.35578L9.39397 1.65872L7.69691 3.35578ZM4.3028 6.74989L2.60574 8.44694L4.3028 6.74989ZM28.3028 30.7499L29.9999 29.0528L29.9999 29.0528L28.3028 30.7499ZM31.6969 30.7499L29.9999 29.0528L29.9999 29.0528L31.6969 30.7499ZM55.6969 6.74989L53.9999 5.05283V5.05283L55.6969 6.74989ZM55.6969 3.35578L53.9998 5.05283L53.9999 5.05283L55.6969 3.35578ZM52.3028 3.35578L50.6057 1.65872V1.65872L52.3028 3.35578ZM29.9999 25.6587L28.3028 27.3558C28.7529 27.8059 29.3633 28.0587 29.9999 28.0587C30.6364 28.0587 31.2468 27.8059 31.6969 27.3558L29.9999 25.6587ZM5.99985 5.05283L9.39397 1.65872C7.51945 -0.215797 4.48026 -0.215797 2.60574 1.65872L5.99985 5.05283ZM5.99985 5.05283L2.60574 1.65872C0.731224 3.53324 0.731224 6.57243 2.60574 8.44694L5.99985 5.05283ZM29.9999 29.0528L5.99985 5.05283L2.60574 8.44694L26.6057 32.4469L29.9999 29.0528ZM29.9999 29.0528H29.9999L26.6057 32.4469C28.4803 34.3215 31.5195 34.3215 33.394 32.4469L29.9999 29.0528ZM53.9999 5.05283L29.9999 29.0528L33.394 32.4469L57.394 8.44694L53.9999 5.05283ZM53.9999 5.05283V5.05283L57.394 8.44695C59.2685 6.57243 59.2685 3.53323 57.394 1.65872L53.9999 5.05283ZM53.9999 5.05283L53.9998 5.05283L57.394 1.65872C55.5194 -0.215801 52.4803 -0.215794 50.6057 1.65872L53.9999 5.05283ZM31.6969 27.3558L53.9999 5.05283L50.6057 1.65872L28.3028 23.9617L31.6969 27.3558ZM5.99985 5.05283L28.3028 27.3558L31.6969 23.9617L9.39397 1.65872L5.99985 5.05283Z" fill="white"/>
</g>
</svg>
