<svg width="37" height="58" viewBox="0 0 37 58" fill="none" xmlns="http://www.w3.org/2000/svg">
<path d="M2.45837 18.5C2.45837 20.6449 2.8733 22.7688 3.67947 24.7505C4.48564 26.7321 5.66726 28.5327 7.15687 30.0494C8.64648 31.5661 10.4149 32.7692 12.3612 33.59C14.3074 34.4108 16.3934 34.8333 18.5 34.8333C20.6067 34.8333 22.6927 34.4108 24.6389 33.59C26.5852 32.7692 28.3536 31.5661 29.8432 30.0494C31.3328 28.5327 32.5144 26.7321 33.3206 24.7505C34.1268 22.7688 34.5417 20.6449 34.5417 18.5C34.5417 16.355 34.1268 14.2311 33.3206 12.2495C32.5144 10.2678 31.3328 8.46724 29.8432 6.95055C28.3536 5.43386 26.5852 4.23075 24.6389 3.40993C22.6927 2.5891 20.6067 2.16663 18.5 2.16663C16.3934 2.16663 14.3074 2.5891 12.3612 3.40993C10.4149 4.23075 8.64648 5.43386 7.15687 6.95055C5.66726 8.46724 4.48564 10.2678 3.67947 12.2495C2.8733 14.2311 2.45837 16.355 2.45837 18.5V18.5Z" stroke="#172541" stroke-width="3" stroke-linecap="round" stroke-linejoin="round"/>
<path d="M18.5 34.8333V55.8332" stroke="#172541" stroke-width="3" stroke-linecap="round" stroke-linejoin="round"/>
<path d="M11.625 48.8333H25.375" stroke="#172541" stroke-width="3" stroke-linecap="round" stroke-linejoin="round"/>
</svg>
