<!-- Generator: Adobe Illustrator 25.2.1, SVG Export Plug-In  -->
<svg version="1.1" xmlns="http://www.w3.org/2000/svg" xmlns:xlink="http://www.w3.org/1999/xlink" x="0px" y="0px"
	 width="289.05px" height="492px" viewBox="0 0 289.05 492" style="overflow:visible;enable-background:new 0 0 289.05 492;"
	 xml:space="preserve">
<style type="text/css">
	.st0{fill:#3A4764;}
</style>
<defs>
</defs>
<g>
	<g>
		<path class="st0" d="M281.2,226.8L62.25,7.86C57.19,2.79,50.43,0,43.22,0S29.25,2.79,24.19,7.86L8.06,23.98
			c-10.49,10.5-10.49,27.58,0,38.06L191.92,245.9L7.86,429.96C2.8,435.03,0,441.78,0,448.99c0,7.21,2.8,13.97,7.86,19.04
			l16.12,16.12c5.07,5.07,11.82,7.86,19.03,7.86s13.97-2.79,19.03-7.86L281.2,265c5.08-5.08,7.86-11.87,7.85-19.09
			C289.06,238.67,286.28,231.88,281.2,226.8z"/>
	</g>
</g>
</svg>
