<svg width="56" height="56" viewBox="0 0 56 56" fill="none" xmlns="http://www.w3.org/2000/svg">
<path d="M32.0542 23.6451L51.0557 4.40942" stroke="#172541" stroke-width="3" stroke-linecap="round" stroke-linejoin="round"/>
<path d="M4.20374 35.3416C4.20374 39.7169 5.92066 43.9131 8.97681 47.0069C12.033 50.1007 16.178 51.8388 20.5 51.8388C24.8221 51.8388 28.9671 50.1007 32.0233 47.0069C35.0794 43.9131 36.7963 39.7169 36.7963 35.3416C36.7963 30.9663 35.0794 26.7702 32.0233 23.6764C28.9671 20.5826 24.8221 18.8445 20.5 18.8445C16.178 18.8445 12.033 20.5826 8.97681 23.6764C5.92066 26.7702 4.20374 30.9663 4.20374 35.3416V35.3416Z" stroke="#172541" stroke-width="3" stroke-linecap="round" stroke-linejoin="round"/>
<path d="M51.0555 18.8444V4.40942H36.7963" stroke="#172541" stroke-width="3" stroke-linecap="round" stroke-linejoin="round"/>
</svg>
