<?xml version="1.0" encoding="UTF-8"?>
<svg width="123px" height="123px" viewBox="0 0 123 123" version="1.1" xmlns="http://www.w3.org/2000/svg" xmlns:xlink="http://www.w3.org/1999/xlink">
    <title>47289227-6E9D-4ECF-83AE-FE4B1B3424E6</title>
    <g id="Designs" stroke="none" stroke-width="1" fill="none" fill-rule="evenodd" opacity="0.400000006">
        <g id="Homepage-design_v1" transform="translate(-1167.000000, -4419.000000)" fill="#0460A9">
            <g id="Stay-connected" transform="translate(150.000000, 4104.000000)">
                <g id="Dot-pattern" transform="translate(1017.000000, 315.000000)">
                    <path d="M1.5,120 C2.32842712,120 3,120.671573 3,121.5 C3,122.328427 2.32842712,123 1.5,123 C0.671572875,123 0,122.328427 0,121.5 C0,120.671573 0.671572875,120 1.5,120 Z M21.5,120 C22.3284271,120 23,120.671573 23,121.5 C23,122.328427 22.3284271,123 21.5,123 C20.6715729,123 20,122.328427 20,121.5 C20,120.671573 20.6715729,120 21.5,120 Z M41.5,120 C42.3284271,120 43,120.671573 43,121.5 C43,122.328427 42.3284271,123 41.5,123 C40.6715729,123 40,122.328427 40,121.5 C40,120.671573 40.6715729,120 41.5,120 Z M61.5,120 C62.3284271,120 63,120.671573 63,121.5 C63,122.328427 62.3284271,123 61.5,123 C60.6715729,123 60,122.328427 60,121.5 C60,120.671573 60.6715729,120 61.5,120 Z M81.5,120 C82.3284271,120 83,120.671573 83,121.5 C83,122.328427 82.3284271,123 81.5,123 C80.6715729,123 80,122.328427 80,121.5 C80,120.671573 80.6715729,120 81.5,120 Z M101.5,120 C102.328427,120 103,120.671573 103,121.5 C103,122.328427 102.328427,123 101.5,123 C100.671573,123 100,122.328427 100,121.5 C100,120.671573 100.671573,120 101.5,120 Z M121.5,120 C122.328427,120 123,120.671573 123,121.5 C123,122.328427 122.328427,123 121.5,123 C120.671573,123 120,122.328427 120,121.5 C120,120.671573 120.671573,120 121.5,120 Z M1.5,100 C2.32842712,100 3,100.671573 3,101.5 C3,102.328427 2.32842712,103 1.5,103 C0.671572875,103 0,102.328427 0,101.5 C0,100.671573 0.671572875,100 1.5,100 Z M21.5,100 C22.3284271,100 23,100.671573 23,101.5 C23,102.328427 22.3284271,103 21.5,103 C20.6715729,103 20,102.328427 20,101.5 C20,100.671573 20.6715729,100 21.5,100 Z M41.5,100 C42.3284271,100 43,100.671573 43,101.5 C43,102.328427 42.3284271,103 41.5,103 C40.6715729,103 40,102.328427 40,101.5 C40,100.671573 40.6715729,100 41.5,100 Z M61.5,100 C62.3284271,100 63,100.671573 63,101.5 C63,102.328427 62.3284271,103 61.5,103 C60.6715729,103 60,102.328427 60,101.5 C60,100.671573 60.6715729,100 61.5,100 Z M81.5,100 C82.3284271,100 83,100.671573 83,101.5 C83,102.328427 82.3284271,103 81.5,103 C80.6715729,103 80,102.328427 80,101.5 C80,100.671573 80.6715729,100 81.5,100 Z M101.5,100 C102.328427,100 103,100.671573 103,101.5 C103,102.328427 102.328427,103 101.5,103 C100.671573,103 100,102.328427 100,101.5 C100,100.671573 100.671573,100 101.5,100 Z M121.5,100 C122.328427,100 123,100.671573 123,101.5 C123,102.328427 122.328427,103 121.5,103 C120.671573,103 120,102.328427 120,101.5 C120,100.671573 120.671573,100 121.5,100 Z M1.5,80 C2.32842712,80 3,80.6715729 3,81.5 C3,82.3284271 2.32842712,83 1.5,83 C0.671572875,83 0,82.3284271 0,81.5 C0,80.6715729 0.671572875,80 1.5,80 Z M21.5,80 C22.3284271,80 23,80.6715729 23,81.5 C23,82.3284271 22.3284271,83 21.5,83 C20.6715729,83 20,82.3284271 20,81.5 C20,80.6715729 20.6715729,80 21.5,80 Z M41.5,80 C42.3284271,80 43,80.6715729 43,81.5 C43,82.3284271 42.3284271,83 41.5,83 C40.6715729,83 40,82.3284271 40,81.5 C40,80.6715729 40.6715729,80 41.5,80 Z M61.5,80 C62.3284271,80 63,80.6715729 63,81.5 C63,82.3284271 62.3284271,83 61.5,83 C60.6715729,83 60,82.3284271 60,81.5 C60,80.6715729 60.6715729,80 61.5,80 Z M81.5,80 C82.3284271,80 83,80.6715729 83,81.5 C83,82.3284271 82.3284271,83 81.5,83 C80.6715729,83 80,82.3284271 80,81.5 C80,80.6715729 80.6715729,80 81.5,80 Z M101.5,80 C102.328427,80 103,80.6715729 103,81.5 C103,82.3284271 102.328427,83 101.5,83 C100.671573,83 100,82.3284271 100,81.5 C100,80.6715729 100.671573,80 101.5,80 Z M121.5,80 C122.328427,80 123,80.6715729 123,81.5 C123,82.3284271 122.328427,83 121.5,83 C120.671573,83 120,82.3284271 120,81.5 C120,80.6715729 120.671573,80 121.5,80 Z M61.5,60 C62.3284271,60 63,60.6715729 63,61.5 C63,62.3284271 62.3284271,63 61.5,63 C60.6715729,63 60,62.3284271 60,61.5 C60,60.6715729 60.6715729,60 61.5,60 Z M101.5,60 C102.328427,60 103,60.6715729 103,61.5 C103,62.3284271 102.328427,63 101.5,63 C100.671573,63 100,62.3284271 100,61.5 C100,60.6715729 100.671573,60 101.5,60 Z M1.5,60 C2.32842712,60 3,60.6715729 3,61.5 C3,62.3284271 2.32842712,63 1.5,63 C0.671572875,63 0,62.3284271 0,61.5 C0,60.6715729 0.671572875,60 1.5,60 Z M41.5,60 C42.3284271,60 43,60.6715729 43,61.5 C43,62.3284271 42.3284271,63 41.5,63 C40.6715729,63 40,62.3284271 40,61.5 C40,60.6715729 40.6715729,60 41.5,60 Z M121.5,60 C122.328427,60 123,60.6715729 123,61.5 C123,62.3284271 122.328427,63 121.5,63 C120.671573,63 120,62.3284271 120,61.5 C120,60.6715729 120.671573,60 121.5,60 Z M81.5,60 C82.3284271,60 83,60.6715729 83,61.5 C83,62.3284271 82.3284271,63 81.5,63 C80.6715729,63 80,62.3284271 80,61.5 C80,60.6715729 80.6715729,60 81.5,60 Z M21.5,60 C22.3284271,60 23,60.6715729 23,61.5 C23,62.3284271 22.3284271,63 21.5,63 C20.6715729,63 20,62.3284271 20,61.5 C20,60.6715729 20.6715729,60 21.5,60 Z M121.5,40 C122.328427,40 123,40.6715729 123,41.5 C123,42.3284271 122.328427,43 121.5,43 C120.671573,43 120,42.3284271 120,41.5 C120,40.6715729 120.671573,40 121.5,40 Z M1.5,40 C2.32842712,40 3,40.6715729 3,41.5 C3,42.3284271 2.32842712,43 1.5,43 C0.671572875,43 0,42.3284271 0,41.5 C0,40.6715729 0.671572875,40 1.5,40 Z M41.5,40 C42.3284271,40 43,40.6715729 43,41.5 C43,42.3284271 42.3284271,43 41.5,43 C40.6715729,43 40,42.3284271 40,41.5 C40,40.6715729 40.6715729,40 41.5,40 Z M81.5,40 C82.3284271,40 83,40.6715729 83,41.5 C83,42.3284271 82.3284271,43 81.5,43 C80.6715729,43 80,42.3284271 80,41.5 C80,40.6715729 80.6715729,40 81.5,40 Z M21.5,40 C22.3284271,40 23,40.6715729 23,41.5 C23,42.3284271 22.3284271,43 21.5,43 C20.6715729,43 20,42.3284271 20,41.5 C20,40.6715729 20.6715729,40 21.5,40 Z M101.5,40 C102.328427,40 103,40.6715729 103,41.5 C103,42.3284271 102.328427,43 101.5,43 C100.671573,43 100,42.3284271 100,41.5 C100,40.6715729 100.671573,40 101.5,40 Z M61.5,40 C62.3284271,40 63,40.6715729 63,41.5 C63,42.3284271 62.3284271,43 61.5,43 C60.6715729,43 60,42.3284271 60,41.5 C60,40.6715729 60.6715729,40 61.5,40 Z M1.5,20 C2.32842712,20 3,20.6715729 3,21.5 C3,22.3284271 2.32842712,23 1.5,23 C0.671572875,23 0,22.3284271 0,21.5 C0,20.6715729 0.671572875,20 1.5,20 Z M21.5,20 C22.3284271,20 23,20.6715729 23,21.5 C23,22.3284271 22.3284271,23 21.5,23 C20.6715729,23 20,22.3284271 20,21.5 C20,20.6715729 20.6715729,20 21.5,20 Z M41.5,20 C42.3284271,20 43,20.6715729 43,21.5 C43,22.3284271 42.3284271,23 41.5,23 C40.6715729,23 40,22.3284271 40,21.5 C40,20.6715729 40.6715729,20 41.5,20 Z M61.5,20 C62.3284271,20 63,20.6715729 63,21.5 C63,22.3284271 62.3284271,23 61.5,23 C60.6715729,23 60,22.3284271 60,21.5 C60,20.6715729 60.6715729,20 61.5,20 Z M81.5,20 C82.3284271,20 83,20.6715729 83,21.5 C83,22.3284271 82.3284271,23 81.5,23 C80.6715729,23 80,22.3284271 80,21.5 C80,20.6715729 80.6715729,20 81.5,20 Z M101.5,20 C102.328427,20 103,20.6715729 103,21.5 C103,22.3284271 102.328427,23 101.5,23 C100.671573,23 100,22.3284271 100,21.5 C100,20.6715729 100.671573,20 101.5,20 Z M121.5,20 C122.328427,20 123,20.6715729 123,21.5 C123,22.3284271 122.328427,23 121.5,23 C120.671573,23 120,22.3284271 120,21.5 C120,20.6715729 120.671573,20 121.5,20 Z M1.5,0 C2.32842712,0 3,0.671572875 3,1.5 C3,2.32842712 2.32842712,3 1.5,3 C0.671572875,3 0,2.32842712 0,1.5 C0,0.671572875 0.671572875,0 1.5,0 Z M21.5,0 C22.3284271,0 23,0.671572875 23,1.5 C23,2.32842712 22.3284271,3 21.5,3 C20.6715729,3 20,2.32842712 20,1.5 C20,0.671572875 20.6715729,0 21.5,0 Z M41.5,0 C42.3284271,0 43,0.671572875 43,1.5 C43,2.32842712 42.3284271,3 41.5,3 C40.6715729,3 40,2.32842712 40,1.5 C40,0.671572875 40.6715729,0 41.5,0 Z M61.5,0 C62.3284271,0 63,0.671572875 63,1.5 C63,2.32842712 62.3284271,3 61.5,3 C60.6715729,3 60,2.32842712 60,1.5 C60,0.671572875 60.6715729,0 61.5,0 Z M81.5,0 C82.3284271,0 83,0.671572875 83,1.5 C83,2.32842712 82.3284271,3 81.5,3 C80.6715729,3 80,2.32842712 80,1.5 C80,0.671572875 80.6715729,0 81.5,0 Z M101.5,0 C102.328427,0 103,0.671572875 103,1.5 C103,2.32842712 102.328427,3 101.5,3 C100.671573,3 100,2.32842712 100,1.5 C100,0.671572875 100.671573,0 101.5,0 Z M121.5,0 C122.328427,0 123,0.671572875 123,1.5 C123,2.32842712 122.328427,3 121.5,3 C120.671573,3 120,2.32842712 120,1.5 C120,0.671572875 120.671573,0 121.5,0 Z" id="Combined-Shape"></path>
                </g>
            </g>
        </g>
    </g>
</svg>