<?xml version="1.0" encoding="UTF-8"?>
<svg width="34px" height="34px" viewBox="0 0 34 34" version="1.1" xmlns="http://www.w3.org/2000/svg" xmlns:xlink="http://www.w3.org/1999/xlink">
    <title>E9A13F00-F264-44D2-8373-EE4DF967BF63</title>
    <g id="Designs" stroke="none" stroke-width="1" fill="none" fill-rule="evenodd">
        <g id="Homepage-design_v1" transform="translate(-239.000000, -4623.000000)" fill="#FFFFFF">
            <g id="Stay-connected" transform="translate(150.000000, 4104.000000)">
                <g id="Social-Media" transform="translate(0.000000, 506.000000)">
                    <g id="Facebook" transform="translate(76.000000, 0.000000)">
                        <path d="M30,13 C39.3888407,13 47,20.6111593 47,30 C47,39.3888407 39.3888407,47 30,47 C20.6111593,47 13,39.3888407 13,30 C13,20.6111593 20.6111593,13 30,13 Z M31.9557961,21 C29.5671281,21 27.931696,22.458044 27.931696,25.1357161 L27.931696,25.1357161 L27.931696,27.4430721 L25.230044,27.4430721 L25.230044,30.5718201 L27.931696,30.5718201 L27.931696,38.6000003 L31.1626521,38.6000003 L31.1626521,30.5718201 L33.8574681,30.5718201 L34.2608681,27.4430721 L31.1626561,27.4430721 L31.1626561,25.4455081 C31.1626561,24.5396481 31.4141921,23.92234 32.7132841,23.92234 L32.7132841,23.92234 L34.3699521,23.921588 L34.3699521,21.123264 C34.0833721,21.085188 33.0999921,21 31.9557961,21 Z" id="Icon-/-Facebook"></path>
                    </g>
                </g>
            </g>
        </g>
    </g>
</svg>