<?xml version="1.0" encoding="UTF-8"?>
<svg width="34px" height="34px" viewBox="0 0 34 34" version="1.1" xmlns="http://www.w3.org/2000/svg" xmlns:xlink="http://www.w3.org/1999/xlink">
    <title>E839A7B8-A0A1-46F3-99F1-5CBA4290BCC1</title>
    <g id="Designs" stroke="none" stroke-width="1" fill="none" fill-rule="evenodd">
        <g id="Homepage-design_v1" transform="translate(-163.000000, -4623.000000)" fill="#FFFFFF">
            <g id="Stay-connected" transform="translate(150.000000, 4104.000000)">
                <g id="Social-Media" transform="translate(0.000000, 506.000000)">
                    <g id="Instagram">
                        <path d="M30,13 C39.3888407,13 47,20.6111593 47,30 C47,39.3888407 39.3888407,47 30,47 C20.6111593,47 13,39.3888407 13,30 C13,20.6111593 20.6111593,13 30,13 Z M31.2528087,21.0008496 L29.2271908,21.0008496 C27.6177945,21.0041188 27.2640091,21.0176508 26.4300399,21.05544 C24.9285399,21.12397 23.6095299,21.49203 22.55078,22.55078 C21.49203,23.6095299 21.12397,24.9285399 21.05544,26.4300399 C21.0176508,27.2640091 21.0041188,27.6177945 21.0008496,29.2271908 L21.0008496,29.2271908 L21.0008496,31.2528087 C21.0041188,32.8622051 21.0176508,33.2159905 21.05544,34.0499597 C21.12397,35.5514596 21.49203,36.8704696 22.55078,37.9292196 C23.6095299,38.9879696 24.9285399,39.3560295 26.4300399,39.4245595 C27.3019168,39.4640665 27.6489646,39.4770608 29.4545997,39.4795335 L31.2986681,39.4790533 C32.8690201,39.4756195 33.223971,39.4619872 34.0499597,39.4245595 C35.5514596,39.3560295 36.8704696,38.9879696 37.9292196,37.9292196 C38.9879696,36.8704696 39.3560295,35.5514596 39.4245595,34.0499597 C39.4640665,33.1780828 39.4770608,32.8310349 39.4795335,31.0253999 L39.4790533,29.1813314 C39.4756195,27.6109795 39.4619872,27.2560285 39.4245595,26.4300399 C39.3560295,24.9285399 38.9879696,23.6095299 37.9292196,22.55078 C36.8704696,21.49203 35.5514596,21.12397 34.0499597,21.05544 C33.2159905,21.0176508 32.8622051,21.0041188 31.2528087,21.0008496 L31.2528087,21.0008496 Z M31.2796291,22.6655781 C32.8197204,22.6686616 33.1574206,22.6812123 33.9737297,22.71864 C35.0255497,22.76638 36.0011396,22.97736 36.7518896,23.7281099 C37.5026396,24.4788599 37.7136196,25.4544499 37.7613596,26.5062699 C37.8043019,27.4428564 37.8144964,27.7494041 37.8152171,29.9648243 L37.8150836,30.7720256 C37.8136285,32.7561273 37.8025842,33.0746066 37.7613596,33.9737297 C37.7136196,35.0255497 37.5026396,36.0011396 36.7518896,36.7518896 C36.0011396,37.5026396 35.0255497,37.7136196 33.9737297,37.7613596 C33.0371432,37.8043019 32.7305955,37.8144964 30.5151753,37.8152171 L29.7079739,37.8150836 C27.7238722,37.8136285 27.4053929,37.8025842 26.5062699,37.7613596 C25.4544499,37.7136196 24.4788599,37.5026396 23.7281099,36.7518896 C22.97736,36.0011396 22.76638,35.0255497 22.71864,33.9737297 C22.679133,33.1120701 22.6673438,32.7836753 22.6651492,31.0115257 L22.6655781,29.2003705 C22.6686616,27.6602791 22.6812123,27.322579 22.71864,26.5062699 C22.76638,25.4544499 22.97736,24.4788599 23.7281099,23.7281099 C24.4788599,22.97736 25.4544499,22.76638 26.5062699,22.71864 C27.3679295,22.679133 27.6963242,22.6673438 29.4684739,22.6651492 Z M30.2399998,25.4952599 C27.6196898,25.4952599 25.4952599,27.6196898 25.4952599,30.2399998 C25.4952599,32.8603097 27.6196898,34.9847397 30.2399998,34.9847397 C32.8603097,34.9847397 34.9847397,32.8603097 34.9847397,30.2399998 C34.9847397,27.6196898 32.8603097,25.4952599 30.2399998,25.4952599 Z M30.2399998,27.1599998 C31.9409297,27.1599998 33.3199997,28.5390698 33.3199997,30.2399998 C33.3199997,31.9409297 31.9409297,33.3199997 30.2399998,33.3199997 C28.5390698,33.3199997 27.1599998,31.9409297 27.1599998,30.2399998 C27.1599998,28.5390698 28.5390698,27.1599998 30.2399998,27.1599998 Z M35.1726196,24.1985799 C34.5602463,24.1985799 34.0638197,24.6950066 34.0638197,25.3073799 C34.0638197,25.9197532 34.5602463,26.4161799 35.1726196,26.4161799 C35.784993,26.4161799 36.2814196,25.9197532 36.2814196,25.3073799 C36.2814196,24.6950066 35.784993,24.1985799 35.1726196,24.1985799 Z" id="Icon-/-Instagram"></path>
                    </g>
                </g>
            </g>
        </g>
    </g>
</svg>