<?xml version="1.0" encoding="UTF-8"?>
<svg width="159px" height="26px" viewBox="0 0 159 26" version="1.1" xmlns="http://www.w3.org/2000/svg" xmlns:xlink="http://www.w3.org/1999/xlink">
    <title>6B9DC962-7E4A-410D-8A14-5FCC40141B72</title>
    <defs>
        <linearGradient x1="-0.0233699462%" y1="49.9885347%" x2="99.9766301%" y2="49.9885347%" id="linearGradient-1">
            <stop stop-color="#E74A21" offset="30%"></stop>
            <stop stop-color="#EC9A1E" offset="70%"></stop>
        </linearGradient>
    </defs>
    <g id="Designs" stroke="none" stroke-width="1" fill="none" fill-rule="evenodd">
        <g id="Homepage-design_v1" transform="translate(-739.000000, -2742.000000)" fill-rule="nonzero">
            <g id="3.-Who-is-involved" transform="translate(150.000000, 1660.000000)">
                <g id="Main-partners" transform="translate(0.000000, 972.000000)">
                    <g id="Novartis" transform="translate(589.000000, 110.000000)">
                        <g id="Novartis-Logo">
                            <path d="M15.8780089,11.9183673 L15.8135078,12.081862 C16.8885254,12.5459757 19.3019397,14.3866086 19.3019397,18.0942444 C19.3019397,21.5856455 16.3026408,25.1034166 11.5886889,25.1034166 C5.72446833,25.1034166 3.70343538,21.7385921 3.70343538,18.6480165 C3.70343538,14.6872277 6.52535639,12.0502178 6.52535639,8.44278835 C6.49370015,5.81537718 4.61644856,3.55778087 1.9995326,3 L1.90278102,3.16349461 C2.83398322,4.05005719 3.3561984,5.27104532 3.3486796,6.54414125 C3.3486796,10.4416418 0,13.2105022 0,17.6828709 C0,21.8018803 2.93479785,26 11.4328114,26 C19.0063099,26 23,22.3609264 23,18.4897959 C22.9946249,15.1671635 20.5704604,12.356111 15.8780089,11.9183673 Z" id="_Path_" fill="url(#linearGradient-1)"></path>
                            <path d="M49.0445658,24.7723615 L38.9471679,12.0733055 L38.9471679,23.5208603 L41.0065411,23.9993755 L41.0065411,24.5252163 L36.3109546,24.5252163 L36.3109546,23.9993755 L37.9929557,23.5208603 L37.9929557,11.0479158 C37.5835752,10.6757088 37.090659,10.4020005 36.5535509,10.2486378 C36.3486918,10.2065705 36.0737493,10.1592448 36.0737493,10.1592448 L36.0737493,9.63340401 L40.05772,9.63340401 L48.6833669,20.5708933 L48.6833669,10.6482768 L46.6239937,10.1645032 L46.6239937,9.63866242 L51.3195802,9.63866242 L51.3195802,10.1645032 L49.6375791,10.6482768 L49.6375791,22.0011803 C49.6375791,23.052862 49.7130535,24.5830588 49.7292266,24.7776199 L49.0445658,24.7723615 Z M70.1559237,16.6849295 C70.1559237,21.9433378 66.3821162,24.9932147 62.2579787,24.9932147 C58.1338413,24.9932147 54.3439477,21.9012706 54.3439477,17.0950854 C54.3439477,12.2889002 58.1176682,9.16540567 62.2202415,9.16540567 C64.3068557,9.09821746 66.3316371,9.86227819 67.8286003,11.281746 C69.3255635,12.7012139 70.1657639,14.6538195 70.1559237,16.6901879 L70.1559237,16.6849295 Z M67.5304054,17.4736908 C67.5304054,13.6087607 65.1583525,9.85951557 61.934517,9.85951557 C58.5058223,9.85951557 56.9585969,13.0934367 56.9585969,16.5534693 C56.9585969,20.013502 58.9155405,24.3043632 62.5976136,24.3043632 C66.0586544,24.3043632 67.5304054,20.8863978 67.5304054,17.4736908 L67.5304054,17.4736908 Z M73.4174094,10.63776 L71.8001006,10.1539864 L71.8001006,9.6281456 L77.9943933,9.6281456 L77.9943933,10.1539864 L76.0536228,10.63776 L80.328709,22.0064387 L80.328709,22.0064387 L84.6037953,10.63776 L82.6630247,10.1539864 L82.6630247,9.6281456 L87.2453997,9.6281456 L87.2453997,10.1539864 L85.6280909,10.63776 L80.2747987,24.8091704 L78.9054773,24.8091704 L73.4174094,10.63776 Z M110.022499,16.9215579 L109.041331,16.9215579 L109.041331,10.4116484 C112.275949,10.4116484 114.200546,11.1373088 114.200546,13.7139289 C114.184373,15.6279895 112.502372,16.9215579 110.022499,16.9215579 Z M137.73778,23.9993755 L139.894192,23.5208603 L139.894192,10.6430184 L137.73778,10.1592448 L137.73778,9.63340401 L144.460394,9.63340401 L144.460394,10.1592448 L142.303982,10.6430184 L142.303982,23.5208603 L144.460394,23.9993755 L144.460394,24.5252163 L137.73778,24.5252163 L137.73778,23.9993755 Z M148.57914,20.4341747 L149.005032,20.4341747 L150.433654,23.6418037 C151.282988,24.0579039 152.216683,24.2842381 153.166906,24.3043632 C155.02142,24.3043632 156.714204,23.2526815 156.714204,21.3701713 C156.714204,19.9398843 155.765382,19.0880221 154.228939,18.3045193 L152.708669,17.5367917 C150.891892,16.6165702 149.075115,15.312485 149.075115,13.2143801 C149.075115,10.9322309 150.692424,9.17066408 154.153465,9.17066408 C155.369649,9.18270819 156.576802,9.3759955 157.733108,9.74383058 L158.094307,13.1933464 L157.63607,13.1933464 L156.315267,10.4274237 C155.631435,10.0549464 154.861223,9.85943661 154.07799,9.85951557 C152.325906,9.85951557 151.134488,10.9111972 151.134488,12.3677763 C151.134488,13.6876368 152.03479,14.5184653 153.576624,15.2967097 L155.377228,16.2116728 C157.835538,17.4526572 159,18.6042486 159,20.7339039 C159,23.3631081 156.471607,24.9984731 153.328637,24.9984731 C151.848967,25.0204283 150.375625,24.8054855 148.967294,24.3622057 L148.57914,20.4341747 Z M86.2588413,23.9993755 L87.9893617,23.5208603 L93.3318718,9.62288719 L95.1163025,9.17592249 L100.631325,23.5156019 L102.361846,23.9993755 L102.361846,24.5252163 L95.8171363,24.5252163 L95.8171363,23.9993755 L98.0328493,23.5156019 L96.4694508,19.3930098 L90.5932289,19.3930098 L89.0406124,23.5156019 L91.2563255,23.9941171 L91.2563255,24.5199579 L86.2588413,24.5199579 L86.2588413,23.9993755 Z M91.0029471,18.2940025 L96.0866878,18.2940025 L93.563686,11.6473744 L93.563686,11.6473744 L91.0029471,18.2940025 Z M113.106167,17.2423208 C113.64527,17.1108606 116.669638,16.3589082 116.669638,13.561435 C116.669638,11.3160947 114.906771,9.57556152 110.561601,9.57556152 C107.866087,9.57556152 105.170572,9.63340401 104.830937,9.64392083 L104.830937,10.1697617 L106.604586,10.6535352 L106.604586,23.5156019 L104.830937,23.9993755 L104.830937,24.5252163 L111.106095,24.5252163 L111.106095,23.9993755 L109.046722,23.5156019 L109.046722,17.6998023 L110.820371,17.6998023 L115.354227,24.5357331 L119.370543,24.5357331 L119.370543,24.0098923 L117.338125,23.4840515 L113.106167,17.2423208 Z M126.357317,10.40639 L126.357317,23.5208603 L124.200906,23.9993755 L124.200906,24.5252163 L130.923519,24.5252163 L130.923519,23.9993755 L128.767108,23.5208603 L128.767108,10.4116484 L132.39527,10.4116484 L133.592079,12.9251676 L134.055707,12.9251676 L133.710681,9.64917923 L121.413744,9.64917923 L121.068718,12.9251676 L121.532346,12.9251676 L122.718373,10.4379405 L126.357317,10.40639 Z M11.3181426,19.871525 L13.4745543,0 L9,0 L11.1564117,19.871525 L11.3181426,19.871525 Z" id="_Compound_Path_" fill="#0460A9"></path>
                        </g>
                    </g>
                </g>
            </g>
        </g>
    </g>
</svg>