<?xml version="1.0" encoding="UTF-8"?>
<svg width="36px" height="42px" viewBox="0 0 36 42" version="1.1" xmlns="http://www.w3.org/2000/svg" xmlns:xlink="http://www.w3.org/1999/xlink">
    <title>60B7D8EB-389D-4383-9332-5A571E2BF52B</title>
    <g id="Designs" stroke="none" stroke-width="1" fill="none" fill-rule="evenodd">
        <g id="Homepage-design_v1" transform="translate(-200.000000, -3901.000000)" fill="#FFFFFF">
            <g id="4.-Resources" transform="translate(-1.000000, 2986.000000)">
                <g id="Abstract" transform="translate(153.000000, 897.000000)">
                    <g id="Icon-/-Psychological-impact" transform="translate(48.000000, 18.000000)">
                        <path d="M15.1280713,7.00088845 C11.6294636,6.96387055 9.29254028,8.08364182 8.11730136,10.3602023 C6.35444299,13.7750429 6.51016599,15.387378 9.79652216,16.5956616 C13.0828783,17.8039452 15.5062888,18.0215765 16.7938916,18.7470548 C17.6522935,19.2307069 18.6906009,20.3135006 19.9088138,21.9954359 C21.1589107,23.3348547 22.3859033,23.3348547 23.5897915,21.9954359 C25.3956239,19.9863076 25.7388383,15.8011075 22.996473,11.6570384 C21.1682294,8.89432573 18.5454289,7.34227573 15.1280713,7.00088845 Z" id="Path-3" transform="translate(16.000000, 15.000000) scale(-1, 1) translate(-16.000000, -15.000000) "></path>
                        <path d="M35.7896784,23.9020801 C34.4440849,21.616518 32.8664924,18.6779383 32.6344935,17.7916999 C33.144891,14.5732554 32.8200926,11.4480991 31.6136983,8.46287521 C29.7577072,3.79846286 23.8185355,0.300153603 17.2297669,0.020288862 C10.687398,-0.306220002 4.65542677,3.33202163 1.77864047,9.20918119 C1.40744224,10.0021313 1.08264379,10.7950814 0.897044672,11.4947432 C0.618645998,12.3809816 -1.88694207,20.1705502 2.93863495,28.4732042 C2.98503472,28.5198483 2.98503472,28.5664924 3.0314345,28.6131366 C3.0314345,28.6597807 4.88742566,31.1319192 4.74822633,34.2104314 L3.63463163,41.3936264 C3.63463163,41.5335588 3.63463163,41.6734911 3.72743119,41.7667794 C3.82023075,41.8600676 3.95943008,41.9067118 4.09862942,41.9067118 L6.04742014,41.9067118 C6.27941903,41.9067118 6.46501815,41.7201353 6.51141793,41.5335588 L7.57861284,34.6302285 L7.57861284,34.5835844 C7.85701152,30.665478 5.76902146,27.5403217 5.39782323,26.9339481 C1.12904357,19.5175325 3.58823185,12.4276257 3.58823185,12.3343375 C3.58823185,12.2876933 3.63463163,12.2410492 3.63463163,12.1944051 C3.77383097,11.6346756 4.00582986,10.9816579 4.33062831,10.3286402 C6.69701704,5.61758368 11.7081932,2.63235978 17.0905675,2.91222452 C22.5193417,3.14544514 27.5305178,5.99073667 28.9689109,9.58233418 C29.9897061,12.0544727 30.2681048,14.7131878 29.804107,17.4185469 C29.804107,17.5118352 29.7577072,17.6051234 29.7577072,17.6517675 C29.7113074,18.0715647 29.6185078,18.8645148 32.7736928,24.4151654 C32.6344935,24.4151654 32.4952941,24.4151654 32.3560948,24.4151654 L32.309695,24.4151654 C31.892097,24.4151654 31.5208988,24.4618096 31.1497006,24.5550978 C30.5929032,24.7416743 30.1289054,25.0681832 29.7113074,25.5346244 C29.2473096,26.0943539 28.9225112,26.887304 28.8761114,27.6802541 L28.8761114,34.5369402 C28.8761114,34.7701609 28.8297116,34.9100932 28.6441125,35.0500256 C27.6697171,35.8429757 24.3753328,35.7963316 21.9161445,35.3298903 C21.4985465,35.2366021 21.0809485,35.3298903 20.7097503,35.6097551 C20.3849518,35.8896198 20.1993527,36.2627728 20.1993527,36.729214 L20.1993527,41.5335588 C20.1993527,41.7667794 20.3849518,42 20.6633505,42 L22.6121412,42 C22.8441401,42 23.076139,41.8134235 23.076139,41.5335588 L23.076139,38.3617584 C25.1641291,38.594979 28.6905123,38.7349114 30.5001036,37.2422994 C31.3352997,36.5426376 31.7992975,35.6097551 31.7528977,34.4902961 L31.7528977,27.8201865 C31.7528977,27.63361 31.8456972,27.260457 32.1704957,27.260457 C32.727293,27.3071011 34.5368844,27.3537452 35.46488,26.2809304 C35.9288778,25.767845 36.1144769,25.0681832 35.9288778,24.3685213 C35.9288778,24.228589 35.882478,24.0420125 35.7896784,23.9020801 Z" id="Path" fill-rule="nonzero"></path>
                    </g>
                </g>
            </g>
        </g>
    </g>
</svg>