<?xml version="1.0" encoding="UTF-8"?>
<svg width="34px" height="34px" viewBox="0 0 34 34" version="1.1" xmlns="http://www.w3.org/2000/svg" xmlns:xlink="http://www.w3.org/1999/xlink">
    <title>A93947E5-5A29-40A5-B218-0AAE5F6C2A5B</title>
    <g id="Designs" stroke="none" stroke-width="1" fill="none" fill-rule="evenodd">
        <g id="Homepage-design_v1" transform="translate(-315.000000, -4623.000000)" fill="#FFFFFF">
            <g id="Stay-connected" transform="translate(150.000000, 4104.000000)">
                <g id="Social-Media" transform="translate(0.000000, 506.000000)">
                    <g id="Twitter" transform="translate(152.000000, 0.000000)">
                        <path d="M30,13 C39.3888407,13 47,20.6111593 47,30 C47,39.3888407 39.3888407,47 30,47 C20.6111593,47 13,39.3888407 13,30 C13,20.6111593 20.6111593,13 30,13 Z M40,23.9076923 C39.25,24.2153846 38.46875,24.4615385 37.65625,24.5538462 C38.5,24.0615385 39.15625,23.2615385 39.46875,22.3076923 C38.6875,22.7692308 37.8125,23.1076923 36.875,23.2923077 C36.09375,22.4923077 35.03125,22 33.84375,22 C31.5625,22 29.75,23.8153846 29.75,26.0307692 C29.75,26.3384615 29.78125,26.6461538 29.84375,26.9538462 C26.4375,26.8 23.40625,25.1692308 21.40625,22.7384615 C21.0625,23.3230769 20.84375,24.0307692 20.84375,24.7692308 C20.84375,26.1846154 21.5625,27.4153846 22.65625,28.1230769 C21.96875,28.0923077 21.34375,27.9076923 20.8125,27.6307692 C20.8125,27.6615385 20.8125,27.6615385 20.8125,27.6923077 C20.8125,29.6615385 22.21875,31.2923077 24.09375,31.6615385 C23.75,31.7538462 23.375,31.8153846 23,31.8153846 C22.75,31.8153846 22.46875,31.7846154 22.21875,31.7538462 C22.75,33.3538462 24.25,34.5230769 26.0625,34.5538462 C24.65625,35.6307692 22.875,36.2769231 20.96875,36.2769231 C20.625,36.2769231 20.3125,36.2461538 20,36.2153846 C21.8125,37.3230769 23.96875,38 26.28125,38 C33.84375,38 37.96875,31.8461538 37.96875,26.4923077 C37.96875,26.3076923 37.96875,26.1538462 37.96875,25.9692308 C38.75,25.4153846 39.4375,24.7076923 40,23.9076923 Z" id="Icon-/-Facebook-Copy"></path>
                    </g>
                </g>
            </g>
        </g>
    </g>
</svg>