<?xml version="1.0" encoding="UTF-8"?>
<svg width="23px" height="443px" viewBox="0 0 23 443" version="1.1" xmlns="http://www.w3.org/2000/svg" xmlns:xlink="http://www.w3.org/1999/xlink">
    <title>AC349774-81ED-46A8-B4C6-2A85B3270099</title>
    <g id="Designs" stroke="none" stroke-width="1" fill="none" fill-rule="evenodd" opacity="0.400000006">
        <g id="Homepage-design_v1" transform="translate(-150.000000, -1028.000000)" fill="#0460A9">
            <g id="Vision-&amp;-Values" transform="translate(-1.000000, 885.000000)">
                <g id="Dot-pattern" transform="translate(151.000000, 143.000000)">
                    <path d="M1.5,440 C2.32842712,440 3,440.671573 3,441.5 C3,442.328427 2.32842712,443 1.5,443 C0.671572875,443 -1.13686838e-13,442.328427 -1.13686838e-13,441.5 C-1.13686838e-13,440.671573 0.671572875,440 1.5,440 Z M21.5,440 C22.3284271,440 23,440.671573 23,441.5 C23,442.328427 22.3284271,443 21.5,443 C20.6715729,443 20,442.328427 20,441.5 C20,440.671573 20.6715729,440 21.5,440 Z M1.5,420 C2.32842712,420 3,420.671573 3,421.5 C3,422.328427 2.32842712,423 1.5,423 C0.671572875,423 -1.13686838e-13,422.328427 -1.13686838e-13,421.5 C-1.13686838e-13,420.671573 0.671572875,420 1.5,420 Z M21.5,420 C22.3284271,420 23,420.671573 23,421.5 C23,422.328427 22.3284271,423 21.5,423 C20.6715729,423 20,422.328427 20,421.5 C20,420.671573 20.6715729,420 21.5,420 Z M1.5,400 C2.32842712,400 3,400.671573 3,401.5 C3,402.328427 2.32842712,403 1.5,403 C0.671572875,403 -1.13686838e-13,402.328427 -1.13686838e-13,401.5 C-1.13686838e-13,400.671573 0.671572875,400 1.5,400 Z M21.5,400 C22.3284271,400 23,400.671573 23,401.5 C23,402.328427 22.3284271,403 21.5,403 C20.6715729,403 20,402.328427 20,401.5 C20,400.671573 20.6715729,400 21.5,400 Z M1.5,380 C2.32842712,380 3,380.671573 3,381.5 C3,382.328427 2.32842712,383 1.5,383 C0.671572875,383 -1.13686838e-13,382.328427 -1.13686838e-13,381.5 C-1.13686838e-13,380.671573 0.671572875,380 1.5,380 Z M21.5,380 C22.3284271,380 23,380.671573 23,381.5 C23,382.328427 22.3284271,383 21.5,383 C20.6715729,383 20,382.328427 20,381.5 C20,380.671573 20.6715729,380 21.5,380 Z M1.5,360 C2.32842712,360 3,360.671573 3,361.5 C3,362.328427 2.32842712,363 1.5,363 C0.671572875,363 -1.13686838e-13,362.328427 -1.13686838e-13,361.5 C-1.13686838e-13,360.671573 0.671572875,360 1.5,360 Z M21.5,360 C22.3284271,360 23,360.671573 23,361.5 C23,362.328427 22.3284271,363 21.5,363 C20.6715729,363 20,362.328427 20,361.5 C20,360.671573 20.6715729,360 21.5,360 Z M1.5,340 C2.32842712,340 3,340.671573 3,341.5 C3,342.328427 2.32842712,343 1.5,343 C0.671572875,343 -1.13686838e-13,342.328427 -1.13686838e-13,341.5 C-1.13686838e-13,340.671573 0.671572875,340 1.5,340 Z M21.5,340 C22.3284271,340 23,340.671573 23,341.5 C23,342.328427 22.3284271,343 21.5,343 C20.6715729,343 20,342.328427 20,341.5 C20,340.671573 20.6715729,340 21.5,340 Z M1.5,320 C2.32842712,320 3,320.671573 3,321.5 C3,322.328427 2.32842712,323 1.5,323 C0.671572875,323 -1.13686838e-13,322.328427 -1.13686838e-13,321.5 C-1.13686838e-13,320.671573 0.671572875,320 1.5,320 Z M21.5,320 C22.3284271,320 23,320.671573 23,321.5 C23,322.328427 22.3284271,323 21.5,323 C20.6715729,323 20,322.328427 20,321.5 C20,320.671573 20.6715729,320 21.5,320 Z M1.5,300 C2.32842712,300 3,300.671573 3,301.5 C3,302.328427 2.32842712,303 1.5,303 C0.671572875,303 -1.13686838e-13,302.328427 -1.13686838e-13,301.5 C-1.13686838e-13,300.671573 0.671572875,300 1.5,300 Z M21.5,300 C22.3284271,300 23,300.671573 23,301.5 C23,302.328427 22.3284271,303 21.5,303 C20.6715729,303 20,302.328427 20,301.5 C20,300.671573 20.6715729,300 21.5,300 Z M1.5,280 C2.32842712,280 3,280.671573 3,281.5 C3,282.328427 2.32842712,283 1.5,283 C0.671572875,283 -1.13686838e-13,282.328427 -1.13686838e-13,281.5 C-1.13686838e-13,280.671573 0.671572875,280 1.5,280 Z M21.5,280 C22.3284271,280 23,280.671573 23,281.5 C23,282.328427 22.3284271,283 21.5,283 C20.6715729,283 20,282.328427 20,281.5 C20,280.671573 20.6715729,280 21.5,280 Z M1.5,260 C2.32842712,260 3,260.671573 3,261.5 C3,262.328427 2.32842712,263 1.5,263 C0.671572875,263 -1.13686838e-13,262.328427 -1.13686838e-13,261.5 C-1.13686838e-13,260.671573 0.671572875,260 1.5,260 Z M21.5,260 C22.3284271,260 23,260.671573 23,261.5 C23,262.328427 22.3284271,263 21.5,263 C20.6715729,263 20,262.328427 20,261.5 C20,260.671573 20.6715729,260 21.5,260 Z M21.5,240 C22.3284271,240 23,240.671573 23,241.5 C23,242.328427 22.3284271,243 21.5,243 C20.6715729,243 20,242.328427 20,241.5 C20,240.671573 20.6715729,240 21.5,240 Z M1.5,240 C2.32842712,240 3,240.671573 3,241.5 C3,242.328427 2.32842712,243 1.5,243 C0.671572875,243 -1.13686838e-13,242.328427 -1.13686838e-13,241.5 C-1.13686838e-13,240.671573 0.671572875,240 1.5,240 Z M21.5,220 C22.3284271,220 23,220.671573 23,221.5 C23,222.328427 22.3284271,223 21.5,223 C20.6715729,223 20,222.328427 20,221.5 C20,220.671573 20.6715729,220 21.5,220 Z M1.5,220 C2.32842712,220 3,220.671573 3,221.5 C3,222.328427 2.32842712,223 1.5,223 C0.671572875,223 -1.13686838e-13,222.328427 -1.13686838e-13,221.5 C-1.13686838e-13,220.671573 0.671572875,220 1.5,220 Z M1.5,200 C2.32842712,200 3,200.671573 3,201.5 C3,202.328427 2.32842712,203 1.5,203 C0.671572875,203 -1.13686838e-13,202.328427 -1.13686838e-13,201.5 C-1.13686838e-13,200.671573 0.671572875,200 1.5,200 Z M21.5,200 C22.3284271,200 23,200.671573 23,201.5 C23,202.328427 22.3284271,203 21.5,203 C20.6715729,203 20,202.328427 20,201.5 C20,200.671573 20.6715729,200 21.5,200 Z M1.5,180 C2.32842712,180 3,180.671573 3,181.5 C3,182.328427 2.32842712,183 1.5,183 C0.671572875,183 -1.13686838e-13,182.328427 -1.13686838e-13,181.5 C-1.13686838e-13,180.671573 0.671572875,180 1.5,180 Z M21.5,180 C22.3284271,180 23,180.671573 23,181.5 C23,182.328427 22.3284271,183 21.5,183 C20.6715729,183 20,182.328427 20,181.5 C20,180.671573 20.6715729,180 21.5,180 Z M21.5,160 C22.3284271,160 23,160.671573 23,161.5 C23,162.328427 22.3284271,163 21.5,163 C20.6715729,163 20,162.328427 20,161.5 C20,160.671573 20.6715729,160 21.5,160 Z M1.5,160 C2.32842712,160 3,160.671573 3,161.5 C3,162.328427 2.32842712,163 1.5,163 C0.671572875,163 -1.13686838e-13,162.328427 -1.13686838e-13,161.5 C-1.13686838e-13,160.671573 0.671572875,160 1.5,160 Z M1.5,140 C2.32842712,140 3,140.671573 3,141.5 C3,142.328427 2.32842712,143 1.5,143 C0.671572875,143 -1.13686838e-13,142.328427 -1.13686838e-13,141.5 C-1.13686838e-13,140.671573 0.671572875,140 1.5,140 Z M21.5,140 C22.3284271,140 23,140.671573 23,141.5 C23,142.328427 22.3284271,143 21.5,143 C20.6715729,143 20,142.328427 20,141.5 C20,140.671573 20.6715729,140 21.5,140 Z M1.5,120 C2.32842712,120 3,120.671573 3,121.5 C3,122.328427 2.32842712,123 1.5,123 C0.671572875,123 -1.13686838e-13,122.328427 -1.13686838e-13,121.5 C-1.13686838e-13,120.671573 0.671572875,120 1.5,120 Z M21.5,120 C22.3284271,120 23,120.671573 23,121.5 C23,122.328427 22.3284271,123 21.5,123 C20.6715729,123 20,122.328427 20,121.5 C20,120.671573 20.6715729,120 21.5,120 Z M1.5,100 C2.32842712,100 3,100.671573 3,101.5 C3,102.328427 2.32842712,103 1.5,103 C0.671572875,103 -1.13686838e-13,102.328427 -1.13686838e-13,101.5 C-1.13686838e-13,100.671573 0.671572875,100 1.5,100 Z M21.5,100 C22.3284271,100 23,100.671573 23,101.5 C23,102.328427 22.3284271,103 21.5,103 C20.6715729,103 20,102.328427 20,101.5 C20,100.671573 20.6715729,100 21.5,100 Z M1.5,80 C2.32842712,80 3,80.6715729 3,81.5 C3,82.3284271 2.32842712,83 1.5,83 C0.671572875,83 -1.13686838e-13,82.3284271 -1.13686838e-13,81.5 C-1.13686838e-13,80.6715729 0.671572875,80 1.5,80 Z M21.5,80 C22.3284271,80 23,80.6715729 23,81.5 C23,82.3284271 22.3284271,83 21.5,83 C20.6715729,83 20,82.3284271 20,81.5 C20,80.6715729 20.6715729,80 21.5,80 Z M1.5,60 C2.32842712,60 3,60.6715729 3,61.5 C3,62.3284271 2.32842712,63 1.5,63 C0.671572875,63 -1.13686838e-13,62.3284271 -1.13686838e-13,61.5 C-1.13686838e-13,60.6715729 0.671572875,60 1.5,60 Z M21.5,60 C22.3284271,60 23,60.6715729 23,61.5 C23,62.3284271 22.3284271,63 21.5,63 C20.6715729,63 20,62.3284271 20,61.5 C20,60.6715729 20.6715729,60 21.5,60 Z M1.5,40 C2.32842712,40 3,40.6715729 3,41.5 C3,42.3284271 2.32842712,43 1.5,43 C0.671572875,43 -1.13686838e-13,42.3284271 -1.13686838e-13,41.5 C-1.13686838e-13,40.6715729 0.671572875,40 1.5,40 Z M21.5,40 C22.3284271,40 23,40.6715729 23,41.5 C23,42.3284271 22.3284271,43 21.5,43 C20.6715729,43 20,42.3284271 20,41.5 C20,40.6715729 20.6715729,40 21.5,40 Z M1.5,20 C2.32842712,20 3,20.6715729 3,21.5 C3,22.3284271 2.32842712,23 1.5,23 C0.671572875,23 -1.13686838e-13,22.3284271 -1.13686838e-13,21.5 C-1.13686838e-13,20.6715729 0.671572875,20 1.5,20 Z M21.5,20 C22.3284271,20 23,20.6715729 23,21.5 C23,22.3284271 22.3284271,23 21.5,23 C20.6715729,23 20,22.3284271 20,21.5 C20,20.6715729 20.6715729,20 21.5,20 Z M1.5,0 C2.32842712,0 3,0.671572875 3,1.5 C3,2.32842712 2.32842712,3 1.5,3 C0.671572875,3 -1.13686838e-13,2.32842712 -1.13686838e-13,1.5 C-1.13686838e-13,0.671572875 0.671572875,0 1.5,0 Z M21.5,0 C22.3284271,0 23,0.671572875 23,1.5 C23,2.32842712 22.3284271,3 21.5,3 C20.6715729,3 20,2.32842712 20,1.5 C20,0.671572875 20.6715729,0 21.5,0 Z" id="Combined-Shape"></path>
                </g>
            </g>
        </g>
    </g>
</svg>