<?xml version="1.0" encoding="UTF-8"?>
<svg width="44px" height="43px" viewBox="0 0 44 43" version="1.1" xmlns="http://www.w3.org/2000/svg" xmlns:xlink="http://www.w3.org/1999/xlink">
    <title>3B16BC1D-E306-455E-9B78-4F73669A3B29</title>
    <g id="Designs" stroke="none" stroke-width="1" fill="none" fill-rule="evenodd" stroke-linecap="square">
        <g id="Homepage-design_v1" transform="translate(-196.000000, -4000.000000)" stroke="#FFFFFF" stroke-width="2.4">
            <g id="4.-Resources" transform="translate(-1.000000, 2986.000000)">
                <g id="Abstract" transform="translate(153.000000, 995.000000)">
                    <g id="Icon-/-Work-and-social-impact" transform="translate(46.000000, 21.000000)">
                        <path d="M37.200001,0 L20.4200004,0 C18.7631462,3.04359188e-16 17.4200004,1.34314575 17.4200004,3 L17.4200004,16.6793756 C17.4200004,17.2316604 17.8677157,17.6793756 18.4200004,17.6793756 C18.6470719,17.6793756 18.8673824,17.6020949 19.0446955,17.4602444 L24.1200006,13.4000003 L24.1200006,13.4000003 L37.200001,13.4000003 C38.8568553,13.4000003 40.200001,12.0568546 40.200001,10.4000003 L40.200001,3 C40.200001,1.34314575 38.8568553,1.39730022e-16 37.200001,0 Z" id="Path"></path>
                        <circle id="Oval" cx="32.1600008" cy="22.7800006" r="4.0200001"></circle>
                        <circle id="Oval" cx="8.0400002" cy="22.7800006" r="4.0200001"></circle>
                        <path d="M16.0800004,37.860001 L16.0800004,34.8634509 L16.0800004,34.8634509 C16.0800004,33.9120508 15.5808504,33.0370308 14.7621104,32.5526208 C13.4589603,31.7814508 11.1997203,30.8200008 8.0400002,30.8200008 C4.83941012,30.8200008 2.59491006,31.7754208 1.30516003,32.5452508 C0.493120012,33.0303308 0,33.9026708 0,34.8487109 L0,37.860001 C5.58162771e-16,38.4122857 0.44771525,38.860001 1,38.860001 L15.0800004,38.860001 C15.6322852,38.860001 16.0800004,38.4122857 16.0800004,37.860001 Z" id="Path"></path>
                        <path d="M40.200001,37.860001 L40.200001,34.8634509 L40.200001,34.8634509 C40.200001,33.9120508 39.700851,33.0370308 38.882111,32.5526208 C37.5789609,31.7814508 35.3197209,30.8200008 32.1600008,30.8200008 C28.9594107,30.8200008 26.7149107,31.7754208 25.4251606,32.5452508 C24.6131206,33.0303308 24.1200006,33.9026708 24.1200006,34.8487109 L24.1200006,37.860001 C24.1200006,38.4122857 24.5677159,38.860001 25.1200006,38.860001 L39.200001,38.860001 C39.7522858,38.860001 40.200001,38.4122857 40.200001,37.860001 Z" id="Path"></path>
                    </g>
                </g>
            </g>
        </g>
    </g>
</svg>