<svg width="100" height="100" viewBox="0 0 100 100" fill="none" xmlns="http://www.w3.org/2000/svg">
<g filter="url(#filter0_d)">
<rect x="20" y="8" width="60" height="60" rx="30" fill="#80C3BF"/>
</g>
<path fill-rule="evenodd" clip-rule="evenodd" d="M50 21C40.6112 21 33 28.6112 33 38C33 47.3888 40.6112 55 50 55C59.3888 55 67 47.3888 67 38C67 28.6112 59.3888 21 50 21ZM50.24 29C47.7306 29 47.4156 29.0108 46.43 29.0554C44.9285 29.124 43.6095 29.492 42.5508 30.5508C41.492 31.6095 41.124 32.9285 41.0554 34.43C41.0108 35.4156 41 35.7306 41 38.24C41 40.7494 41.0108 41.0644 41.0554 42.05C41.124 43.5515 41.492 44.8705 42.5508 45.9292C43.6095 46.988 44.9285 47.356 46.43 47.4246C47.4156 47.4692 47.7306 47.48 50.24 47.48C52.7494 47.48 53.0644 47.4692 54.05 47.4246C55.5515 47.356 56.8705 46.988 57.9292 45.9292C58.988 44.8705 59.356 43.5515 59.4246 42.05C59.4692 41.0644 59.48 40.7494 59.48 38.24C59.48 35.7306 59.4692 35.4156 59.4246 34.43C59.356 32.9285 58.988 31.6095 57.9292 30.5508C56.8705 29.492 55.5515 29.124 54.05 29.0554C53.0644 29.0108 52.7494 29 50.24 29ZM50.24 30.6647C52.7071 30.6647 52.9997 30.674 53.9737 30.7186C55.0255 30.7664 56.0011 30.9774 56.7519 31.7281C57.5026 32.4789 57.7136 33.4544 57.7614 34.5063C57.806 35.4803 57.8153 35.7729 57.8153 38.24C57.8153 40.7071 57.806 40.9997 57.7614 41.9737C57.7136 43.0255 57.5026 44.0011 56.7519 44.7519C56.0011 45.5026 55.0255 45.7136 53.9737 45.7614C52.9997 45.806 52.7071 45.8153 50.24 45.8153C47.7729 45.8153 47.4803 45.806 46.5063 45.7614C45.4544 45.7136 44.4789 45.5026 43.7281 44.7519C42.9774 44.0011 42.7664 43.0255 42.7186 41.9737C42.674 40.9997 42.6647 40.7071 42.6647 38.24C42.6647 35.7729 42.674 35.4803 42.7186 34.5063C42.7664 33.4544 42.9774 32.4789 43.7281 31.7281C44.4789 30.9774 45.4544 30.7664 46.5063 30.7186C47.4803 30.674 47.7729 30.6647 50.24 30.6647ZM50.24 33.4953C47.6197 33.4953 45.4953 35.6197 45.4953 38.24C45.4953 40.8603 47.6197 42.9847 50.24 42.9847C52.8603 42.9847 54.9847 40.8603 54.9847 38.24C54.9847 35.6197 52.8603 33.4953 50.24 33.4953ZM50.24 41.32C48.5391 41.32 47.16 39.9409 47.16 38.24C47.16 36.5391 48.5391 35.16 50.24 35.16C51.9409 35.16 53.32 36.5391 53.32 38.24C53.32 39.9409 51.9409 41.32 50.24 41.32ZM56.2814 33.3074C56.2814 33.9198 55.785 34.4162 55.1726 34.4162C54.5602 34.4162 54.0638 33.9198 54.0638 33.3074C54.0638 32.695 54.5602 32.1986 55.1726 32.1986C55.785 32.1986 56.2814 32.695 56.2814 33.3074Z" fill="white"/>
<defs>
<filter id="filter0_d" x="0" y="0" width="100" height="100" filterUnits="userSpaceOnUse" color-interpolation-filters="sRGB">
<feFlood flood-opacity="0" result="BackgroundImageFix"/>
<feColorMatrix in="SourceAlpha" type="matrix" values="0 0 0 0 0 0 0 0 0 0 0 0 0 0 0 0 0 0 127 0" result="hardAlpha"/>
<feOffset dy="12"/>
<feGaussianBlur stdDeviation="10"/>
<feColorMatrix type="matrix" values="0 0 0 0 0 0 0 0 0 0 0 0 0 0 0 0 0 0 0.1 0"/>
<feBlend mode="normal" in2="BackgroundImageFix" result="effect1_dropShadow"/>
<feBlend mode="normal" in="SourceGraphic" in2="effect1_dropShadow" result="shape"/>
</filter>
</defs>
</svg>
