<svg xmlns="http://www.w3.org/2000/svg" xmlns:xlink="http://www.w3.org/1999/xlink" width="241.642" height="113.282" viewBox="0 0 241.642 113.282">
  <defs>
    <clipPath id="clip-path">
      <rect id="Rectangle_276" data-name="Rectangle 276" width="232.949" height="66.298" fill="none"/>
    </clipPath>
  </defs>
  <g id="arrow" transform="matrix(0.978, -0.208, 0.208, 0.978, 0, 48.433)">
    <g id="Group_291" data-name="Group 291" clip-path="url(#clip-path)">
      <path id="Path_1552" data-name="Path 1552" d="M72.827,105.718c-.077-.06-.137-.036,0,0" transform="translate(-39.347 -57.162)" fill="#1dff1d"/>
      <path id="Path_1553" data-name="Path 1553" d="M236.3,113.119c.03,0,.044-.01.073-.014a3.394,3.394,0,0,1,.1-.367Z" transform="translate(-127.809 -60.978)" fill="#1dff1d"/>
      <path id="Path_1554" data-name="Path 1554" d="M263.059,110.693l.081.022c-.023-.08-.025-.163-.081-.022" transform="translate(-142.285 -59.831)" fill="#1dff1d"/>
      <path id="Path_1555" data-name="Path 1555" d="M174.579,121a.243.243,0,0,0-.209.073.676.676,0,0,1,.209-.073" transform="translate(-94.314 -65.445)" fill="#1dff1d"/>
      <path id="Path_1556" data-name="Path 1556" d="M34.725,81.347l.041.029a1.146,1.146,0,0,1-.014-.143Z" transform="translate(-18.782 -43.938)" fill="#1dff1d"/>
      <path id="Path_1557" data-name="Path 1557" d="M35.1,81.516c.082.25-.192.076-.284.013a.885.885,0,0,0,.445.692c.158-.143-.2-.512-.161-.705" transform="translate(-18.831 -44.091)" fill="#1dff1d"/>
      <path id="Path_1558" data-name="Path 1558" d="M46,16.974l-.052.134A.415.415,0,0,0,46,16.974" transform="translate(-24.851 -9.181)" fill="#1dff1d"/>
      <path id="Path_1559" data-name="Path 1559" d="M177.475,143.667c-.064.021-.136.032-.2.055a.259.259,0,0,0,.2-.055" transform="translate(-95.888 -77.708)" fill="#1dff1d"/>
      <path id="Path_1560" data-name="Path 1560" d="M35.419,24.283l.18.291a.751.751,0,0,0-.18-.291" transform="translate(-19.158 -13.134)" fill="#1dff1d"/>
      <path id="Path_1561" data-name="Path 1561" d="M236.678,112.568l.069-.144a.609.609,0,0,0-.069.144" transform="translate(-128.016 -60.809)" fill="#1dff1d"/>
      <path id="Path_1562" data-name="Path 1562" d="M287.409,105.659a.711.711,0,0,0,.124.234.161.161,0,0,1,.032-.006Z" transform="translate(-155.456 -57.15)" fill="#1dff1d"/>
      <path id="Path_1563" data-name="Path 1563" d="M409.118,68.76a.553.553,0,0,0-.091-.1l-.09.326a.541.541,0,0,0,.18-.226" transform="translate(-221.189 -37.137)" fill="#1dff1d"/>
      <path id="Path_1564" data-name="Path 1564" d="M318.983,98.6c0-.041.025-.087.013-.128a6.735,6.735,0,0,0-1.836.476l.077.41Z" transform="translate(-171.548 -53.261)" fill="#1dff1d"/>
      <path id="Path_1565" data-name="Path 1565" d="M167.353,48.038l-1.937-.087c1.256-.634,2.367-1.124,3.394-1.543s1.976-.754,2.87-1.148a32.307,32.307,0,0,0,5.527-2.831l-.163.275c.358-.062.424-.556,1.395-1.185a7.339,7.339,0,0,1,.915-.494,12.368,12.368,0,0,1,1.346-.566,30.367,30.367,0,0,1,4.5-1.159l.039.074c.232-.136.153-.282.732-.331l-1.423.16a10.852,10.852,0,0,1,1.966-1.762.512.512,0,0,1,.475.2c.753-.438,1.5-.877,2.233-1.355l.955.079c.556-.649-.312-1.463,1.85-1.957-1.084-.293.687-.931.261-1.151.141.032.425.039.663.06,1.056-.7,3.018-2.063,3.324-2.7,0,0-1.286.249-2.759.484a24.548,24.548,0,0,1-3.913.409c1.637-.678.356-.312-.074-.373l-.006.229c-1.011.35-1.252-.086-1.775.051a.543.543,0,0,0,.093.106l.027-.091a.144.144,0,0,1,.064.191c.062.087.061.184-.2.3l.022-.073a7.007,7.007,0,0,1-1.35.715l-.2-.362c-.309,1.081-5.208,1.338-6.131,1.791-1.165.011-2.021,1.189-3.3,1.552-1.934.771-1.206-.1-2.3.019-1.288.315.448.325-.011.571l-1.657.138c.8-.428.245-.446.027-.522-1.246.506-3.474.708-3.5,1.637-1.8.4-1.931.12-2.662.378.3.043.826-.044.9.1-.806-.032-.276.229.025.178-.873.782-5.866.84-5.719,1.771l-.064-.153c.024.726.658,1.173.089,1.819l-.591-.079-.606.572c-.563,0-.395-.269-.426-.345-1.038.808-2.837,1.063-4.3,1.517l2.19,1.151c-1.376.062-3.868.072-3.9.72l-.944-.309c-2.83-.2-1.519,1.121-2.611,1.15-.479-.052-.972-.146-1.456-.218.409-.137.825-.251,1.228-.406a15.214,15.214,0,0,1-3.018-.048c0,.006-.007.015-.005.021.077,0,.13.021.152.056l-.166.072c-.039.368-.6.8-1.476,1.063-1.254.314-2.065,1.107-4.237,1.072l-.285.82-1.61.031-.158-.528c1.478-.339,4.1-1.488,5.942-2.11l-.046-.25c-1.092.362-2.262,1-3,1.192-.387.012-1.455-.237-.914-.808l-.513.737a30.454,30.454,0,0,1-7.7,1.647l.405.172c-.72.371-1.439.752-1.769.366a19.05,19.05,0,0,1-6.514.4l-.185.712c-.5.084-1.448-.7-1.49.249-.327.183-.66.346-.994.507-.687.085-1.027.53-1.875.317h0c-.052-.013-.107-.028-.161-.046a.234.234,0,0,0,.019.051c-1.59.021.131.567-1.7.547-.652-.342-.466.932-1.354.957l-1.033-.745a2.555,2.555,0,0,0-1.769.35,6.506,6.506,0,0,1-2.241.759c-1.143-.16-1.787-.865-1.183-1.671-.849.994-.359.618-1.605,1.224-.254-.316-.125-.411.116-.767-1.219-.229-.668.423-1.546.538-.159.693-.305,1.78-.587,1.867l.371.152a4.369,4.369,0,0,1-3.025.611v-.334l-1.142.3-.124-.414-1.643.314.241.089a7.037,7.037,0,0,1-2.4.246l0-.238a5.874,5.874,0,0,0-2.97.167,23.545,23.545,0,0,1-3.2.674l.283-.5c-.859-.422-.173.755-1.175.583l-.089-.588c-.814.835-1.13-.089-1.741-.343l.325.756-1.133-.087c-1.251-.173-.808-.928-.65-1.346l-.808.668-.2-.673c-.576.828-.618-.109-1.673.348-.1-.257.167-.412-.2-.513l-1.74,1.009,1.056-.454-.1,1c-1.1.787-1.519-.072-2.311.227l.544-.311c-1.3.275-1.377-.149-2.114-.353.23.18.584.448.058.592-.387.065-.215-.347-.582-.448-.078.668-1.014,1.048-1.865.75a.431.431,0,0,1,.083-.247c-.216.106-.328.274-.705.107l.221-.737-.725.692c-.483-.212-1.192.313-1.125-.186L78,55.358l-3.655-.245-.036-.594c-.383.809-1.977-.346-1.89.674-.67-.539-2.731.276-2.275-.848-2.381-.234-3.748.79-6.625.056a2.468,2.468,0,0,0-1.03-.586,8.158,8.158,0,0,0-1.464-.345c-1.062-.166-2.237-.234-3.161-.382l-2.558.036c-.8.017-1.566.034-2.3.016s-1.488-.021-2.272-.066-1.613-.1-2.522-.186a6.054,6.054,0,0,0-3.666-1.15,8.119,8.119,0,0,1-3.814-.915l-.765.344A5.644,5.644,0,0,0,37.395,50a10.745,10.745,0,0,1-1.53-.519,4.639,4.639,0,0,1-1.4-.891,4.147,4.147,0,0,1-.981-.032c.081.06.18.209.094.544-.481-.45-1.738-.672-1.382-1.261l.171,0c.358-.582-1.819-.458-2.163-1.3l.011.825-.978-.623.339.011a10.343,10.343,0,0,1-5.462-2.625,17.332,17.332,0,0,0-4.783-3.216c.5-.1.252-.168-.039-.3s-.635-.34-.358-.679a1.286,1.286,0,0,0-.953-1.286,11,11,0,0,1-1.549-.507.243.243,0,0,1-.162.058c-.331-.434-.662-.865-.961-1.312,1.469.064-1.448-.341-.154-.231-.96-1.9-2.184-3.873-3.087-6.031a13.247,13.247,0,0,1-1.185-6.64c-.1.059-.191.12-.287.182.039-.552.016-1.174.068-1.762a4.764,4.764,0,0,1,.16-.829,1.83,1.83,0,0,1,.36-.652,1,1,0,0,0,.241-.6,2.7,2.7,0,0,0-.079-.679,4.264,4.264,0,0,1-.224-1.052,1.255,1.255,0,0,1,.143-.691,1.294,1.294,0,0,1,.4-.416c.284-.184.537-.18.428-.008a4.353,4.353,0,0,0,.154-.783,7.286,7.286,0,0,1,.113-.869,2.534,2.534,0,0,1,.975-1.679c.527.078.953-.853,1.477-1.713a5.628,5.628,0,0,1,.777-1.1c.249-.262.483-.365.672-.175l-.047-.077a4.717,4.717,0,0,0,1.27-.773,7.2,7.2,0,0,0,.538-.5c.18-.168.359-.341.536-.517A5.744,5.744,0,0,1,21.167,7.6a.7.7,0,0,1-.021.189A38.165,38.165,0,0,1,23.76,2.786Q22.4,1.481,20.945.222a39.759,39.759,0,0,0-5.5-.194,35.107,35.107,0,0,0-9.565,9.68A26.121,26.121,0,0,0,.332,20.033,26.408,26.408,0,0,0,0,23.722a26.891,26.891,0,0,0,.206,3.666A27.706,27.706,0,0,0,2,34.311,35.064,35.064,0,0,0,9.365,45.542q.922.417,1.851.766A12.98,12.98,0,0,0,13.769,49.4a26.619,26.619,0,0,0,3.385,2.54c2.4,1.558,4.923,2.868,7.015,4.484l.407-.564c1.317.606,1.044.948,1.318,1.211a78.747,78.747,0,0,0,19.141,5.7c1.6.287,3.19.534,4.765.761.788.119,1.573.208,2.352.319s1.527.17,2.285.263q2.262.26,4.461.571c1.466.205,2.906.46,4.33.63,1.071.52,4.448.458,5.291.989.943-.162,1.893-.233,2.85-.331s1.917-.155,2.877-.184c1.919-.057,3.835,0,5.7.077l-.141.073c.585-.036,1.17-.11,1.754-.163a.119.119,0,0,1,.029.19c1.971-.655,5.095-.131,7.539.055l-.138.078c1.77-.08,3.521-.22,5.261-.354l2.6-.218c.863-.074,1.724-.145,2.576-.276l5.1-.71,2.534-.359c.845-.112,1.678-.3,2.517-.438l5.027-.886c.837-.151,1.683-.262,2.518-.436l2.513-.5q2.521-.484,5.078-.906c.857-.126,1.707-.3,2.561-.461s1.716-.316,2.582-.464a33,33,0,0,0,5.04-.785c1.691-.443,3.4-1,5.141-1.561l2.627-.846,1.329-.412,1.324-.445a46.51,46.51,0,0,1,5.432-1.463,11.135,11.135,0,0,0,3.119-.733c1.547-.534,3.479-1.271,5.4-2.037l2.818-1.149c.893-.4,1.725-.8,2.462-1.154a29.691,29.691,0,0,0,2.813-1.463" transform="translate(0 0)" fill="#1dff1d"/>
      <path id="Path_1566" data-name="Path 1566" d="M407.219,81.984l-.05.03c.138.253.164.118.05-.03" transform="translate(-220.232 -44.344)" fill="#1dff1d"/>
      <path id="Path_1567" data-name="Path 1567" d="M339.052,93.711l.092-.027-.481-.255Z" transform="translate(-183.178 -50.535)" fill="#1dff1d"/>
      <path id="Path_1568" data-name="Path 1568" d="M377,76.959c-.824.286-.83.366-.67.419a1.729,1.729,0,0,0,.67-.419" transform="translate(-203.51 -41.626)" fill="#1dff1d"/>
      <path id="Path_1569" data-name="Path 1569" d="M419.62,72.872c.42-.211.179-.272-.156-.3l-.68.443c.263-.069.566-.066.836-.139" transform="translate(-226.515 -39.251)" fill="#1dff1d"/>
      <path id="Path_1570" data-name="Path 1570" d="M412.659,67.5l.011-.275c-.208.183-.158.253-.011.275" transform="translate(-223.133 -36.359)" fill="#1dff1d"/>
      <path id="Path_1571" data-name="Path 1571" d="M418.759,29.082c-.051-.028-.084.006,0,0" transform="translate(-226.473 -15.724)" fill="#1dff1d"/>
      <path id="Path_1572" data-name="Path 1572" d="M485.134,68.862c-.023.022-.03.037-.052.06a1.741,1.741,0,0,1,.139.276Z" transform="translate(-262.374 -37.247)" fill="#1dff1d"/>
      <path id="Path_1573" data-name="Path 1573" d="M472.25,80.516l-.051.01c.053.044.1.1.051-.01" transform="translate(-255.406 -43.55)" fill="#1dff1d"/>
      <path id="Path_1574" data-name="Path 1574" d="M482.537,38.59a.416.416,0,0,0-.246.022,1.17,1.17,0,0,1,.246-.022" transform="translate(-260.865 -20.868)" fill="#1dff1d"/>
      <path id="Path_1575" data-name="Path 1575" d="M391.544,26.511l.031-.006a.68.68,0,0,1-.063-.079Z" transform="translate(-211.764 -14.293)" fill="#1dff1d"/>
      <path id="Path_1576" data-name="Path 1576" d="M391.782,26.229c.138.1-.064.155-.133.169a.431.431,0,0,0,.484.165c.023-.176-.3-.194-.352-.335" transform="translate(-211.838 -14.187)" fill="#1dff1d"/>
      <path id="Path_1577" data-name="Path 1577" d="M342.358,20.7l.078-.062a.288.288,0,0,0-.078.062" transform="translate(-185.177 -11.161)" fill="#1dff1d"/>
      <path id="Path_1578" data-name="Path 1578" d="M466.534,55.453l-.056.035c0,.005.026-.011.056-.035" transform="translate(-252.312 -29.994)" fill="#1dff1d"/>
      <path id="Path_1579" data-name="Path 1579" d="M350.05,21.918l.078-.273a.835.835,0,0,0-.078.273" transform="translate(-189.337 -11.707)" fill="#1dff1d"/>
      <path id="Path_1580" data-name="Path 1580" d="M485.386,69.593l.028.131a.381.381,0,0,0-.028-.131" transform="translate(-262.539 -37.642)" fill="#1dff1d"/>
      <path id="Path_1581" data-name="Path 1581" d="M462.447,90.225a.827.827,0,0,0-.18-.12.068.068,0,0,1-.014.012Z" transform="translate(-250.026 -48.737)" fill="#1dff1d"/>
      <path id="Path_1582" data-name="Path 1582" d="M408.416,134.574a.617.617,0,0,0,.092.062l-.061-.229a.245.245,0,0,0-.031.167" transform="translate(-220.905 -72.699)" fill="#1dff1d"/>
      <path id="Path_1583" data-name="Path 1583" d="M447.908,101.432a.52.52,0,0,0,.052.088,2.49,2.49,0,0,0,.782-.693l-.233-.257Z" transform="translate(-242.267 -54.397)" fill="#1dff1d"/>
      <path id="Path_1584" data-name="Path 1584" d="M374.94,59.78l1.138-.208c-1.779,2.4-3.23,2.943-4.542,5.189l-.015-.205c-.369.163.635,1.374-3.536,3.083l-.051-.047c-.087.112.015.206-.313.288l.792-.23a4.207,4.207,0,0,1-.514,1.372.437.437,0,0,1-.36-.1l-.853,1.095-.617.007c-.108.476.718.976-.437,1.449.772.132-.091.679.249.8-.1-.013-.275,0-.429,0a5.284,5.284,0,0,0-1.09,2.061,22.633,22.633,0,0,1,3.8-1.039c-.774.575-.11.238.179.251l-.078-.157c.5-.309.808-.027,1.084-.157a.678.678,0,0,0-.1-.066l.016.064a.163.163,0,0,1-.108-.126c-.07-.055-.1-.122.02-.219l.012.051a2.46,2.46,0,0,1,.584-.582l.257.232c-.2-.757,2.657-1.395,3.056-1.795.706-.12.783-1.007,1.424-1.379.848-.753.754-.072,1.358-.286.64-.373-.393-.168-.218-.393l.929-.3c-.3.39.031.336.19.36.54-.5,1.791-.917,1.437-1.551.914-.5,1.119-.316,1.432-.6-.189.019-.464.148-.568.055.493-.084.073-.19-.087-.117.189-.647,3.053-1.449,2.581-2.057l.1.094c-.32-.486-.876-.693-.819-1.215l.376-.035.109-.476c.328-.084.343.12.394.167.277-.685,1.159-1.181,1.783-1.744l-1.733-.394c.74-.277,2.134-.722,1.865-1.162l.668.04c1.686-.369.354-1.017.956-1.23l.9-.14-.487.513a7.44,7.44,0,0,1,1.669-.573s0-.011-.007-.015a.127.127,0,0,1-.109-.006l.057-.082c-.148-.254-.039-.656.312-1.009.538-.466.608-1.154,1.813-1.58l-.232-.6.828-.39.337.311c-.584.592-1.516,1.859-2.224,2.66l.141.156c.429-.466.769-1.133,1.086-1.409.206-.088.911-.148.881.341l-.064-.592a11.429,11.429,0,0,1,3.268-2.881l-.3-.016c.2-.414.4-.824.753-.66A7.514,7.514,0,0,1,397,50.63l-.27-.505c.212-.185,1.1.061.633-.553l.23-.6c.29-.253.222-.634.745-.744h0a.96.96,0,0,1,.1-.017.289.289,0,0,0-.036-.027c.763-.474-.362-.323.539-.84.5.027-.266-.724.152-1l.9.17c.921-.341.45-.979,1.308-1.912a1.01,1.01,0,0,1,1.46.668,5.188,5.188,0,0,1-.108-.68.675.675,0,0,1,.051-.194l.361-.64c.372.028.327.168.313.571,1.148-.738.326-.742.976-1.421-.292-.5-.9-1.13-.759-1.335l-.37.148a4.1,4.1,0,0,1,1.693-2.062l.285.1.551-.8.471.013.907-1.144-.267.148a6.948,6.948,0,0,1,1.511-1.612l.271,0a6.89,6.89,0,0,0,2.088-2.074,13.806,13.806,0,0,1,1.351-2.027l.554-.007c1.286-.8-1.021.194-.038-.577l.993-.348c-.46-.118.068-.427.769-.824.115-.12.263-.256.226-.349l-1.021.51-.775-.247c-.754-.322.752-.719,1.579-.945l-1.774.265.825-.46c-.9.209-1,.168-1.11.086s-.228-.2-1.067-.14c.243-.184.729-.241.48-.369q-1.576.185-3.01.39l1.591-.137-1.354.652c-.986.181-1.281.117-1.5.012a1.2,1.2,0,0,0-.859-.2l.831-.134c-1.489-.005-1.117-.311-1.65-.573.062.165.129.408-.486.431-.413-.011.116-.28-.146-.41a2.448,2.448,0,0,1-2.32.267.856.856,0,0,1,.251-.172c-.281.051-.5.166-.739,0l.7-.525q-.594.213-1.145.432c-.341-.219-1.283.1-.964-.275l.339-.077-3.466-.638.085-.487c-.278.3-.747.173-1.18.068-.257-.058-.312-.083-.406-.053s-.141.124-.154.337c-.314-.511-1.536.114-1.18-.8-1.308-.258-2.149.553-3.686-.133-.458-.885-2.059-.844-3.075-1.074-2.058.054-3.4.174-5.491.142-1.078-1.3-3.137-.047-4.378-.868l-.427.395c-.784-.834-2.256-.155-3.4-1.022a1.983,1.983,0,0,1-.573.2c.053.029.127.126.114.413-.326-.249-1.078-.1-.947-.659l.1-.045c.131-.558-1.112.113-1.438-.432l.131.637-.657-.2.2-.091c-3.1.935-4.15-1.173-7.059-.329.456-.61-.588.271-.522-.456-.562-1.006-1.306.017-1.906.179a.253.253,0,0,1-.058.128l-.977-.226c.719-.831-.819.657-.167-.043-2.483-1.046-5.946-.823-8.888-1.558l.1.253c-.751-.152-1.733,0-2.255-.455s-1.341.42-1.569.426c-.687.316-1.146-.569-.882-.49-.689.017-1.44.763-2.324.274-.21-.82-2.656.4-2.561-.475l-.021.072c-1.11-.783-2.386.1-3.6-.634a.592.592,0,0,1,.085-.113l-3,2.279.337,3.02,1.941,2.686,6.234.353,4.787,1.617,12.012,1.37.947-.537c2.19,1.48,5.392.582,7.81,1.759l.132-.559c.719.067.621.411.784.534,6.662.809,13.608,1.016,19.485,2.571.524.455,2.308.482,2.7.941a10.064,10.064,0,0,1,1.53-.191l.382-.013.19,0h.095l.015-.011a.494.494,0,0,1,.131-.059.748.748,0,0,1,.491.048l-.063.055c.076-.027.158-.052.247-.077a1.665,1.665,0,0,1-.154.139c.325-.21.489-.188.489-.1s-.157.245-.27.333l-.113.047a.657.657,0,0,0,.173.027.821.821,0,0,0-.1.337,2.015,2.015,0,0,1-.229.581.679.679,0,0,1-.069.107l-.4.465-.814.924q-.82.919-1.672,1.819c-1.138,1.2-2.329,2.363-3.609,3.48-3.016,1.892-4.782,5.7-8.027,8.071-.909.146-6.006,6.3-6.287,6.995" transform="translate(-181.648 -11.234)" fill="#1dff1d"/>
      <path id="Path_1585" data-name="Path 1585" d="M404.772,125.523l.019-.024c-.178-.163-.142-.067-.019.024" transform="translate(-218.88 -67.833)" fill="#1dff1d"/>
      <path id="Path_1586" data-name="Path 1586" d="M439.719,109.017l-.04.034.382.087Z" transform="translate(-237.816 -58.966)" fill="#1dff1d"/>
      <path id="Path_1587" data-name="Path 1587" d="M424.493,125.762c.377-.3.349-.353.233-.37a.656.656,0,0,0-.233.37" transform="translate(-229.603 -67.823)" fill="#1dff1d"/>
      <path id="Path_1588" data-name="Path 1588" d="M399.812,132.358c-.183.17-.013.2.2.2l.26-.346c-.137.064-.325.081-.464.147" transform="translate(-216.211 -71.511)" fill="#1dff1d"/>
      <path id="Path_1589" data-name="Path 1589" d="M406.636,135.735l.091.19c.064-.14.008-.184-.091-.19" transform="translate(-219.944 -73.417)" fill="#1dff1d"/>
    </g>
    <circle id="Ellipse_51" data-name="Ellipse 51" cx="7" cy="7" r="7" transform="matrix(0.978, 0.208, -0.208, 0.978, 35.539, -14.555)" fill="#00ff1a"/>
    <circle id="Ellipse_52" data-name="Ellipse 52" cx="7" cy="7" r="7" transform="matrix(0.978, 0.208, -0.208, 0.978, 61.656, -17.183)" fill="#00ff1a"/>
  </g>
</svg>
