<svg xmlns="http://www.w3.org/2000/svg" width="225.275" height="421.878" viewBox="0 0 225.275 421.878">
  <g id="ASIF_members" transform="translate(-10.4 -9.3)">
    <path id="Path_1695" data-name="Path 1695" d="M234.56,229.5c.421,56.124,1.01,141.7,1.094,197.571,0,1.851.084,6.058-.084,7.825a29.039,29.039,0,0,1-3.618,12.874c-5.469,10.434-16.661,16.913-28.272,18.091-4.712.337-13.463.168-18.259.168-38.117.084-86.669.084-124.786,0-4.8-.084-13.547.168-18.259-.168A40.729,40.729,0,0,1,29.5,462.327c-10.518-4.964-18.6-15.567-19.017-27.347-.168-4.712,0-13.379-.084-18.259.168-51.244.589-135.809,1.094-187.137.421,41.483.841,124.87,1.01,166.353,0,6.984.084,24.486.084,31.217,0,3.029-.168,7.321.337,10.266a29.119,29.119,0,0,0,9.256,17.334,35.329,35.329,0,0,0,20.363,8.919c4.628.252,13.295.084,18.091.168,38.117-.084,86.669-.084,124.786,0,4.628-.084,13.463.168,18.091-.168,10.77-1.01,21.373-7.068,26.505-16.829a26.82,26.82,0,0,0,3.366-11.948c.168-1.683.084-5.974.084-7.741.252-55.872.589-141.7,1.094-197.655Z" transform="translate(0 -34.914)" fill="lime"/>
    <path id="Path_1229" d="M60.66,54.906a22.488,22.488,0,0,1-2.188.589c-6.732,1.346-1.767,2.608,2.188-.589m116.792,2.608c.5-.337,2.188-1.935-3.029-3.534.337,1.6-1.094,1.43-1.094,2.356,3.871,3.534,5.469,9.592,10.35,10.855.926-4.291-4.376-6.479-6.227-9.677M57.126,53.644c.589,3.534,3.282-3.7,3.282-6.311-1.01.589-2.1,1.178-3.113,1.683,2.524,1.262.337,2.608-2.356,4.628-5.554,6.816,5.049-5.385,2.188,0M125.114,9.3A101.814,101.814,0,1,0,226.929,111.114h0A101.789,101.789,0,0,0,125.114,9.3h0m2.693,34.163.5.168c-1.935,2.44,9.929,9.677,1.43,10.266-7.994,2.272,3.366-2.1-2.861-1.346,3.282-4.544-2.524-4.628.926-9.088M79.592,49.942c-2.861-2.356-11.864,3.282-8.751,1.935,7.825-3.029.5.337,2.356,3.955-1.683,3.45-.589-3.45-4.712.673-2.945.673-10.266,7.4-9.424,5.385-.252,3.2-8.667,7.068-9.845,12.369-2.777,7.4-.673-.252-1.178-3.2-3.955-5.049-11.191,8.583-9.088,13.884,3.618-6.395,3.366-.673.757,2.188,2.693,4.88-2.44,11.275,2.608,14.894,2.188.5,6.647-7.489,4.712.841,1.346-7.236,3.7,1.683,7.573-.252.252,3.786,2.608,2.019,3.113,6.563,6.479-.5,12.369,10.434,4.628,12.453,1.178-.337,3.45,1.683,6.058.168,4.46,3.534,16.156,3.955,16.492,12.706-8.078,3.871-2.019,14.473-9,18.175-7.994-1.178-2.777,9.929-6.143,8.667,1.346,7.994-8.078-1.01-4.46,3.366,6.732,4.123-2.945,3.282.084,6.311-3.366-.757,2.1,6.311,3.029,8.835,4.88,7.91-4.207-1.767-6.816-4.375-2.524-5.133-8.583-14.809-10.181-22.8-.926-11.612-9.929-19.437-12.033-30.713-2.1-6.311,5.722-16.492,1.515-20.026-3.618-2.861-2.188-12.453-4.291-17.586C41.98,61.133,59.061,41.527,79.508,29.915c-2.1,1.6,12.033-4.039,10.434-2.693-.421,1.01,8.246-3.786,13.547-4.46-.589.084-13.631,4.8-10.013,4.123-5.638,2.777-.589,1.178,2.188-.168-5.554,4.123-9.845,2.945-16.156,6.563-6.395,1.683-5.049,8.246-9.592,11.612,2.693.5,9.34-6.9,13.211-9.424,8.919-4.376-4.544,7.91,3.955,2.608-2.861,2.693-2.272,6.9-4.039,8.078-.757-.252,3.534,2.1-3.45,3.786M93.476,31.682c-.926,1.262-2.188,3.871-2.945,2.272-1.01.5-1.43,2.777-3.366.926,1.178-.841,2.356-2.861.084-1.6,1.01-1.094,10.266-4.291,9.761-5.469,1.6-1.01,1.43-1.515-.421-.926-.926-.337,2.272-3.029,6.563-3.366.589,0,.841.421-.252.252-6.479,2.019-3.7,1.43.673,0-1.683.926-2.861,1.262-3.113,1.683,4.375-1.6-.252,1.178.757.926-1.262.673.168.841-2.188,1.767.421-.337-3.871,2.608-1.346,1.683-2.44,2.44-3.618,2.524-4.207,1.851m3.786,5.638c.084-3.786,5.554-6.227,4.88-6.479,6.732-3.2-2.356.084,2.945-2.777,2.019-.168,6.227-6.563,12.033-6.984,6.479-1.935,3.45.084,8.246-1.683l-.926.757c-.841.084.168,1.6-2.861,3.786-.337,3.45-5.806,1.851-3.029,5.554-1.767-2.524-4.375-.084-1.094.168-3.534,2.693-11.78,3.2-15.735,7.657-2.44,3.871-4.8,2.693-4.46,0m28.272,12.706c-2.693,6.563-5.3-.926-.589-2.188,1.262.673,1.767.926.589,2.188M115.354,36.983c-.757-2.945-.168-1.43,4.544-2.777,3.282,2.356-2.861,3.955-4.544,2.777M189.4,153.776c-3.7-6.479,4.544-12.369,7.321-17.839-.337,6.311-1.094,12.537-7.321,17.839m14.136-73.626c-4.039.337-7.741,1.262-11.359-1.01-8.414-9.256,1.515,10.434,4.376,2.356,10.013,3.786-.168,20.279-6.479,18.6-3.534-7.657-7.91-15.987-15.651-19.774,5.89,6.563,8.835,14.641,15.23,20.531.421,8.246,8.835-3.029,8.33,3.366.757,11.023-12.453,17.586-10.181,28.693,4.964,10.1-9.508,11.864-7.91,20.952-5.806,6.479-12.033,15.23-22.466,13.8,0-5.469-2.777-10.181-3.45-15.819-5.638-7.152,5.974-14.809-1.262-22.3-8.33-1.851,1.683-13.295-6.816-12.285-5.133-5.133-12.622-.168-20.026-.084-9.256.841-18.764-11.359-14.641-19.942-3.282-9,10.35-11.612,10.686-19.521,6.563-5.469,15.819-4.8,24.654-6.058-.673,6.311,6.058,6.395,11.107,8.5,2.861-6.816,11.612,1.094,17.586-3.2,2.1-10.1-5.806-4.039-10.35-7.236-5.469-7.994,11.7-4.123,9.929-8.33-6.647,0-2.945-8.246-7.657-3.618,4.291.757-.757,4.123-.673.252-6.479-1.851-.252,7.321-3.534,8.162-4.965-2.1-2.608,2.356-2.1,3.029-2.188,4.628-4.8-6.816-10.855-6.563-6.058-5.554-2.356,2.524,2.861,3.786-1.094.337.673,4.88-.757,2.945-4.376-5.974-12.537-9.929-17.418-2.608-.5,6.816-14.473,8.751-12.2.757-3.282-8.246,10.1-.252,8.835-6.816-8.583-5.722,2.356-3.871,5.217-9.172,6.563.168.252-5.385,3.366-7.068-.337,6.058,5.049,4.965,9.34,3.786-1.01-3.534,2.524-3.366.337-6.311,9.845-3.955-7.489,1.851-4.039-6.816-4.291-2.945-1.767,6.479,0,7.489.084,2.945-2.356,6.479-5.722.421-4.964,3.2-4.375-3.282-4.712-2.608-.589-2.524,3.7-2.608,3.786-6.984-.337-2.777-.252-4.291,1.683-4.375.168.421,8.162.5,10.939,3.786-7.741-1.515-1.178,1.262,2.272,2.861-3.7-2.945,1.43,0-1.515-3.282,1.178.252-3.282-4.544,1.346-.337-2.524-2.945,4.88-2.1.5-4.375,6.395,1.767,2.608.168-1.178-1.43-10.434-6.227,18.428,8.414,6.647,1.935,7.489,1.6-16.072-5.806-5.3-2.524-4.123-1.767-.084-.757,3.618.337-6.647-2.1-16.576-5.89-16.156-6.058a30.8,30.8,0,0,1,6.732,1.346c6.816,2.019-1.935-.5-.084-.421,23.392,5.974,43.839,21.709,56.292,42.156,2.945,3.029,10.855,23.308,6.647,14.3,1.851,7.152,2.188,14.894,3.113,22.214-2.1-2.272-4.375-10.855-6.395-15.567-.589,1.683-1.515-2.693-4.544-3.871" transform="translate(-2.045)" fill="#00ff1a"/>
    <path id="Path_1230_00000126282493868951112720000007384104882944151706_" d="M130.752,281.733l.084.337v.084a.309.309,0,0,0,.084.252l1.683,7.489v.084c.589,2.44,1.262,5.722,1.6,7.4l1.515,6.647h5.554c1.43-.084,2.019-.5,1.851-1.6L134.286,269.7h-1.094c-2.188.084-6.984.841-8.583,5.049l-7.91,29.366h5.469c1.515,0,2.188-.252,2.608-1.43l.337-1.262v-.084l1.01-4.291h.168c1.346-.084,4.207-1.6,4.039-5.554H127.3l2.1-9.34c.421-1.6,1.094-1.346,1.346-.421" transform="translate(-16.855 -41.288)" fill="#4c6384"/>
    <path id="Path_1231_00000015315204186986768550000006886481007198392234_" d="M155.951,298.009a8.927,8.927,0,0,1-5.133-1.851c-1.683-.926-2.44.337-2.1,1.346l1.515,5.217a15.278,15.278,0,0,0,6.9,1.767c5.89,0,10.266-4.123,10.266-9.592,0-8.162-12.453-13.126-12.453-17.165,0-1.43,1.346-2.356,3.282-2.356a13.59,13.59,0,0,1,5.217,1.262,1.845,1.845,0,0,1,.673.252c.926.421,1.767.337,1.935-1.01V271.5a19.639,19.639,0,0,0-8.667-2.1c-5.806,0-10.181,3.786-10.181,8.751,0,8.33,12.033,12.117,12.033,17.081,0,1.6-1.346,2.777-3.282,2.777" transform="translate(-21.691 -41.241)" fill="#4c6384"/>
    <path id="Path_1232_00000052105164406668227880000006997921539471950006_" d="M181.511,304.015c1.01,0,1.346-.926,1.346-1.767V274.733c-.5-4.207-5.722-4.965-7.657-5.133v34.331l6.311.084" transform="translate(-26.13 -41.273)" fill="#b7c1ce"/>
    <path id="Path_1233_00000129199688596210565610000000226178627293341315_" d="M196.889,275.69h6.9A5.26,5.26,0,0,0,208,269.8H195.458c-1.43,0-5.722,1.01-6.058,5.049v29.114h6.143c1.094,0,1.43-.673,1.43-1.851V289.574h2.945a5.26,5.26,0,0,0,4.207-5.89h-7.236V275.69Z" transform="translate(-28.382 -41.304)" fill="#b7c1ce"/>
    <path id="Path_1234_00000174588760139154117420000017120205582201257649_" d="M105.757,283.821a1.842,1.842,0,0,1-.757.841c1.178.673,2.272,1.262,3.45,1.851-.421.252-.841.5-1.178.757a1.842,1.842,0,0,1,.757.841c.5-.337,1.01-.757,1.515-1.094a33.713,33.713,0,0,0,4.207,1.683.759.759,0,0,1,.084-.421c-1.094-.5-2.272-1.178-3.534-1.851a31.371,31.371,0,0,0,3.029-2.693c-.084-.084-.168-.252-.252-.337q-1.641,1.262-3.534,2.524a27.368,27.368,0,0,1-3.786-2.1" transform="translate(-15 -43.461)" fill="#87b7c4"/>
    <path id="Path_1235_00000159462724634583736680000009410905794935776131_" d="M94.824,298.23c-.757-.421-1.6-.926-2.356-1.43a1.585,1.585,0,0,1-.168.673c.757.421,1.515.757,2.272,1.094.084-.084.168-.252.252-.337" transform="translate(-12.986 -45.585)" fill="#87b7c4"/>
    <path id="Path_1236_00000098925298985501507710000013817171920430201781_" d="M109.765,288.008c-.084-.084-.084-.168-.168-.337a37.3,37.3,0,0,0-3.786,2.861,24.1,24.1,0,0,0-3.955-1.851c-.084,0-.084,0-.168-.084-.337-.084-.589-.252-.926-.337l.337-.168a2.01,2.01,0,0,1-.421-1.178v-.168a18.99,18.99,0,0,1-1.851.926c-1.01-.252-2.1-.421-3.2-.589h0c.421-2.272,1.01-4.46,1.6-6.563.337.252.589.421.926.673a1.6,1.6,0,0,1,.421-1.094l-1.01-.673c.168-.421.252-.841.421-1.178a29.476,29.476,0,0,1,6.816-2.693c-.084-.168-.084-.252-.168-.421a27.21,27.21,0,0,0-6.311,1.851c.589-1.515,1.094-2.945,1.683-4.123-.168-.084-.337-.084-.421-.252a35.756,35.756,0,0,0-2.608,5.049,8.412,8.412,0,0,0-1.178.673h-.084a1.439,1.439,0,0,1,.084,1.43l.252.168a50.881,50.881,0,0,0-2.019,6.984h0V287c-1.094-.084-2.272-.168-3.45-.168-.589-.673-1.262-1.43-1.851-2.1a57.717,57.717,0,0,1,4.965-4.039,2.005,2.005,0,0,1-.926-.5,33.912,33.912,0,0,0-4.46,4.039c-.926-1.094-1.767-2.272-2.524-3.366.421-.337.757-.757,1.178-1.094h0c1.346-1.346,2.608-2.777,3.871-4.291a28.014,28.014,0,0,0,2.356,2.1,1.7,1.7,0,0,1,.926-.252.631.631,0,0,1,.421.084q-1.767-1.262-3.282-2.524a36.435,36.435,0,0,0,2.272-3.113.638.638,0,0,1-.337-.168c-.757.841-1.515,1.767-2.44,2.777-.757-.589-1.43-1.262-2.1-1.851a.638.638,0,0,1-.337.168c.589.673,1.262,1.43,1.935,2.1-1.262,1.346-2.608,2.777-3.955,4.123l-.337.337a56.016,56.016,0,0,0,1.6-6.479h-.337c-.589,2.019-1.346,4.376-2.188,6.732-.757-1.178-1.43-2.272-2.019-3.366-.084.084-.252.168-.337.252.589,1.43,1.262,2.777,1.935,4.123v.084c-1.178,1.178-2.356,2.272-3.45,3.282a17.762,17.762,0,0,1-1.515-2.272l-.252.252c.421.841.841,1.6,1.346,2.44-.673.589-1.346,1.178-1.935,1.683.084.084.084.168.168.337.673-.5,1.43-1.01,2.1-1.515.421.589.757,1.178,1.262,1.767-.5,1.094-1.01,2.188-1.515,3.2a22.059,22.059,0,0,0-1.851-2.1c0,.084-.084.168-.084.252.5.673,1.094,1.515,1.683,2.272-.337.673-.673,1.262-1.01,1.851l.252.252c.337-.5.757-1.094,1.094-1.6.5.673.926,1.346,1.43,2.1-.757.084-1.43.168-2.1.252a.915.915,0,0,1,.084.421h2.524c.168.337.421.589.589.926.926,1.43,1.851,2.861,2.608,4.291a17.547,17.547,0,0,0-2.1,0c0,.084.084.168.084.337l2.272.252c.421.673.757,1.346,1.094,2.019a.309.309,0,0,0,.252-.084,18,18,0,0,0-.841-1.851c1.6.252,3.366.421,5.049.673.589.084,1.262.252,1.851.337.084.673.168,1.346.252,1.935a3.645,3.645,0,0,0,.421-.084c0-.5-.084-1.094-.084-1.767.589.168,1.178.252,1.767.421-.337.5-.673.926-1.01,1.43a.638.638,0,0,1,.337.168c.421-.421.757-.926,1.178-1.43,1.01.252,1.935.589,2.777.841.084-.084.084-.168.168-.252-.841-.421-1.767-.757-2.608-1.094,1.178-1.262,2.44-2.693,3.786-4.039a38.627,38.627,0,0,0,4.207,2.019c.084-.168.084-.252.168-.421-1.262-.673-2.44-1.43-3.786-2.272l1.01-1.01c1.262-1.262,2.524-2.44,3.7-3.618.926.421,1.851.926,2.608,1.346.084-.084.084-.168.168-.252-.757-.5-1.515-1.094-2.272-1.515,1.178-.926,2.272-1.935,3.282-2.777m-14.389,0a14.662,14.662,0,0,1,1.851.421,20.555,20.555,0,0,1-2.019.841h0a6.5,6.5,0,0,1,.168-1.262m-1.43-.252c-.084.673-.252,1.346-.337,2.019l-1.01-1.01-1.346-1.346c.926.084,1.767.168,2.693.337m-12.453-3.2a25.8,25.8,0,0,0,2.44-2.019v.084c-.421,1.094-.841,2.188-1.346,3.282-.337-.421-.757-.926-1.094-1.346M96.3,300.546a15.356,15.356,0,0,0-2.1-.589c0-1.01,0-2.1.084-3.2h-.5c-.168-.084-.337-.084-.421-.168,0,1.094.084,2.272.168,3.282a10.818,10.818,0,0,0-1.6-.337h0a39.034,39.034,0,0,0-5.385-.589,51.476,51.476,0,0,0-2.608-4.712h0c-.084-.168-.252-.337-.421-.589a25.691,25.691,0,0,0,3.45-.421,3.645,3.645,0,0,0-.084-.421,1.067,1.067,0,0,1,.084-.5c0-.084,0-.084.084-.168-1.43.337-2.777.589-4.039.841a26.547,26.547,0,0,0-1.851-2.44,33.424,33.424,0,0,0,1.683-2.945,22.925,22.925,0,0,0,1.935,2.1h0a18.276,18.276,0,0,0,2.44,2.019,1.225,1.225,0,0,1,.757-.5,21.923,21.923,0,0,1-2.608-2.272,25.826,25.826,0,0,1-2.1-2.188c.589-1.178,1.094-2.356,1.6-3.618h0l.5-1.262a30.483,30.483,0,0,0,2.272,3.45c-.084.168-.252.252-.337.421a1.162,1.162,0,0,1,.252.337c.084-.084.168-.252.337-.337.337.421.589.757.926,1.178h-.841v.421a6.367,6.367,0,0,1,1.262.084,34.678,34.678,0,0,0,2.356,2.608h0l.589.589c-.841.337-1.767.589-2.608.841a2.856,2.856,0,0,1,.5.5h0v.084c.084.168.168.421.252.589,1.01-.252,2.019-.589,3.113-.926l.084.084c-.084.673-.084,1.346-.168,2.019a1.794,1.794,0,0,1,1.01-.252H94.7c0-.252.084-.421.084-.673a34.805,34.805,0,0,0,5.133,3.534,24.435,24.435,0,0,0-3.618,4.123m5.3-6.227h0a13.973,13.973,0,0,0-1.094,1.178,68.891,68.891,0,0,1-5.638-4.46,5.8,5.8,0,0,0,.841-.337H95.8c1.262-.5,2.44-1.094,3.618-1.683a58.83,58.83,0,0,1,5.806,2.019c-1.178,1.01-2.44,2.1-3.618,3.282" transform="translate(-10.845 -41.59)" fill="#87b7c4"/>
    <path id="Path_1237_00000165939293497415928810000015954186133112728970_" d="M79.626,281.655a.836.836,0,0,0-.926-.757c-.084,0-.252.084-.337.084a1.477,1.477,0,0,0-.673,1.683c.168.673.673.926,1.178.673a1.65,1.65,0,0,0,.757-1.683" transform="translate(-10.661 -43.062)" fill="#4c6384"/>
    <path id="Path_1238_00000029733913517529929220000011562481007248483236_" d="M78.206,288.924a.779.779,0,0,0-1.01-.337c-.084.084-.252.168-.252.252a1.668,1.668,0,0,0-.084,1.767.749.749,0,0,0,.926.421c.084-.084.252-.168.337-.252a1.819,1.819,0,0,0,.084-1.851" transform="translate(-10.504 -44.273)" fill="#4c6384"/>
    <path id="Path_1239_00000108281001324725527600000014558121909303128726_" d="M79.028,296.266a.9.9,0,0,0-1.178.084.437.437,0,0,0-.168.337,1.6,1.6,0,0,0,.5,1.767.813.813,0,0,0,1.178-.084c.084-.084.168-.168.168-.252a1.689,1.689,0,0,0-.5-1.851" transform="translate(-10.652 -45.472)" fill="#4c6384"/>
    <path id="Path_1240_00000052066131794508512730000002299000257117583247_" d="M82.778,302.8a1.032,1.032,0,0,0-1.178.673v.252a1.519,1.519,0,0,0,1.178,1.43.957.957,0,0,0,1.178-.673v-.252a1.519,1.519,0,0,0-1.178-1.43" transform="translate(-11.289 -46.534)" fill="#4c6384"/>
    <path id="Path_1241_00000052103837499489376200000015449236569733871038_" d="M88.855,307.192a.836.836,0,0,0-.757.926c0,.084.084.252.084.337a1.477,1.477,0,0,0,1.683.673c.673-.168.926-.673.673-1.178a1.525,1.525,0,0,0-1.683-.757" transform="translate(-12.318 -47.226)" fill="#4c6384"/>
    <path id="Path_1242_00000046301040639741023390000000476640834238029468_" d="M96.124,308.649a.779.779,0,0,0-.337,1.01c.084.084.168.252.252.337a1.668,1.668,0,0,0,1.767.084.681.681,0,0,0,.421-.926c-.084-.084-.168-.252-.252-.337a1.413,1.413,0,0,0-1.851-.168" transform="translate(-13.528 -47.422)" fill="#4c6384"/>
    <path id="Path_1243_00000174590131261447140710000009576749023807782821_" d="M103.466,307.686a.9.9,0,0,0,.084,1.178.437.437,0,0,0,.337.168,1.6,1.6,0,0,0,1.767-.5.813.813,0,0,0-.084-1.178c-.084-.084-.168-.168-.252-.168a1.689,1.689,0,0,0-1.851.5" transform="translate(-14.728 -47.216)" fill="#4c6384"/>
    <path id="Path_1244_00000096057947996429498040000001263317672977979523_" d="M110,303.976a1.032,1.032,0,0,0,.673,1.178h.252a1.519,1.519,0,0,0,1.43-1.178.957.957,0,0,0-.673-1.178h-.252a1.358,1.358,0,0,0-1.43,1.178" transform="translate(-15.789 -46.535)" fill="#4c6384"/>
    <path id="Path_1245_00000062174872586204052960000017135955259545370777_" d="M114.392,297.765a.836.836,0,0,0,.926.757c.084,0,.252-.084.337-.084a1.477,1.477,0,0,0,.673-1.683c-.168-.673-.673-.926-1.178-.673a1.525,1.525,0,0,0-.757,1.683" transform="translate(-16.482 -45.456)" fill="#4c6384"/>
    <path id="Path_1246_00000175308921938479387480000010084563644243830718_" d="M115.849,290.491a.779.779,0,0,0,1.01.337c.084-.084.252-.168.337-.252a1.668,1.668,0,0,0,.084-1.767.681.681,0,0,0-.926-.421c-.084.084-.252.168-.337.252a1.421,1.421,0,0,0-.168,1.851" transform="translate(-16.677 -44.241)" fill="#4c6384"/>
    <path id="Path_1247_00000068655956362902380120000007179059352894874521_" d="M114.886,283.147a.9.9,0,0,0,1.178-.084.437.437,0,0,0,.168-.337,1.6,1.6,0,0,0-.5-1.767.813.813,0,0,0-1.178.084c-.084.084-.168.168-.168.252a1.689,1.689,0,0,0,.5,1.851" transform="translate(-16.471 -43.04)" fill="#4c6384"/>
    <path id="Path_1248_00000058569706265073964740000003589639904950398387_" d="M111.176,276.648a1.032,1.032,0,0,0,1.178-.673v-.252a1.519,1.519,0,0,0-1.178-1.43.957.957,0,0,0-1.178.673v.252a1.264,1.264,0,0,0,1.178,1.43" transform="translate(-15.791 -42.01)" fill="#4c6384"/>
    <path id="Path_1249_00000149356369563835778400000018171832471261376153_" d="M104.965,272.426a.836.836,0,0,0,.757-.926c0-.084-.084-.252-.084-.337a1.477,1.477,0,0,0-1.683-.673c-.673.168-.926.673-.673,1.178a1.65,1.65,0,0,0,1.683.757" transform="translate(-14.712 -41.406)" fill="#4c6384"/>
    <path id="Path_1250_00000079470480387990829010000001151112201617517747_" d="M97.694,270.99a.779.779,0,0,0,.337-1.01c-.084-.084-.168-.252-.252-.337a1.668,1.668,0,0,0-1.767-.084.75.75,0,0,0-.421.926c.084.084.168.252.252.337a1.667,1.667,0,0,0,1.851.168" transform="translate(-13.499 -41.232)" fill="#4c6384"/>
    <path id="Path_1251_00000178203226071160771810000001203454095965666697_" d="M97.754,281.063a1.239,1.239,0,0,0,.252-1.767h0l-.084-.084a1.541,1.541,0,0,0-2.019-.168,1.239,1.239,0,0,0-.252,1.767h0l.084.084a1.453,1.453,0,0,0,2.019.168" transform="translate(-13.475 -42.723)" fill="#4c6384"/>
    <path id="Path_1252_00000019652466818062774320000003704093369384272264_" d="M91.475,282.93A1.264,1.264,0,0,0,90.3,281.5h-.084a1.473,1.473,0,0,0-1.515,1.346,1.341,1.341,0,0,0,1.178,1.515h.084a1.7,1.7,0,0,0,1.515-1.43" transform="translate(-12.413 -43.159)" fill="#4c6384"/>
    <path id="Path_1253_00000025412992173946645060000017302406429320460964_" d="M88.363,288.7a1.239,1.239,0,0,0-1.767-.252l-.084.084a1.541,1.541,0,0,0-.168,2.019,1.239,1.239,0,0,0,1.767.252l.084-.084a1.446,1.446,0,0,0,.168-2.019" transform="translate(-11.994 -44.22)" fill="#4c6384"/>
    <path id="Path_1254_00000139997947761961780480000003576109492323758998_" d="M90.215,295a1.388,1.388,0,0,0-1.515,1.178h0v.084a1.473,1.473,0,0,0,1.346,1.515,1.341,1.341,0,0,0,1.515-1.178v-.084A1.609,1.609,0,0,0,90.215,295" transform="translate(-12.415 -45.298)" fill="#4c6384"/>
    <path id="Path_1255_00000109011884932188963320000004071695566735412870_" d="M96,298.238A1.239,1.239,0,0,0,95.75,300l.084.084a1.541,1.541,0,0,0,2.019.168,1.239,1.239,0,0,0,.252-1.767h0l-.084-.084A1.453,1.453,0,0,0,96,298.238" transform="translate(-13.491 -45.761)" fill="#4c6384"/>
    <path id="Path_1256_00000011749572517693983600000013197177246545344901_" d="M102.3,296.33a1.224,1.224,0,0,0,1.178,1.43h.084a1.473,1.473,0,0,0,1.515-1.346A1.341,1.341,0,0,0,103.9,294.9h-.084a1.547,1.547,0,0,0-1.515,1.43" transform="translate(-14.57 -45.284)" fill="#4c6384"/>
    <path id="Path_1257_00000125595993804569180190000003868980556453240463_" d="M105.438,290.554a1.239,1.239,0,0,0,1.767.252h0l.084-.084a1.541,1.541,0,0,0,.168-2.019,1.239,1.239,0,0,0-1.767-.252h0l-.084.084a1.446,1.446,0,0,0-.168,2.019" transform="translate(-15.016 -44.22)" fill="#4c6384"/>
    <path id="Path_1258_00000039826983555029209580000006993401064708403595_" d="M103.53,284.175a1.264,1.264,0,0,0,1.43-1.178h0v-.084a1.473,1.473,0,0,0-1.346-1.515,1.341,1.341,0,0,0-1.515,1.178h0v.084a1.7,1.7,0,0,0,1.43,1.515" transform="translate(-14.54 -43.142)" fill="#4c6384"/>
    <path id="Path_1259_00000163782914588681241830000006427491594021211283_" d="M90.347,271.828a.9.9,0,0,0-.084-1.178.437.437,0,0,0-.337-.168,1.6,1.6,0,0,0-1.767.5.813.813,0,0,0,.084,1.178c.084.084.168.084.252.168a1.689,1.689,0,0,0,1.851-.5" transform="translate(-12.295 -41.397)" fill="#4c6384"/>
    <path id="Path_1260_00000139995537597242310750000009348481716480761511_" d="M83.864,275.578a1.032,1.032,0,0,0-.673-1.178h-.252a1.36,1.36,0,0,0-1.346,1.178.957.957,0,0,0,.673,1.178h.252a1.36,1.36,0,0,0,1.346-1.178" transform="translate(-11.281 -42.034)" fill="#4c6384"/>
    <path id="Path_1261_00000148661468451762218100000017707093934653948036_" d="M78.956,314.4h.673l2.272,5.722h-.589l-.589-1.515H77.778l-.589,1.515H76.6Zm.337.589L78.03,318.1h2.44Z" transform="translate(-10.497 -48.376)" fill="#4c6384"/>
    <path id="Path_1262_00000023983394287983984850000018414612533094099080_" d="M85.388,317.093,83.452,314.4h.673l1.6,2.272,1.6-2.272h.589l-1.935,2.693,2.1,3.029h-.673l-1.767-2.608-1.767,2.608H83.2Z" transform="translate(-11.543 -48.376)" fill="#4c6384"/>
    <rect id="Rectangle_219_00000091714009371804089110000007905331747173617831_" width="0.589" height="5.722" transform="translate(77.463 266.024)" fill="#4c6384"/>
    <path id="Path_1263_00000044894058009336286430000010369091536502334885_" d="M94.272,314.4h.673l2.272,5.722h-.589l-.589-1.515H93.178l-.589,1.515H92Zm.252.589L93.262,318.1H95.7Z" transform="translate(-12.938 -48.376)" fill="#4c6384"/>
    <path id="Path_1264_00000058549405382781610320000004514416853558180018_" d="M99.2,314.4h.589v5.217h2.272v.5H99.2S99.2,314.4,99.2,314.4Z" transform="translate(-14.08 -48.376)" fill="#4c6384"/>
    <path id="Path_1265_00000166673298678080922820000012015012880995118739_" d="M106.584,319.331a2.191,2.191,0,0,0,1.262.337,1.13,1.13,0,0,0,1.262-1.01v-.168c0-1.094-2.608-1.262-2.608-2.777a1.594,1.594,0,0,1,1.683-1.515h.084a4.264,4.264,0,0,1,1.094.168l-.084.5a2.24,2.24,0,0,0-1.01-.252c-.589,0-1.262.252-1.262,1.01,0,1.094,2.608,1.178,2.608,2.777a1.568,1.568,0,0,1-1.683,1.6h-.168a3.377,3.377,0,0,1-1.262-.252Z" transform="translate(-15.237 -48.343)" fill="#4c6384"/>
    <path id="Path_1266_00000011011153826607969530000006762215368879484822_" d="M111.8,314.4h1.43A1.588,1.588,0,0,1,115,315.66V316a1.547,1.547,0,0,1-1.6,1.6h-1.01v2.44H111.8Zm.589,2.777h.421c.841,0,1.683-.084,1.683-1.094a.933.933,0,0,0-.926-1.094h-1.178Z" transform="translate(-16.078 -48.374)" fill="#4c6384"/>
    <path id="Path_1267_00000164473569787517088530000010222197451095234962_" d="M119.124,314.3c1.683,0,2.524,1.43,2.524,2.945,0,1.767-.841,2.945-2.524,2.945s-2.524-1.178-2.524-2.945c0-1.515.757-2.945,2.524-2.945m-1.935,2.945c0,1.178.589,2.44,1.935,2.44s1.935-1.262,1.935-2.44-.589-2.44-1.935-2.44-1.935,1.262-1.935,2.44Z" transform="translate(-16.839 -48.36)" fill="#4c6384"/>
    <path id="Path_1268_00000171700484580402199690000005321412944633131139_" d="M124.084,314.4h.673l2.861,5.049h0V314.4h.589v5.722h-.757l-2.861-4.88h0v4.88H124Z" transform="translate(-18.012 -48.376)" fill="#4c6384"/>
    <path id="Path_1269_00000083788588375675943800000003177034342693192849_" d="M130.8,314.4h1.43a2.564,2.564,0,0,1,2.861,2.188v.589c0,2.1-1.346,2.861-3.282,2.861H130.8Zm.589,5.217h.5c1.6,0,2.693-.673,2.693-2.44a2.141,2.141,0,0,0-1.767-2.356h-1.346Z" transform="translate(-19.09 -48.373)" fill="#4c6384"/>
    <path id="Path_1270_00000038393501154346906340000013945636036104452502_" d="M138.9,317.682l-2.1-3.282h.673l1.767,2.777,1.767-2.777h.589l-2.1,3.282v2.44H138.9Z" transform="translate(-20.042 -48.376)" fill="#4c6384"/>
    <path id="Path_1271_00000029039459189712157880000012684014349583433373_" d="M143.6,314.4h.589v5.217h2.272v.5H143.6Z" transform="translate(-21.12 -48.376)" fill="#4c6384"/>
    <path id="Path_1272_00000140726981017729232870000000224404026383890577_" d="M150.424,314.3c1.683,0,2.524,1.43,2.524,2.945,0,1.767-.841,2.945-2.524,2.945s-2.524-1.178-2.524-2.945c0-1.515.841-2.945,2.524-2.945m-1.935,2.945c0,1.178.589,2.44,1.935,2.44s1.935-1.262,1.935-2.44-.589-2.44-1.935-2.44-1.935,1.262-1.935,2.44Z" transform="translate(-21.802 -48.36)" fill="#4c6384"/>
    <path id="Path_1273_00000140693381784119227130000014088072986239342003_" d="M157.072,314.4h.673l2.272,5.722h-.589l-.589-1.515h-2.861l-.589,1.515H154.8Zm.337.589-1.262,3.113h2.44Z" transform="translate(-22.896 -48.376)" fill="#4c6384"/>
    <path id="Path_1274_00000127760925427238032230000000641576413633645193_" d="M162.2,314.4h1.43c1.01,0,1.683.421,1.683,1.515a1.437,1.437,0,0,1-1.262,1.346h0a1.027,1.027,0,0,1,.757.673l1.01,2.188h-.589l-.841-1.935c-.337-.757-.589-.757-1.094-.757h-.5v2.693H162.2Zm.5,2.524h.589c.673,0,1.43-.252,1.43-1.01,0-.926-.673-1.01-1.43-1.01H162.7Z" transform="translate(-24.069 -48.376)" fill="#4c6384"/>
    <path id="Path_1275_00000060726365609795877050000012763055721161783216_" d="M168.783,314.9H167.1v-.5h3.955v.5h-1.683v5.217h-.589Z" transform="translate(-24.846 -48.376)" fill="#4c6384"/>
    <path id="Path_1276_00000080886789230426612590000005976396313207583401_" d="M172.9,314.4h.589v2.524h2.861V314.4h.589v5.722h-.589v-2.693h-2.861v2.693H172.9V314.4Z" transform="translate(-25.766 -48.376)" fill="#4c6384"/>
    <path id="Path_1277_00000164503665219556924450000003661183453982800561_" d="M179.584,314.4h1.43c1.01,0,1.683.421,1.683,1.515a1.437,1.437,0,0,1-1.262,1.346h0a1.027,1.027,0,0,1,.757.673l.926,2.188h-.589l-.841-1.935c-.337-.757-.589-.757-1.094-.757h-.5v2.693H179.5Zm.589,2.524h.589c.673,0,1.43-.252,1.43-1.01,0-.926-.673-1.01-1.43-1.01h-.589Z" transform="translate(-26.812 -48.376)" fill="#4c6384"/>
    <rect id="Rectangle_220_00000059301575123000728870000005297365339716133778_" width="0.589" height="5.722" transform="translate(157.4 266.024)" fill="#4c6384"/>
    <path id="Path_1278_00000028292459039697669770000017374570878585537191_" d="M188.583,314.9H186.9v-.5h3.955v.5h-1.683v5.217h-.589Z" transform="translate(-27.985 -48.376)" fill="#4c6384"/>
    <rect id="Rectangle_221_00000082338335124339353940000012953753193138244490_" width="0.589" height="5.722" transform="translate(163.711 266.024)" fill="#4c6384"/>
    <path id="Path_1279_00000003097048609688976410000007171499330607734446_" d="M194.884,319.331a2.191,2.191,0,0,0,1.262.337,1.13,1.13,0,0,0,1.262-1.01v-.168c0-1.094-2.608-1.262-2.608-2.777a1.594,1.594,0,0,1,1.683-1.515h.084a4.264,4.264,0,0,1,1.094.168l-.084.5a2.24,2.24,0,0,0-1.01-.252c-.589,0-1.262.252-1.262,1.01,0,1.094,2.608,1.178,2.608,2.777a1.568,1.568,0,0,1-1.683,1.6h-.168a3.377,3.377,0,0,1-1.262-.252Z" transform="translate(-29.238 -48.343)" fill="#4c6384"/>
    <rect id="Rectangle_222_00000085967322329403355920000008033619575467785858_" width="0.421" height="3.45" transform="translate(91.347 274.775)" fill="#b7c1ce"/>
    <path id="Path_1280_00000080170184157125461990000002894020725075566727_" d="M109.2,324.8h.5l1.262,2.861h0V324.8h.421v3.45h-.5l-1.262-2.861v2.861H109.2Z" transform="translate(-15.666 -50.025)" fill="#b7c1ce"/>
    <path id="Path_1281_00000095332708423780835150000001289608543500293807_" d="M114.357,325.237H113.6V324.9h2.019v.337h-.841v3.113h-.421Z" transform="translate(-16.363 -50.041)" fill="#b7c1ce"/>
    <path id="Path_1282_00000073680260296265064250000001815909568604221118_" d="M117.6,324.8h1.6v.337h-1.178v1.094h1.094v.337h-1.094v1.262h1.262v.337H117.6Z" transform="translate(-16.997 -50.025)" fill="#b7c1ce"/>
    <path id="Path_1283_00000080167308873323180900000001109166272988109201_" d="M121.4,324.8h.926a1.357,1.357,0,0,1,.757.252.955.955,0,0,1,.252.673.819.819,0,0,1-.673.841.362.362,0,0,1,.337.337l.5,1.43H123l-.421-1.178a.561.561,0,0,0-.589-.421H121.9v1.6h-.421Zm.421,1.6h.337a.64.64,0,0,0,.673-.5v-.084c0-.421-.252-.589-.673-.589h-.337Z" transform="translate(-17.6 -50.025)" fill="#b7c1ce"/>
    <path id="Path_1284_00000119102311499909985180000011166206913727914381_" d="M125.6,324.8h.5l1.346,2.861V324.8h.421v3.45h-.5l-1.262-2.861v2.861h-.421Z" transform="translate(-18.266 -50.025)" fill="#b7c1ce"/>
    <path id="Path_1285_00000027597881667908635190000007578628825495869317_" d="M131.5,324.8l1.094,3.45h-.421l-.252-.926h-1.346l-.252.926H129.9l1.178-3.45Zm.337,2.188-.5-1.767-.5,1.767Z" transform="translate(-18.948 -50.025)" fill="#b7c1ce"/>
    <path id="Path_1286_00000096764541700159808930000009296598971890235303_" d="M134.957,325.237H134.2V324.9h2.019v.337h-.757v3.113h-.421Z" transform="translate(-19.629 -50.041)" fill="#b7c1ce"/>
    <rect id="Rectangle_223_00000079463714040838671170000013255055343482750341_" width="0.421" height="3.45" transform="translate(117.936 274.775)" fill="#b7c1ce"/>
    <path id="Path_1287_00000168834152427694173790000007411325545164451497_" d="M141.862,324.8c.757,0,1.262.673,1.262,1.767,0,1.178-.5,1.767-1.262,1.767s-1.262-.673-1.262-1.767c0-1.178.5-1.767,1.262-1.767m0,3.2c.421,0,.841-.337.841-1.43,0-.673-.252-1.346-.841-1.346-.421,0-.841.337-.841,1.43,0,.673.252,1.346.841,1.346Z" transform="translate(-20.644 -50.025)" fill="#b7c1ce"/>
    <path id="Path_1288_00000114787750007250936470000010503035268291176383_" d="M145.5,324.8h.5l1.262,2.861V324.8h.421v3.45h-.5l-1.262-2.861v2.861H145.5Z" transform="translate(-21.421 -50.025)" fill="#b7c1ce"/>
    <path id="Path_1289_00000070094429966020681050000005910020040786899110_" d="M151.4,324.8l1.094,3.45h-.421l-.252-.926h-1.346l-.252.926H149.8l1.178-3.45Zm.252,2.188-.5-1.767-.5,1.767Z" transform="translate(-22.103 -50.025)" fill="#b7c1ce"/>
    <path id="Path_1290_00000161614294559681657190000003858015200109623445_" d="M154.584,324.8H155v3.113H156.1v.337h-1.6Z" transform="translate(-22.848 -50.025)" fill="#b7c1ce"/>
    <path id="Path_1291_00000180340848992563361280000000952182767805201294_" d="M160.7,324.8h1.515v.337h-1.094v1.094h1.094v.337h-1.094v1.6H160.7Z" transform="translate(-23.831 -50.025)" fill="#b7c1ce"/>
    <path id="Path_1292_00000183210699940015878600000007210620234680323496_" d="M164.3,324.8h1.6v.337h-1.178v1.094h1.094v.337h-1.094v1.262h1.262v.337H164.3Z" transform="translate(-24.402 -50.025)" fill="#b7c1ce"/>
    <path id="Path_1293_00000056394663721066773080000012278128985349270168_" d="M168,324.8h.757a1.7,1.7,0,0,1,.926.252,1.8,1.8,0,0,1,.673,1.43,1.6,1.6,0,0,1-1.43,1.767H168Zm.5,3.113h.252c.757,0,1.178-.5,1.178-1.43,0-.757-.337-1.262-1.178-1.262H168.5Z" transform="translate(-24.989 -50.025)" fill="#b7c1ce"/>
    <path id="Path_1294_00000053546795874168977530000014648973619053039256_" d="M172.6,324.8h1.6v.337h-1.178v1.094h1.094v.337h-1.094v1.262h1.262v.337H172.6Z" transform="translate(-25.718 -50.025)" fill="#b7c1ce"/>
    <path id="Path_1295_00000018199032054595427100000015952755258808949902_" d="M176.4,324.8h.926a1.357,1.357,0,0,1,.757.252.955.955,0,0,1,.252.673.819.819,0,0,1-.673.841.362.362,0,0,1,.337.337l.5,1.43H178l-.421-1.178a.561.561,0,0,0-.589-.421h-.168v1.6H176.4Zm.421,1.6h.337a.64.64,0,0,0,.673-.5v-.084c0-.421-.252-.589-.673-.589h-.337Z" transform="translate(-26.321 -50.025)" fill="#b7c1ce"/>
    <path id="Path_1296_00000167355537485205330930000013143249265254474397_" d="M181.8,324.8l1.094,3.45h-.421l-.252-.926h-1.346l-.252.926H180.2l1.178-3.45Zm.252,2.188-.5-1.767-.5,1.767Z" transform="translate(-26.923 -50.025)" fill="#b7c1ce"/>
    <path id="Path_1297_00000159431710432374055570000007298580053594998701_" d="M185.257,325.237H184.5V324.9h2.019v.337h-.757v3.113h-.421Z" transform="translate(-27.605 -50.041)" fill="#b7c1ce"/>
    <rect id="Rectangle_224_00000142155880109552638890000006986577457436874942_" width="0.421" height="3.45" transform="translate(160.261 274.775)" fill="#b7c1ce"/>
    <path id="Path_1298_00000011012396728059164090000015452525206794909085_" d="M192.162,324.8c.757,0,1.262.673,1.262,1.767,0,1.178-.5,1.767-1.262,1.767s-1.262-.673-1.262-1.767q0-1.767,1.262-1.767m-.084,3.2c.421,0,.841-.337.841-1.43,0-.673-.252-1.346-.841-1.346-.421,0-.841.337-.841,1.43.084.673.337,1.346.841,1.346Z" transform="translate(-28.62 -50.025)" fill="#b7c1ce"/>
    <path id="Path_1299_00000144322580026635241240000009654861577236708790_" d="M195.7,324.8h.5l1.262,2.861V324.8h.421v3.45h-.5l-1.262-2.861v2.861H195.7Z" transform="translate(-29.381 -50.025)" fill="#b7c1ce"/>
    <path id="Path_1696" data-name="Path 1696" d="M49.7,481.052a3.166,3.166,0,0,1-2.356-.926,4.03,4.03,0,0,1-.841-2.608,3.832,3.832,0,0,1,.841-2.693A3.166,3.166,0,0,1,49.7,473.9a4.1,4.1,0,0,1,1.01.084,3.914,3.914,0,0,1,.757.252l-.337.926-.757-.252a2.329,2.329,0,0,0-.757-.084c-1.43,0-2.1.926-2.1,2.693a3.126,3.126,0,0,0,.5,1.935,1.849,1.849,0,0,0,1.515.673,4.394,4.394,0,0,0,1.767-.337v.926A2.828,2.828,0,0,1,49.7,481.052Z" transform="translate(-5.724 -73.666)" fill="#455f80"/>
    <path id="Path_1697" data-name="Path 1697" d="M60.211,477.518a3.612,3.612,0,0,1-.841,2.608,3.166,3.166,0,0,1-2.356.926,3.222,3.222,0,0,1-1.6-.421,2.335,2.335,0,0,1-1.094-1.262,4.675,4.675,0,0,1-.421-1.935,3.612,3.612,0,0,1,.841-2.608A3.166,3.166,0,0,1,57.1,473.9a2.974,2.974,0,0,1,2.272.926A4.656,4.656,0,0,1,60.211,477.518Zm-5.3,0a3.589,3.589,0,0,0,.5,2.019,2.041,2.041,0,0,0,3.029,0,3.235,3.235,0,0,0,.5-2.019,3.589,3.589,0,0,0-.5-2.019,1.7,1.7,0,0,0-1.6-.673,1.849,1.849,0,0,0-1.515.673A4.015,4.015,0,0,0,54.91,477.518Z" transform="translate(-6.897 -73.666)" fill="#455f80"/>
    <path id="Path_1698" data-name="Path 1698" d="M64.51,474.084v4.46a1.742,1.742,0,0,0,.421,1.262,1.665,1.665,0,0,0,1.178.421,1.873,1.873,0,0,0,1.6-.589,2.964,2.964,0,0,0,.5-1.935v-3.618h1.01v6.9H68.38l-.168-.926h-.084a2.057,2.057,0,0,1-.926.757,3.375,3.375,0,0,1-1.262.252,2.455,2.455,0,0,1-1.851-.589,2.545,2.545,0,0,1-.589-1.935V474h1.01Z" transform="translate(-8.419 -73.682)" fill="#455f80"/>
    <path id="Path_1699" data-name="Path 1699" d="M77.612,480.984v-4.46a1.742,1.742,0,0,0-.421-1.262,1.665,1.665,0,0,0-1.178-.421,1.873,1.873,0,0,0-1.6.589,2.964,2.964,0,0,0-.5,1.935v3.618H72.9v-6.9h.841l.168.926h.084a2.057,2.057,0,0,1,.926-.757A3.375,3.375,0,0,1,76.182,474a2.455,2.455,0,0,1,1.851.589,2.545,2.545,0,0,1,.589,1.935v4.46Z" transform="translate(-9.91 -73.682)" fill="#455f80"/>
    <path id="Path_1700" data-name="Path 1700" d="M84.3,479.957h.5a3.644,3.644,0,0,0,.421-.084v.757c-.084.084-.252.084-.5.168a1.643,1.643,0,0,1-.589.084c-1.346,0-2.019-.673-2.019-2.1v-4.123H81.1v-.5l1.01-.421.421-1.43h.589v1.6h2.1v.841H83.2v4.039a1.048,1.048,0,0,0,.337.926A1.175,1.175,0,0,0,84.3,479.957Z" transform="translate(-11.21 -73.412)" fill="#455f80"/>
    <path id="Path_1701" data-name="Path 1701" d="M90.813,474a2.593,2.593,0,0,1,.841.084l-.168.926a2.329,2.329,0,0,0-.757-.084,1.926,1.926,0,0,0-1.43.673,2.292,2.292,0,0,0-.589,1.683v3.7H87.7v-6.9h.841l.084,1.262h.084a3.587,3.587,0,0,1,.926-1.01A1.932,1.932,0,0,1,90.813,474Z" transform="translate(-12.257 -73.682)" fill="#455f80"/>
    <path id="Path_1702" data-name="Path 1702" d="M93.8,471.773a.711.711,0,0,1,.168-.5.61.61,0,0,1,.841,0,.842.842,0,0,1,0,1.01.61.61,0,0,1-.841,0A.711.711,0,0,1,93.8,471.773Zm1.178,8.751h-1.01v-6.9h1.01Z" transform="translate(-13.224 -73.222)" fill="#455f80"/>
    <path id="Path_1703" data-name="Path 1703" d="M100.582,481.052a3.367,3.367,0,0,1-2.44-.926,4.464,4.464,0,0,1,0-5.217,2.989,2.989,0,0,1,2.188-1.01,2.494,2.494,0,0,1,2.019.841,3.368,3.368,0,0,1,.757,2.272v.673H98.394a2.855,2.855,0,0,0,.589,1.851,2.1,2.1,0,0,0,1.6.589,4.909,4.909,0,0,0,2.188-.5v.926a7.067,7.067,0,0,1-1.01.337A3.9,3.9,0,0,1,100.582,481.052Zm-.252-6.227a1.777,1.777,0,0,0-1.346.5,2.506,2.506,0,0,0-.589,1.515h3.618a2.5,2.5,0,0,0-.421-1.515A1.477,1.477,0,0,0,100.329,474.826Z" transform="translate(-13.779 -73.666)" fill="#455f80"/>
    <path id="Path_1704" data-name="Path 1704" d="M110.68,479.164a1.8,1.8,0,0,1-.757,1.515,3.589,3.589,0,0,1-2.019.5,4.637,4.637,0,0,1-2.1-.421v-.926a4.224,4.224,0,0,0,1.094.421,5.789,5.789,0,0,0,1.094.168,2.81,2.81,0,0,0,1.262-.252.884.884,0,0,0,.421-.757.765.765,0,0,0-.337-.673,6.43,6.43,0,0,0-1.346-.673,7.524,7.524,0,0,1-1.346-.589,1.945,1.945,0,0,1-.589-.589,2.111,2.111,0,0,1-.168-.841,1.635,1.635,0,0,1,.673-1.346,3.023,3.023,0,0,1,1.851-.5,6.719,6.719,0,0,1,2.188.421l-.337.841a5.749,5.749,0,0,0-1.851-.421,1.909,1.909,0,0,0-1.094.252.683.683,0,0,0-.337.673,1.2,1.2,0,0,0,.168.5.84.84,0,0,0,.421.337c.168.084.589.252,1.178.5a4.95,4.95,0,0,1,1.683.926C110.765,478.576,110.68,478.66,110.68,479.164Z" transform="translate(-15.126 -73.714)" fill="#455f80"/>
    <path id="Path_1705" data-name="Path 1705" d="M121.812,480.984l-.168-1.01h-.084a2.243,2.243,0,0,1-1.01.841,2.81,2.81,0,0,1-1.262.252,2.426,2.426,0,0,1-1.6-.5,1.8,1.8,0,0,1-.589-1.515c0-1.43,1.094-2.1,3.366-2.188h1.178v-.421a1.645,1.645,0,0,0-.337-1.178,1.454,1.454,0,0,0-1.094-.421,4.421,4.421,0,0,0-1.935.5l-.337-.757a4.226,4.226,0,0,1,1.094-.421,6.6,6.6,0,0,1,1.178-.168,2.859,2.859,0,0,1,1.851.5,2.138,2.138,0,0,1,.589,1.767v4.712Zm-2.356-.757a2.057,2.057,0,0,0,1.515-.5,2.088,2.088,0,0,0,.589-1.515v-.589l-1.01.084a3.01,3.01,0,0,0-1.767.421,1.313,1.313,0,0,0-.589,1.094.976.976,0,0,0,.337.841A2.251,2.251,0,0,0,119.456,480.227Z" transform="translate(-16.918 -73.682)" fill="#455f80"/>
    <path id="Path_1706" data-name="Path 1706" d="M129.313,474a2.593,2.593,0,0,1,.841.084l-.168.926a2.329,2.329,0,0,0-.757-.084,1.926,1.926,0,0,0-1.43.673,2.292,2.292,0,0,0-.589,1.683v3.7H126.2v-6.9h.841l.084,1.262h.084a3.587,3.587,0,0,1,.926-1.01A1.932,1.932,0,0,1,129.313,474Z" transform="translate(-18.361 -73.682)" fill="#455f80"/>
    <path id="Path_1707" data-name="Path 1707" d="M138.211,477.518a3.612,3.612,0,0,1-.841,2.608,3.166,3.166,0,0,1-2.356.926,3.222,3.222,0,0,1-1.6-.421,2.335,2.335,0,0,1-1.094-1.262,4.675,4.675,0,0,1-.421-1.935,3.612,3.612,0,0,1,.841-2.608,3.166,3.166,0,0,1,2.356-.926,2.974,2.974,0,0,1,2.272.926A4.122,4.122,0,0,1,138.211,477.518Zm-5.217,0a3.589,3.589,0,0,0,.5,2.019,2.041,2.041,0,0,0,3.029,0,3.235,3.235,0,0,0,.5-2.019,3.589,3.589,0,0,0-.5-2.019,1.7,1.7,0,0,0-1.6-.673,1.849,1.849,0,0,0-1.515.673A4.015,4.015,0,0,0,132.994,477.518Z" transform="translate(-19.265 -73.666)" fill="#455f80"/>
    <path id="Path_1708" data-name="Path 1708" d="M142.61,474.084v4.46a1.742,1.742,0,0,0,.421,1.262,1.665,1.665,0,0,0,1.178.421,1.873,1.873,0,0,0,1.6-.589,2.964,2.964,0,0,0,.5-1.935v-3.618h1.01v6.9h-.841l-.168-.926h-.084a2.057,2.057,0,0,1-.926.757,3.375,3.375,0,0,1-1.262.252,2.455,2.455,0,0,1-1.851-.589,2.545,2.545,0,0,1-.589-1.935V474h1.01Z" transform="translate(-20.803 -73.682)" fill="#455f80"/>
    <path id="Path_1709" data-name="Path 1709" d="M155.712,480.984v-4.46a1.742,1.742,0,0,0-.421-1.262,1.665,1.665,0,0,0-1.178-.421,1.873,1.873,0,0,0-1.6.589,2.964,2.964,0,0,0-.5,1.935v3.618H151v-6.9h.841l.168.926h.084a2.057,2.057,0,0,1,.926-.757,3.375,3.375,0,0,1,1.262-.252,2.455,2.455,0,0,1,1.851.589,2.545,2.545,0,0,1,.589,1.935v4.46Z" transform="translate(-22.293 -73.682)" fill="#455f80"/>
    <path id="Path_1710" data-name="Path 1710" d="M164.949,479.535h0a2.864,2.864,0,0,1-4.291.084,4.871,4.871,0,0,1,0-5.217,2.864,2.864,0,0,1,4.291.084h.084l-.084-.5V470.7h1.01v9.761h-.841Zm-2.019.168a1.7,1.7,0,0,0,1.515-.589,2.859,2.859,0,0,0,.5-1.851v-.252a3.351,3.351,0,0,0-.5-2.1,2.032,2.032,0,0,0-2.945.084,4.291,4.291,0,0,0,0,4.039A1.683,1.683,0,0,0,162.929,479.7Z" transform="translate(-23.704 -73.159)" fill="#455f80"/>
    <path id="Path_1711" data-name="Path 1711" d="M175.8,479.957h.5a3.644,3.644,0,0,0,.421-.084v.757c-.084.084-.252.084-.5.168a1.643,1.643,0,0,1-.589.084c-1.346,0-2.019-.673-2.019-2.1v-4.123H172.6v-.5l1.01-.421.421-1.43h.589v1.6h2.019v.841h-2.019v4.039a1.049,1.049,0,0,0,.337.926A1.117,1.117,0,0,0,175.8,479.957Z" transform="translate(-25.718 -73.412)" fill="#455f80"/>
    <path id="Path_1712" data-name="Path 1712" d="M183.812,480.461V476a1.742,1.742,0,0,0-.421-1.262,1.665,1.665,0,0,0-1.178-.421,1.873,1.873,0,0,0-1.6.589,2.964,2.964,0,0,0-.5,1.935v3.618H179.1V470.7h1.01v2.945a3.155,3.155,0,0,1-.084.926h.084a1.842,1.842,0,0,1,.841-.757,3.074,3.074,0,0,1,1.262-.252,2.671,2.671,0,0,1,1.935.589,2.555,2.555,0,0,1,.673,1.935v4.46h-1.01Z" transform="translate(-26.749 -73.159)" fill="#455f80"/>
    <path id="Path_1713" data-name="Path 1713" d="M191.282,481.052a3.367,3.367,0,0,1-2.44-.926,4.464,4.464,0,0,1,0-5.217,2.714,2.714,0,0,1,2.188-1.01,2.494,2.494,0,0,1,2.019.841,3.368,3.368,0,0,1,.757,2.272v.673h-4.712a2.855,2.855,0,0,0,.589,1.851,2.1,2.1,0,0,0,1.6.589,4.909,4.909,0,0,0,2.188-.5v.926a7.066,7.066,0,0,1-1.01.337A3.9,3.9,0,0,1,191.282,481.052Zm-.252-6.227a1.777,1.777,0,0,0-1.346.5,2.506,2.506,0,0,0-.589,1.515h3.618a2.5,2.5,0,0,0-.421-1.515A1.477,1.477,0,0,0,191.029,474.826Z" transform="translate(-28.16 -73.666)" fill="#455f80"/>
    <path id="Path_1714" data-name="Path 1714" d="M206.479,481l-1.262-4.039a15.324,15.324,0,0,1-.421-1.683h-.084c-.168.757-.337,1.262-.421,1.683L203.029,481h-1.178L200,474.1h1.094c.421,1.767.757,3.029,1.01,3.955s.337,1.515.421,1.851h.084a5.174,5.174,0,0,1,.252-.926,6.828,6.828,0,0,1,.252-.926l1.262-3.955h1.094l1.262,3.955a12.649,12.649,0,0,1,.5,1.851h.084a2.6,2.6,0,0,1,.168-.673c.084-.337.5-2.019,1.346-5.049h1.094l-1.935,6.9h-1.515Z" transform="translate(-30.063 -73.698)" fill="#455f80"/>
    <path id="Path_1715" data-name="Path 1715" d="M218.811,477.518a3.612,3.612,0,0,1-.841,2.608,3.166,3.166,0,0,1-2.356.926,3.222,3.222,0,0,1-1.6-.421,2.335,2.335,0,0,1-1.094-1.262,4.674,4.674,0,0,1-.421-1.935,3.612,3.612,0,0,1,.841-2.608,3.166,3.166,0,0,1,2.356-.926,2.974,2.974,0,0,1,2.272.926A4.122,4.122,0,0,1,218.811,477.518Zm-5.217,0a3.589,3.589,0,0,0,.5,2.019,2.041,2.041,0,0,0,3.029,0,3.235,3.235,0,0,0,.5-2.019,3.589,3.589,0,0,0-.5-2.019,1.908,1.908,0,0,0-1.6-.673,1.849,1.849,0,0,0-1.515.673A4.015,4.015,0,0,0,213.594,477.518Z" transform="translate(-32.045 -73.666)" fill="#455f80"/>
    <path id="Path_1716" data-name="Path 1716" d="M225.313,474a2.593,2.593,0,0,1,.841.084l-.168.926a2.329,2.329,0,0,0-.757-.084,1.926,1.926,0,0,0-1.43.673,2.292,2.292,0,0,0-.589,1.683v3.7H222.2v-6.9h.841l.084,1.262h.084a3.587,3.587,0,0,1,.926-1.01A1.932,1.932,0,0,1,225.313,474Z" transform="translate(-33.583 -73.682)" fill="#455f80"/>
    <path id="Path_1717" data-name="Path 1717" d="M229.41,480.461H228.4V470.7h1.01Z" transform="translate(-34.566 -73.159)" fill="#455f80"/>
    <path id="Path_1718" data-name="Path 1718" d="M236.849,479.535h0a2.864,2.864,0,0,1-4.291.084,4.871,4.871,0,0,1,0-5.217,2.864,2.864,0,0,1,4.291.084h.084l-.084-.5V470.7h1.01v9.761h-.841Zm-2.019.168a1.7,1.7,0,0,0,1.515-.589,2.859,2.859,0,0,0,.5-1.851v-.252a3.351,3.351,0,0,0-.5-2.1,2.032,2.032,0,0,0-2.945.084,4.291,4.291,0,0,0,0,4.039A1.683,1.683,0,0,0,234.829,479.7Z" transform="translate(-35.105 -73.159)" fill="#455f80"/>
    <path id="Path_1719" data-name="Path 1719" d="M53.092,448.535h-3.45v11.528H45.688V448.535H43.5v-1.851l2.188-1.094V444.5a4.6,4.6,0,0,1,1.262-3.618,5.6,5.6,0,0,1,3.871-1.178,9.6,9.6,0,0,1,3.618.589l-1.01,2.945a6.932,6.932,0,0,0-2.188-.337,1.477,1.477,0,0,0-1.262.5,2.028,2.028,0,0,0-.337,1.262v.926h3.45v2.945Z" transform="translate(-5.248 -68.243)" fill="#4c6384"/>
    <path id="Path_1720" data-name="Path 1720" d="M65.662,446.4a6.384,6.384,0,0,1,1.346.084l-.337,3.7a4.385,4.385,0,0,0-1.178-.168,4.034,4.034,0,0,0-2.945,1.01,3.743,3.743,0,0,0-1.094,2.693v7.4H57.5V446.652h3.029l.589,2.44h.168a5.113,5.113,0,0,1,1.851-1.935A4.871,4.871,0,0,1,65.662,446.4Z" transform="translate(-7.468 -69.306)" fill="#4c6384"/>
    <path id="Path_1721" data-name="Path 1721" d="M84.952,453.889a7.78,7.78,0,0,1-1.851,5.554,6.721,6.721,0,0,1-5.217,2.019,7.547,7.547,0,0,1-3.7-.926,6.094,6.094,0,0,1-2.44-2.608,8.666,8.666,0,0,1-.841-4.039,7.78,7.78,0,0,1,1.851-5.554,6.675,6.675,0,0,1,5.217-1.935,7.547,7.547,0,0,1,3.7.926,6.094,6.094,0,0,1,2.44,2.608A8.313,8.313,0,0,1,84.952,453.889Zm-10.013,0a6.826,6.826,0,0,0,.673,3.282,2.429,2.429,0,0,0,2.272,1.094,2.345,2.345,0,0,0,2.272-1.094,6.826,6.826,0,0,0,.673-3.282,6.239,6.239,0,0,0-.673-3.2,2.517,2.517,0,0,0-2.272-1.094,2.345,2.345,0,0,0-2.272,1.094A6.462,6.462,0,0,0,74.939,453.889Z" transform="translate(-9.593 -69.306)" fill="#4c6384"/>
    <path id="Path_1722" data-name="Path 1722" d="M104.558,461.094H100.6v-8.5a4.457,4.457,0,0,0-.5-2.356,1.9,1.9,0,0,0-1.683-.757,2.29,2.29,0,0,0-2.188,1.094,7.792,7.792,0,0,0-.673,3.7v6.816H91.6V446.621h3.029l.5,1.851H95.3a4.405,4.405,0,0,1,1.683-1.6,6.184,6.184,0,0,1,2.524-.589c2.188,0,3.618.673,4.375,2.1h.337a4.405,4.405,0,0,1,1.683-1.6,5.082,5.082,0,0,1,2.524-.589,4.931,4.931,0,0,1,3.7,1.262,5.532,5.532,0,0,1,1.262,4.039v9.424h-3.786v-8.5a4.457,4.457,0,0,0-.5-2.356,1.9,1.9,0,0,0-1.683-.757,2.5,2.5,0,0,0-2.188,1.01,5.547,5.547,0,0,0-.757,3.282v7.489Z" transform="translate(-12.875 -69.274)" fill="#4c6384"/>
    <path id="Path_1723" data-name="Path 1723" d="M143.752,453.889a7.78,7.78,0,0,1-1.851,5.554,6.721,6.721,0,0,1-5.217,2.019,7.547,7.547,0,0,1-3.7-.926,6.093,6.093,0,0,1-2.44-2.608,8.666,8.666,0,0,1-.841-4.039,7.78,7.78,0,0,1,1.851-5.554,6.675,6.675,0,0,1,5.217-1.935,7.547,7.547,0,0,1,3.7.926,6.093,6.093,0,0,1,2.44,2.608A8.313,8.313,0,0,1,143.752,453.889Zm-10.013,0a6.826,6.826,0,0,0,.673,3.282,2.429,2.429,0,0,0,2.272,1.094,2.345,2.345,0,0,0,2.272-1.094,6.826,6.826,0,0,0,.673-3.282,6.239,6.239,0,0,0-.673-3.2,2.517,2.517,0,0,0-2.272-1.094,2.345,2.345,0,0,0-2.272,1.094A6.462,6.462,0,0,0,133.739,453.889Z" transform="translate(-18.916 -69.306)" fill="#4c6384"/>
    <path id="Path_1724" data-name="Path 1724" d="M153.354,461.173,147.8,446.7h4.123l2.777,8.246a13.045,13.045,0,0,1,.589,2.945h.084a15.137,15.137,0,0,1,.589-2.945l2.777-8.246h4.123l-5.554,14.473Z" transform="translate(-21.786 -69.353)" fill="#4c6384"/>
    <path id="Path_1725" data-name="Path 1725" d="M174.7,461.462a7.6,7.6,0,0,1-5.469-1.935,7.137,7.137,0,0,1-1.935-5.469,7.861,7.861,0,0,1,1.851-5.638A6.35,6.35,0,0,1,174.2,446.4a5.994,5.994,0,0,1,6.479,6.647v1.935h-9.424a3.686,3.686,0,0,0,1.01,2.608,3.791,3.791,0,0,0,2.608.926,11.424,11.424,0,0,0,2.44-.252,16.869,16.869,0,0,0,2.44-.841v3.029a9.61,9.61,0,0,1-2.188.757A13.88,13.88,0,0,1,174.7,461.462Zm-.589-12.285a2.414,2.414,0,0,0-1.935.757,3.507,3.507,0,0,0-.841,2.272h5.554a3.086,3.086,0,0,0-.757-2.272A2.729,2.729,0,0,0,174.116,449.177Z" transform="translate(-24.878 -69.306)" fill="#4c6384"/>
    <path id="Path_1726" data-name="Path 1726" d="M195.078,446.4a6.384,6.384,0,0,1,1.346.084l-.337,3.7a4.385,4.385,0,0,0-1.178-.168,4.034,4.034,0,0,0-2.945,1.01,3.743,3.743,0,0,0-1.094,2.693v7.4H187V446.652h3.029l.589,2.44h.168a5.113,5.113,0,0,1,1.851-1.935A4.009,4.009,0,0,1,195.078,446.4Z" transform="translate(-28.001 -69.306)" fill="#4c6384"/>
    <path id="Path_1727" data-name="Path 1727" d="M221.9,456.462h-2.272v3.955h-3.955v-3.955H207.6v-2.777l8.33-12.285h3.7v11.948H221.9Zm-6.227-3.113v-3.2c0-.5,0-1.346.084-2.356s.084-1.6.084-1.767h-.084a13.215,13.215,0,0,1-1.178,2.1l-3.45,5.217h4.544Z" transform="translate(-31.268 -68.513)" fill="#4c6384"/>
    <path id="Path_1728" data-name="Path 1728" d="M239.495,450.845c0,3.282-.5,5.806-1.6,7.321a6.425,6.425,0,0,1-10.013-.084c-1.094-1.6-1.683-4.039-1.683-7.321,0-3.366.5-5.806,1.6-7.4A5.612,5.612,0,0,1,232.763,441a5.551,5.551,0,0,1,4.964,2.524A13.4,13.4,0,0,1,239.495,450.845Zm-9.34,0a14.03,14.03,0,0,0,.589,4.964,2.1,2.1,0,0,0,4.039,0,14.34,14.34,0,0,0,.589-4.964,14.58,14.58,0,0,0-.589-5.049,2.1,2.1,0,0,0-4.039,0A17.018,17.018,0,0,0,230.155,450.845Z" transform="translate(-34.217 -68.449)" fill="#4c6384"/>
    <path id="Path_1729" data-name="Path 1729" d="M131.889,382.957a6.891,6.891,0,0,1,4.964,1.767,6.216,6.216,0,0,1,1.851,4.8,7.283,7.283,0,0,1-2.188,5.554,9.584,9.584,0,0,1-6.311,1.935,12.943,12.943,0,0,1-5.806-1.178v-3.955a11.219,11.219,0,0,0,2.693,1.01,12.429,12.429,0,0,0,2.945.421c2.777,0,4.123-1.094,4.123-3.366,0-2.188-1.43-3.2-4.291-3.2a12.647,12.647,0,0,0-1.683.168c-.589.084-1.094.252-1.515.337l-1.767-1.01.841-10.939h11.612v3.871H129.7l-.421,4.207.5-.084A5.007,5.007,0,0,1,131.889,382.957Z" transform="translate(-18.076 -58.032)" fill="#4c6384"/>
    <path id="Path_1730" data-name="Path 1730" d="M159.294,385.823c0,3.7-.589,6.479-1.851,8.33a6.474,6.474,0,0,1-5.638,2.693,6.2,6.2,0,0,1-5.554-2.777c-1.178-1.851-1.851-4.628-1.851-8.246,0-3.786.589-6.563,1.851-8.33a7.179,7.179,0,0,1,11.275.084A16.68,16.68,0,0,1,159.294,385.823Zm-10.518,0a17.446,17.446,0,0,0,.673,5.638,2.228,2.228,0,0,0,2.272,1.683,2.3,2.3,0,0,0,2.272-1.767,17.813,17.813,0,0,0,.673-5.638,17.446,17.446,0,0,0-.673-5.638,2.36,2.36,0,0,0-2.272-1.683,2.321,2.321,0,0,0-2.272,1.683A18.81,18.81,0,0,0,148.776,385.823Z" transform="translate(-21.247 -57.953)" fill="#4c6384"/>
    <path id="Path_1731" data-name="Path 1731" d="M44.554,411.024a2.612,2.612,0,0,1-.926,2.1,4.015,4.015,0,0,1-2.608.757H40.01v3.45H39V408.5h2.272Q44.554,408.5,44.554,411.024ZM40.01,412.96h.926a4.015,4.015,0,0,0,2.019-.421,1.632,1.632,0,0,0,.589-1.43,1.569,1.569,0,0,0-.589-1.346,3.42,3.42,0,0,0-1.767-.421H40.01Z" transform="translate(-4.535 -63.296)" fill="#455f80"/>
    <path id="Path_1732" data-name="Path 1732" d="M51.628,417.747l-.168-.926h-.084a2.981,2.981,0,0,1-1.01.841,2.81,2.81,0,0,1-1.262.252,2.057,2.057,0,0,1-1.515-.5A2.03,2.03,0,0,1,47,415.98c0-1.346,1.094-2.019,3.2-2.1h1.094v-.421a1.645,1.645,0,0,0-.337-1.178,1.428,1.428,0,0,0-1.094-.337,4.1,4.1,0,0,0-1.851.5l-.337-.757a4.226,4.226,0,0,1,1.094-.421,5.68,5.68,0,0,1,1.178-.168,2.761,2.761,0,0,1,1.767.5,2.056,2.056,0,0,1,.589,1.683v4.544h-.673Zm-2.272-.673a2.349,2.349,0,0,0,1.515-.5,1.979,1.979,0,0,0,.5-1.43v-.589l-1.01.084a4.356,4.356,0,0,0-1.767.337,1.2,1.2,0,0,0-.5,1.01.976.976,0,0,0,.337.841A1.7,1.7,0,0,0,49.356,417.074Z" transform="translate(-5.803 -63.709)" fill="#455f80"/>
    <path id="Path_1733" data-name="Path 1733" d="M57.829,416.789h.5a3.643,3.643,0,0,0,.421-.084v.757c-.084.084-.252.084-.5.168a1.642,1.642,0,0,1-.589.084,1.76,1.76,0,0,1-1.935-2.019v-4.123H54.8v-.5l1.01-.337.421-1.43h.589v1.515h1.935v.757H56.819v3.955a1.512,1.512,0,0,0,.252.926A.82.82,0,0,0,57.829,416.789Z" transform="translate(-7.04 -63.423)" fill="#455f80"/>
    <path id="Path_1734" data-name="Path 1734" d="M61,408.873a.711.711,0,0,1,.168-.5.61.61,0,0,1,.841,0,.841.841,0,0,1,0,1.01.61.61,0,0,1-.841,0A1.2,1.2,0,0,1,61,408.873Zm1.094,8.414h-1.01V410.64h1.01Z" transform="translate(-8.023 -63.249)" fill="#455f80"/>
    <path id="Path_1735" data-name="Path 1735" d="M67.6,417.9a3.166,3.166,0,0,1-2.356-.926,3.4,3.4,0,0,1-.841-2.524,3.769,3.769,0,0,1,.757-2.524,2.849,2.849,0,0,1,4.123-.084,3.146,3.146,0,0,1,.757,2.188v.673H65.494a2.777,2.777,0,0,0,.589,1.767,1.979,1.979,0,0,0,1.6.589,5.859,5.859,0,0,0,2.1-.421v.926a4.743,4.743,0,0,1-1.01.337A5.5,5.5,0,0,1,67.6,417.9Zm-.252-6.058a1.713,1.713,0,0,0-1.262.5,2.472,2.472,0,0,0-.589,1.43h3.45a2.228,2.228,0,0,0-.421-1.43A1.412,1.412,0,0,0,67.345,411.841Z" transform="translate(-8.562 -63.693)" fill="#455f80"/>
    <path id="Path_1736" data-name="Path 1736" d="M77.644,417.732V413.44a1.645,1.645,0,0,0-.337-1.178,1.665,1.665,0,0,0-1.178-.421,1.8,1.8,0,0,0-1.515.589,2.859,2.859,0,0,0-.5,1.851v3.45H73.1v-6.647h.841l.168.926h.084a1.842,1.842,0,0,1,.841-.757A2.81,2.81,0,0,1,76.3,411a2.138,2.138,0,0,1,1.767.589,2.455,2.455,0,0,1,.589,1.851v4.375h-1.01Z" transform="translate(-9.942 -63.693)" fill="#455f80"/>
    <path id="Path_1737" data-name="Path 1737" d="M84.229,416.773h.5a3.644,3.644,0,0,0,.421-.084v.757c-.084.084-.252.084-.5.168a1.642,1.642,0,0,1-.589.084,1.76,1.76,0,0,1-1.935-2.019v-4.123H81.2v-.5l.926-.421.421-1.43h.589v1.515h1.935v.757H83.135v3.955a1.512,1.512,0,0,0,.252.926A1.036,1.036,0,0,0,84.229,416.773Z" transform="translate(-11.226 -63.407)" fill="#455f80"/>
    <path id="Path_1738" data-name="Path 1738" d="M99.046,412.86a4.776,4.776,0,0,1-1.094,3.366,3.758,3.758,0,0,1-3.029,1.262,3.863,3.863,0,0,1-3.029-1.178,5.205,5.205,0,0,1-1.094-3.366,4.776,4.776,0,0,1,1.094-3.366,3.706,3.706,0,0,1,3.029-1.178,3.8,3.8,0,0,1,2.945,1.178A4.146,4.146,0,0,1,99.046,412.86Zm-7.068,0a4.535,4.535,0,0,0,.757,2.777,2.85,2.85,0,0,0,2.272.926,2.56,2.56,0,0,0,2.188-.926,4.211,4.211,0,0,0,.757-2.777,4.111,4.111,0,0,0-.757-2.693,2.789,2.789,0,0,0-2.188-.926,2.85,2.85,0,0,0-2.272.926A4.111,4.111,0,0,0,91.978,412.86Z" transform="translate(-12.748 -63.28)" fill="#455f80"/>
    <path id="Path_1739" data-name="Path 1739" d="M105.813,411a1.867,1.867,0,0,1,.757.084l-.168.926a2.329,2.329,0,0,0-.757-.084,1.757,1.757,0,0,0-1.346.673,2.657,2.657,0,0,0-.589,1.6v3.534H102.7v-6.647h.841l.084,1.262h.084a2.675,2.675,0,0,1,.926-1.01A1.932,1.932,0,0,1,105.813,411Z" transform="translate(-14.635 -63.693)" fill="#455f80"/>
    <path id="Path_1740" data-name="Path 1740" d="M114.111,411.1v.673l-1.262.168a3.658,3.658,0,0,1,.337.589,2.457,2.457,0,0,1,.168.757,2.154,2.154,0,0,1-.673,1.6,2.582,2.582,0,0,1-1.851.589,1.432,1.432,0,0,1-.589-.084c-.421.252-.673.5-.673.841a.463.463,0,0,0,.252.421,1.681,1.681,0,0,0,.757.168h1.178a3.094,3.094,0,0,1,1.683.421,1.569,1.569,0,0,1,.589,1.346,1.94,1.94,0,0,1-.926,1.683,4.438,4.438,0,0,1-2.608.589,3.589,3.589,0,0,1-2.019-.5,1.444,1.444,0,0,1-.673-1.346,1.393,1.393,0,0,1,.421-1.01,1.564,1.564,0,0,1,1.094-.589.84.84,0,0,1-.421-.337,1.216,1.216,0,0,1-.168-.589,1.98,1.98,0,0,1,.168-.673,3.659,3.659,0,0,1,.589-.5,2.387,2.387,0,0,1-.841-.757,1.932,1.932,0,0,1-.337-1.178,2.212,2.212,0,0,1,.673-1.683,2.582,2.582,0,0,1,1.851-.589,3.156,3.156,0,0,1,.926.084h2.356Zm-5.3,7.741a1.036,1.036,0,0,0,.421.841,2.72,2.72,0,0,0,1.346.252,3.327,3.327,0,0,0,1.851-.421,1.283,1.283,0,0,0,.589-1.01.82.82,0,0,0-.337-.757,2.514,2.514,0,0,0-1.262-.168H110.24a1.552,1.552,0,0,0-1.094.337A1.266,1.266,0,0,0,108.81,418.841Zm.5-5.638a1.454,1.454,0,0,0,.421,1.094,1.428,1.428,0,0,0,1.094.337c1.01,0,1.515-.5,1.515-1.43a1.339,1.339,0,0,0-1.515-1.515,1.443,1.443,0,0,0-1.515,1.515Z" transform="translate(-15.444 -63.709)" fill="#455f80"/>
    <path id="Path_1741" data-name="Path 1741" d="M120.928,417.747l-.168-.926h-.084a2.982,2.982,0,0,1-1.01.841,2.81,2.81,0,0,1-1.262.252,2.057,2.057,0,0,1-1.515-.5,2.03,2.03,0,0,1-.589-1.43c0-1.346,1.094-2.019,3.2-2.1h1.094v-.421a1.645,1.645,0,0,0-.337-1.178,1.428,1.428,0,0,0-1.094-.337,4.1,4.1,0,0,0-1.851.5l-.337-.757a4.226,4.226,0,0,1,1.094-.421,5.68,5.68,0,0,1,1.178-.168,2.761,2.761,0,0,1,1.767.5,2.056,2.056,0,0,1,.589,1.683v4.544h-.673Zm-2.272-.673a2.349,2.349,0,0,0,1.515-.5,1.979,1.979,0,0,0,.5-1.43v-.589l-1.01.084a4.356,4.356,0,0,0-1.767.337,1.2,1.2,0,0,0-.5,1.01.976.976,0,0,0,.337.841A1.354,1.354,0,0,0,118.656,417.074Z" transform="translate(-16.791 -63.709)" fill="#455f80"/>
    <path id="Path_1742" data-name="Path 1742" d="M129.644,417.732V413.44a1.645,1.645,0,0,0-.337-1.178,1.665,1.665,0,0,0-1.178-.421,1.8,1.8,0,0,0-1.515.589,2.859,2.859,0,0,0-.5,1.851v3.45H125.1v-6.647h.841l.168.926h.084a1.842,1.842,0,0,1,.841-.757A2.81,2.81,0,0,1,128.3,411a2.138,2.138,0,0,1,1.767.589,2.455,2.455,0,0,1,.589,1.851v4.375h-1.01Z" transform="translate(-18.187 -63.693)" fill="#455f80"/>
    <path id="Path_1743" data-name="Path 1743" d="M134.1,408.873a.711.711,0,0,1,.168-.5.61.61,0,0,1,.841,0,.842.842,0,0,1,0,1.01.61.61,0,0,1-.841,0A1.2,1.2,0,0,1,134.1,408.873Zm1.094,8.414h-1.01V410.64h1.01Z" transform="translate(-19.614 -63.249)" fill="#455f80"/>
    <path id="Path_1744" data-name="Path 1744" d="M142.1,415.98a1.8,1.8,0,0,1-.673,1.43,3.126,3.126,0,0,1-1.935.5,4.906,4.906,0,0,1-2.1-.421v-.926c.337.168.673.252,1.01.421a4.923,4.923,0,0,0,1.094.168,2.229,2.229,0,0,0,1.178-.252.884.884,0,0,0,.421-.757.765.765,0,0,0-.337-.673,6.427,6.427,0,0,0-1.346-.673,12.086,12.086,0,0,1-1.346-.589,1.966,1.966,0,0,1-.589-.589,1.251,1.251,0,0,1-.168-.757,1.484,1.484,0,0,1,.673-1.262,3.472,3.472,0,0,1,1.851-.5,5.859,5.859,0,0,1,2.1.421l-.337.841a5.309,5.309,0,0,0-1.851-.421,1.909,1.909,0,0,0-1.094.252.635.635,0,0,0-.337.589.643.643,0,0,0,.168.421,1.837,1.837,0,0,0,.421.337c.168.084.589.252,1.178.5a4.514,4.514,0,0,1,1.6.841A1.2,1.2,0,0,1,142.1,415.98Z" transform="translate(-20.121 -63.709)" fill="#455f80"/>
    <path id="Path_1745" data-name="Path 1745" d="M148.928,417.747l-.168-.926h-.084a2.981,2.981,0,0,1-1.01.841,2.81,2.81,0,0,1-1.262.252,2.057,2.057,0,0,1-1.515-.5,2.03,2.03,0,0,1-.589-1.43c0-1.346,1.094-2.019,3.2-2.1h1.094v-.421a1.645,1.645,0,0,0-.337-1.178,1.428,1.428,0,0,0-1.094-.337,4.1,4.1,0,0,0-1.851.5l-.337-.757a4.226,4.226,0,0,1,1.094-.421,5.68,5.68,0,0,1,1.178-.168,2.761,2.761,0,0,1,1.767.5,2.056,2.056,0,0,1,.589,1.683v4.544h-.673Zm-2.272-.673a2.349,2.349,0,0,0,1.515-.5,1.979,1.979,0,0,0,.5-1.43v-.589l-1.01.084a4.356,4.356,0,0,0-1.767.337,1.2,1.2,0,0,0-.5,1.01.976.976,0,0,0,.337.841A1.7,1.7,0,0,0,146.656,417.074Z" transform="translate(-21.231 -63.709)" fill="#455f80"/>
    <path id="Path_1746" data-name="Path 1746" d="M155.129,416.773h.5a3.643,3.643,0,0,0,.421-.084v.757c-.084.084-.252.084-.5.168-.252,0-.421.084-.589.084a1.76,1.76,0,0,1-1.935-2.019v-4.123H152.1v-.5l.926-.421.421-1.43h.589v1.515h1.935v.757h-1.935v3.955a1.512,1.512,0,0,0,.252.926A1.168,1.168,0,0,0,155.129,416.773Z" transform="translate(-22.468 -63.407)" fill="#455f80"/>
    <path id="Path_1747" data-name="Path 1747" d="M158.3,408.873a.711.711,0,0,1,.168-.5.61.61,0,0,1,.841,0,.841.841,0,0,1,0,1.01.61.61,0,0,1-.841,0A1.2,1.2,0,0,1,158.3,408.873Zm1.094,8.414h-1.01V410.64h1.01Z" transform="translate(-23.451 -63.249)" fill="#455f80"/>
    <path id="Path_1748" data-name="Path 1748" d="M167.843,414.45a3.4,3.4,0,0,1-.841,2.524,2.974,2.974,0,0,1-2.272.926,3.481,3.481,0,0,1-1.6-.421,2.971,2.971,0,0,1-1.094-1.178,4.05,4.05,0,0,1-.337-1.851,3.4,3.4,0,0,1,.841-2.524,2.85,2.85,0,0,1,2.272-.926,2.789,2.789,0,0,1,2.188.926A3.787,3.787,0,0,1,167.843,414.45Zm-5.133,0a3.126,3.126,0,0,0,.5,1.935,2.04,2.04,0,0,0,3.029,0,3.962,3.962,0,0,0,0-3.871,2.041,2.041,0,0,0-3.029,0A2.964,2.964,0,0,0,162.71,414.45Z" transform="translate(-23.99 -63.693)" fill="#455f80"/>
    <path id="Path_1749" data-name="Path 1749" d="M175.644,417.732V413.44a1.645,1.645,0,0,0-.337-1.178,1.665,1.665,0,0,0-1.178-.421,1.8,1.8,0,0,0-1.515.589,2.859,2.859,0,0,0-.5,1.851v3.45H171.1v-6.647h.841l.168.926h.084a1.842,1.842,0,0,1,.841-.757A2.81,2.81,0,0,1,174.3,411a2.114,2.114,0,0,1,2.44,2.44v4.375h-1.094Z" transform="translate(-25.48 -63.693)" fill="#455f80"/>
    <path id="Path_1750" data-name="Path 1750" d="M188.055,417.319l-3.029-7.91h-.084a16.929,16.929,0,0,1,.084,2.188v5.638H184.1V408.4h1.515l2.777,7.321h.084l2.861-7.321h1.515v8.919h-1.01V411.6a18.3,18.3,0,0,1,.084-2.1h-.084l-3.029,7.825Z" transform="translate(-27.542 -63.28)" fill="#455f80"/>
    <path id="Path_1751" data-name="Path 1751" d="M200.1,417.9a3.166,3.166,0,0,1-2.356-.926,3.4,3.4,0,0,1-.841-2.524,3.769,3.769,0,0,1,.757-2.524,2.849,2.849,0,0,1,4.123-.084,3.146,3.146,0,0,1,.757,2.188v.673h-4.544a2.777,2.777,0,0,0,.589,1.767,1.979,1.979,0,0,0,1.6.589,5.859,5.859,0,0,0,2.1-.421v.926a4.742,4.742,0,0,1-1.01.337A5.5,5.5,0,0,0,200.1,417.9Zm-.337-6.058a1.713,1.713,0,0,0-1.262.5,2.472,2.472,0,0,0-.589,1.43h3.45a2.228,2.228,0,0,0-.421-1.43A1.31,1.31,0,0,0,199.761,411.841Z" transform="translate(-29.571 -63.693)" fill="#455f80"/>
    <path id="Path_1752" data-name="Path 1752" d="M214.1,417.716v-4.291a1.645,1.645,0,0,0-.337-1.178,1.454,1.454,0,0,0-1.094-.421,1.979,1.979,0,0,0-1.43.5,2.377,2.377,0,0,0-.421,1.683v3.7h-1.01v-4.291a1.645,1.645,0,0,0-.337-1.178,1.454,1.454,0,0,0-1.094-.421,1.39,1.39,0,0,0-1.346.589,3.327,3.327,0,0,0-.421,1.851v3.45H205.6v-6.647h.841l.168.926h.084a1.505,1.505,0,0,1,.841-.757,2.688,2.688,0,0,1,1.178-.252,1.959,1.959,0,0,1,2.019,1.094h.084a2.675,2.675,0,0,1,.841-.841,3.12,3.12,0,0,1,1.262-.337,2.056,2.056,0,0,1,1.683.589,2.855,2.855,0,0,1,.589,1.851v4.375H214.1Z" transform="translate(-30.951 -63.677)" fill="#455f80"/>
    <path id="Path_1753" data-name="Path 1753" d="M222.4,410.493a2.56,2.56,0,0,1,2.019.926,4.586,4.586,0,0,1,0,5.049,2.56,2.56,0,0,1-2.019.926,2.688,2.688,0,0,1-1.178-.252,2.63,2.63,0,0,1-.926-.757h-.084l-.252.841H219.2V407.8h1.01v2.272a6.385,6.385,0,0,1-.084,1.346h.084A2.917,2.917,0,0,1,222.4,410.493Zm-.084.841a1.8,1.8,0,0,0-1.515.589,3.286,3.286,0,0,0-.421,2.019,3.235,3.235,0,0,0,.5,2.019,1.8,1.8,0,0,0,1.515.589,1.528,1.528,0,0,0,1.346-.673,3.155,3.155,0,0,0,.421-1.935,3.885,3.885,0,0,0-.421-1.935A1.582,1.582,0,0,0,222.313,411.334Z" transform="translate(-33.107 -63.185)" fill="#455f80"/>
    <path id="Path_1754" data-name="Path 1754" d="M231.2,417.9a3.166,3.166,0,0,1-2.356-.926A3.4,3.4,0,0,1,228,414.45a3.769,3.769,0,0,1,.757-2.524,2.849,2.849,0,0,1,4.123-.084,3.146,3.146,0,0,1,.757,2.188v.673h-4.544a2.777,2.777,0,0,0,.589,1.767,1.979,1.979,0,0,0,1.6.589,5.859,5.859,0,0,0,2.1-.421v.926a4.742,4.742,0,0,1-1.01.337A5.514,5.514,0,0,0,231.2,417.9Zm-.337-6.058a1.713,1.713,0,0,0-1.262.5,2.472,2.472,0,0,0-.589,1.43h3.45a2.228,2.228,0,0,0-.421-1.43A1.31,1.31,0,0,0,230.861,411.841Z" transform="translate(-34.502 -63.693)" fill="#455f80"/>
    <path id="Path_1755" data-name="Path 1755" d="M239.713,411a1.867,1.867,0,0,1,.757.084l-.168.926a2.329,2.329,0,0,0-.757-.084,1.757,1.757,0,0,0-1.346.673,2.221,2.221,0,0,0-.589,1.6v3.534H236.6v-6.647h.841l.084,1.262h.084a2.675,2.675,0,0,1,.926-1.01A2.1,2.1,0,0,1,239.713,411Z" transform="translate(-35.866 -63.693)" fill="#455f80"/>
    <path id="Path_1756" data-name="Path 1756" d="M246.9,415.98a1.8,1.8,0,0,1-.673,1.43,3.126,3.126,0,0,1-1.935.5,4.906,4.906,0,0,1-2.1-.421v-.926c.337.168.673.252,1.01.421a4.923,4.923,0,0,0,1.094.168,2.229,2.229,0,0,0,1.178-.252.884.884,0,0,0,.421-.757.765.765,0,0,0-.337-.673,6.427,6.427,0,0,0-1.346-.673,12.086,12.086,0,0,1-1.346-.589,1.966,1.966,0,0,1-.589-.589,1.251,1.251,0,0,1-.168-.757,1.484,1.484,0,0,1,.673-1.262,2.859,2.859,0,0,1,1.851-.5,5.859,5.859,0,0,1,2.1.421l-.337.841a5.309,5.309,0,0,0-1.851-.421,1.909,1.909,0,0,0-1.094.252.635.635,0,0,0-.337.589.643.643,0,0,0,.168.421,1.837,1.837,0,0,0,.421.337c.168.084.589.252,1.178.5a4.514,4.514,0,0,1,1.6.841A1.2,1.2,0,0,1,246.9,415.98Z" transform="translate(-36.738 -63.709)" fill="#455f80"/>
    <path id="Path_1757" data-name="Path 1757" d="M103.789,363.7h-2.272v-4.88a1.989,1.989,0,0,0-.337-1.346,1.205,1.205,0,0,0-.926-.421,1.384,1.384,0,0,0-1.262.673,4.387,4.387,0,0,0-.421,2.1v3.955H96.3v-8.414h1.767l.337,1.094h.168a2.675,2.675,0,0,1,1.01-.926,2.766,2.766,0,0,1,1.43-.337,2.544,2.544,0,0,1,2.524,1.262h.168a2.675,2.675,0,0,1,1.01-.926,2.881,2.881,0,0,1,1.515-.337,3.006,3.006,0,0,1,2.188.757,3.17,3.17,0,0,1,.757,2.356v5.469H106.9V358.9a1.989,1.989,0,0,0-.337-1.346c-.168-.337-.5-.421-.926-.421a1.328,1.328,0,0,0-1.262.589,3.662,3.662,0,0,0-.421,1.935V363.7Z" transform="translate(-13.62 -54.845)" fill="#4c6384"/>
    <path id="Path_1758" data-name="Path 1758" d="M121.762,359.475a4.348,4.348,0,0,1-1.094,3.2,4.541,4.541,0,0,1-5.133.673,3.565,3.565,0,0,1-1.43-1.515,5.123,5.123,0,0,1-.5-2.356,4.348,4.348,0,0,1,1.094-3.2,4.542,4.542,0,0,1,5.133-.673,3.565,3.565,0,0,1,1.43,1.515A5.123,5.123,0,0,1,121.762,359.475Zm-5.806,0a3.536,3.536,0,0,0,.421,1.851,1.683,1.683,0,0,0,2.693,0,3.885,3.885,0,0,0,.421-1.935,3.536,3.536,0,0,0-.421-1.851,1.833,1.833,0,0,0-2.693,0A3.885,3.885,0,0,0,115.956,359.475Z" transform="translate(-16.363 -54.829)" fill="#4c6384"/>
    <path id="Path_1759" data-name="Path 1759" d="M130.328,355.1a1.868,1.868,0,0,1,.757.084l-.168,2.188a1.64,1.64,0,0,0-.673-.084,2.056,2.056,0,0,0-1.683.589,1.979,1.979,0,0,0-.589,1.6v4.291H125.7v-8.414h1.767l.337,1.43h.084a2.931,2.931,0,0,1,1.094-1.178A1.911,1.911,0,0,1,130.328,355.1Z" transform="translate(-18.282 -54.829)" fill="#4c6384"/>
    <path id="Path_1760" data-name="Path 1760" d="M137.576,363.851a3.949,3.949,0,0,1-4.376-4.291,4.428,4.428,0,0,1,1.094-3.282,3.926,3.926,0,0,1,2.945-1.178,3.493,3.493,0,0,1,3.786,3.786v1.094h-5.469a2.018,2.018,0,0,0,2.1,2.1,7.408,7.408,0,0,0,1.43-.168,5.868,5.868,0,0,0,1.43-.5v1.767a7.4,7.4,0,0,1-1.262.421A4.727,4.727,0,0,1,137.576,363.851Zm-.252-7.152a1.528,1.528,0,0,0-1.178.5,2.17,2.17,0,0,0-.5,1.346h3.2a2.141,2.141,0,0,0-.421-1.346A1.357,1.357,0,0,0,137.323,356.7Z" transform="translate(-19.471 -54.829)" fill="#4c6384"/>
    <path id="Path_1761" data-name="Path 1761" d="M152.875,361.7a4.668,4.668,0,0,0,1.43-.252v1.683a5.2,5.2,0,0,1-2.1.421,2.771,2.771,0,0,1-2.019-.673,3.136,3.136,0,0,1-.589-2.1v-4.039H148.5v-1.01l1.262-.757.673-1.767h1.43v1.767h2.356v1.767h-2.356v4.039a1.029,1.029,0,0,0,.252.757A2.457,2.457,0,0,0,152.875,361.7Z" transform="translate(-21.897 -54.528)" fill="#4c6384"/>
    <path id="Path_1762" data-name="Path 1762" d="M165.241,363.1h-2.272v-4.88c0-1.178-.421-1.851-1.346-1.851a1.683,1.683,0,0,0-1.43.673,3.579,3.579,0,0,0-.421,2.1V363.1H157.5V351.4h2.272v2.356a11.453,11.453,0,0,1-.084,1.346l-.084.673h.084a2.659,2.659,0,0,1,2.44-1.262,2.677,2.677,0,0,1,3.029,3.029V363.1Z" transform="translate(-23.324 -54.243)" fill="#4c6384"/>
    <path id="Path_1763" data-name="Path 1763" d="M174.79,363.683l-.421-1.178h-.084a3.154,3.154,0,0,1-1.178,1.01,4.242,4.242,0,0,1-1.6.252,2.839,2.839,0,0,1-1.935-.673,2.376,2.376,0,0,1-.673-1.935,2.443,2.443,0,0,1,.926-2.019,5.114,5.114,0,0,1,2.861-.673l1.43-.084v-.337c0-.841-.421-1.262-1.346-1.262a5.668,5.668,0,0,0-2.356.589l-.757-1.515a6.889,6.889,0,0,1,3.2-.757,4.015,4.015,0,0,1,2.608.757,2.85,2.85,0,0,1,.926,2.272v5.638h-1.6Zm-.673-3.955h-.926a3.361,3.361,0,0,0-1.515.337,1.1,1.1,0,0,0-.5,1.01c0,.673.337,1.01,1.094,1.01a2.067,2.067,0,0,0,1.262-.421,1.477,1.477,0,0,0,.5-1.262v-.673Z" transform="translate(-25.131 -54.829)" fill="#4c6384"/>
    <path id="Path_1764" data-name="Path 1764" d="M188.441,363.7h-2.272v-4.88a1.989,1.989,0,0,0-.337-1.346,1.133,1.133,0,0,0-1.01-.421,1.683,1.683,0,0,0-1.43.673,3.579,3.579,0,0,0-.421,2.1v3.955H180.7v-8.414h1.767l.337,1.094h.168a2.4,2.4,0,0,1,1.094-.926,4.019,4.019,0,0,1,1.515-.337,3.222,3.222,0,0,1,2.272.757,3.086,3.086,0,0,1,.757,2.272V363.7Z" transform="translate(-27.002 -54.845)" fill="#4c6384"/>
  </g>
</svg>
