<svg xmlns="http://www.w3.org/2000/svg" width="400" height="400" fill="none"><style>@keyframes rotatingCircles{0%{transform:rotate(0deg)}to{transform:rotate(360deg)}}@keyframes scalingCircles{0%,to{transform:scale(1)}50%{transform:scale(.95)}}.st0{fill:#00ff1a}</style><g style="transform-origin:center;animation:rotatingCircles 50s linear infinite"><g style="animation:scalingCircles 6s ease-in-out infinite"><path id="i12" d="M156.3 101.5c-5 0-9.7-3.1-11.5-8-2.4-6.4.8-13.5 7.2-16l.6-.2a12.4 12.4 0 1 1 8.6 23.2l-.4.2c-1.6.5-3 .8-4.5.8" class="st0"/><path id="i11" d="M109.4 133.8a12.4 12.4 0 0 1-9.2-20.6l.4-.5a12.4 12.4 0 0 1 17.5-.9c5.1 4.6 5.5 12.4.9 17.5l-.3.3a12.4 12.4 0 0 1-9.3 4.2" class="st0"/><path id="i10" d="M82.8 184.2a12.3 12.3 0 0 1-12-15.4l.1-.6a12.4 12.4 0 0 1 24 6l-.1.5a12.2 12.2 0 0 1-12 9.5" class="st0"/><path id="i9_00000178186630785263606740000004986417629411432088_" d="M82.8 241.2c-5.6 0-10.6-3.8-12-9.4l-.1-.6a12.4 12.4 0 1 1 24.1-5.7l.1.5a12.5 12.5 0 0 1-9.1 15l-3 .2" class="st0"/><path id="i8" d="M109.2 291.7a12 12 0 0 1-9.2-4.2l-.4-.5a12.4 12.4 0 1 1 18.7-16.3l.3.3a12.4 12.4 0 0 1-1.1 17.5 12.2 12.2 0 0 1-8.3 3.2" class="st0"/><path id="i7" d="M156 324.2c-1.5 0-2.9-.3-4.4-.8l-.5-.2a12.4 12.4 0 0 1-7.1-16c2.5-6.4 9.6-9.5 16-7.1l.5.2c6.4 2.4 9.6 9.6 7.1 16a12.6 12.6 0 0 1-11.6 7.9" class="st0"/><path id="i6" d="M212.1 331.2a12.4 12.4 0 0 1-1.4-24.7l.5-.1c6.8-.8 12.9 4 13.7 10.8.8 6.8-4 12.9-10.8 13.7l-.6.1-1.4.2" class="st0"/><path id="i5" d="M265.5 311.3a12.3 12.3 0 0 1-6.9-22.6l.4-.3a12.3 12.3 0 0 1 17.2 3.2 12.3 12.3 0 0 1-3.2 17.2l-.5.3a12.3 12.3 0 0 1-7 2.2" class="st0"/><path id="i4" d="M303.5 268.9a12.4 12.4 0 0 1-10.9-18.2l.2-.4c3.2-6 10.7-8.4 16.7-5.2s8.4 10.7 5.2 16.7l-.3.5a12.1 12.1 0 0 1-10.9 6.6" class="st0"/><path id="i3" d="M317.5 213.6c-6.9 0-12.4-5.6-12.4-12.5v-.7c0-6.8 5.5-12.4 12.4-12.4 6.8 0 12.3 5.5 12.3 12.4v.9c.1 6.8-5.5 12.3-12.3 12.3" class="st0"/><path id="i2" d="M304.2 158c-4.5 0-8.8-2.4-11-6.7l-.2-.4c-3.2-6-.9-13.5 5.2-16.7 6-3.2 13.5-.9 16.7 5.2l.3.5a12.3 12.3 0 0 1-11 18.1" class="st0"/><path id="i1" d="M266.6 115.2c-2.4 0-4.9-.7-7.1-2.2l-.4-.3a12.4 12.4 0 0 1 14.1-20.3l.5.3a12.4 12.4 0 0 1-7.1 22.5" class="st0"/><path id="i0" d="m213.4 94.7-1.5-.1-.5-.1a12.4 12.4 0 1 1 3-24.6l.6.1a12.4 12.4 0 0 1-1.6 24.7" class="st0"/></g><g style="animation:scalingCircles 4s ease-in-out infinite"><path id="o19" d="M144.5 41.5c-5.2 0-10-3.3-11.7-8.6a12.4 12.4 0 0 1 7.9-15.6l.6-.2a12.4 12.4 0 0 1 7.6 23.6l-.5.2c-1.3.4-2.6.6-3.9.6" class="st0"/><path id="o18" d="M94.3 67A12.4 12.4 0 0 1 87 44.6l.5-.3c5.5-4 13.3-2.8 17.3 2.8 4 5.5 2.8 13.3-2.8 17.3l-.4.3a11.5 11.5 0 0 1-7.3 2.3" class="st0"/><path id="o17" d="M54.4 106.9a12.4 12.4 0 0 1-9.9-19.7l.3-.5c4-5.5 11.8-6.7 17.3-2.7s6.7 11.8 2.7 17.3l-.3.4a12.3 12.3 0 0 1-10.1 5.2" class="st0"/><path id="o16" d="M28.8 157a12.4 12.4 0 0 1-11.7-16.2l.2-.6a12.4 12.4 0 1 1 23.5 7.7l-.2.5a12.4 12.4 0 0 1-11.8 8.6" class="st0"/><path id="o15" d="M20 212.7c-6.8 0-12.4-5.6-12.3-12.4v-.6c0-6.8 5.6-12.3 12.4-12.3 6.8 0 12.4 5.6 12.3 12.4v.5c0 6.9-5.6 12.4-12.4 12.4" class="st0"/><path id="o14" d="M28.7 268.3c-5.2 0-10.1-3.3-11.7-8.6l-.2-.6a12.4 12.4 0 0 1 23.6-7.6l.2.5a12.4 12.4 0 0 1-8 15.6c-1.4.6-2.7.8-3.9.7" class="st0"/><path id="o13" d="M54.2 318.6c-3.8 0-7.6-1.8-10-5.1l-.3-.5c-4-5.5-2.8-13.3 2.8-17.3 5.5-4 13.3-2.8 17.3 2.8l.3.4a12.4 12.4 0 0 1-10.1 19.7" class="st0"/><path id="o12" d="M94 358.5c-2.5 0-5.1-.8-7.3-2.4l-.4-.3c-5.5-4-6.7-11.8-2.7-17.3s11.8-6.7 17.3-2.7l.4.3a12.4 12.4 0 0 1-7.3 22.4" class="st0"/><path id="o11" d="M144.2 384.1a12 12 0 0 1-3.8-.6l-.5-.2a12.4 12.4 0 1 1 7.7-23.5l.5.2a12.4 12.4 0 0 1-3.9 24.1" class="st0"/><path id="o10" d="M199.8 393h-.6a12.4 12.4 0 0 1 .1-24.7h.5c6.8 0 12.4 5.6 12.3 12.4.1 6.8-5.4 12.3-12.3 12.3" class="st0"/><path id="o9" d="M255 384.5a12.4 12.4 0 0 1-3.8-24.2l.5-.2a12.4 12.4 0 0 1 7.6 23.6l-.5.2a13 13 0 0 1-3.8.6" class="st0"/><path id="o8" d="M305.3 359.1a12.4 12.4 0 0 1-7.2-22.4l.4-.3c5.5-4 13.3-2.8 17.3 2.8 4 5.5 2.8 13.3-2.8 17.3l-.4.3a12.4 12.4 0 0 1-7.3 2.3" class="st0"/><path id="o7" d="M345.3 319.5a12.4 12.4 0 0 1-10-19.7l.3-.4c4-5.5 11.8-6.7 17.3-2.7s6.7 11.8 2.7 17.3l-.3.4a12.4 12.4 0 0 1-10 5.1" class="st0"/><path id="o6" d="M371.2 269.4a12.4 12.4 0 0 1-11.8-16.2l.2-.5a12.4 12.4 0 1 1 23.5 7.7l-.2.6a12.3 12.3 0 0 1-11.7 8.4" class="st0"/><path id="o5" d="M380.2 213.8c-6.9 0-12.4-5.6-12.4-12.4v-.8c0-6.8 5.5-12.4 12.4-12.4 6.8 0 12.3 5.5 12.4 12.4v1c0 6.7-5.6 12.2-12.4 12.2" class="st0"/><path id="o4" d="M371.6 157.7c-5.2 0-10.1-3.4-11.8-8.6l-.1-.5a12.4 12.4 0 1 1 23.5-7.7l.2.6a12.4 12.4 0 0 1-11.8 16.2" class="st0"/><path id="o3" d="M346.2 107.5c-3.8 0-7.6-1.8-10-5.1l-.3-.4c-4-5.5-2.8-13.3 2.7-17.3s13.3-2.8 17.3 2.7l.3.5a12.4 12.4 0 0 1-10 19.6" class="st0"/><path id="o2" d="M306.5 67.5c-2.5 0-5.1-.8-7.3-2.4l-.4-.3a12.4 12.4 0 1 1 14.6-20l.5.3a12.4 12.4 0 0 1-7.4 22.4" class="st0"/><path id="o1" d="M256.4 41.7a12 12 0 0 1-3.8-.6l-.5-.2a12.4 12.4 0 0 1 7.6-23.6l.6.2c6.5 2.1 10 9.1 7.9 15.6a12.5 12.5 0 0 1-11.8 8.6" class="st0"/><path id="o0" d="M200.7 32.7h-.5c-6.8 0-12.4-5.6-12.3-12.4 0-6.8 5.6-12.4 12.4-12.4h.5c6.8 0 12.4 5.6 12.3 12.4 0 6.9-5.5 12.5-12.4 12.4" class="st0"/></g></g></svg>