<svg width="20" height="12" viewBox="0 0 20 12" fill="none" xmlns="http://www.w3.org/2000/svg">
<path d="M2.56564 1.11884L3.13132 0.553151L2.56564 1.11884ZM1.43427 2.25021L0.86858 2.81589L1.43427 2.25021ZM9.43427 10.2502L9.99995 9.68452L9.99995 9.68452L9.43427 10.2502ZM10.5656 10.2502L9.99995 9.68452L9.99995 9.68452L10.5656 10.2502ZM18.5656 2.25021L18 1.68452V1.68452L18.5656 2.25021ZM18.5656 1.11884L17.9999 1.68452L18 1.68452L18.5656 1.11884ZM17.4343 1.11884L16.8686 0.55315V0.553151L17.4343 1.11884ZM9.99995 8.55315L9.43427 9.11884C9.5843 9.26887 9.78778 9.35315 9.99995 9.35315C10.2121 9.35315 10.4156 9.26887 10.5656 9.11884L9.99995 8.55315ZM1.99995 1.68452L3.13132 0.553151C2.50648 -0.0716882 1.49342 -0.0716882 0.86858 0.553151L1.99995 1.68452ZM1.99995 1.68452L0.86858 0.553151C0.243741 1.17799 0.243741 2.19105 0.86858 2.81589L1.99995 1.68452ZM9.99995 9.68452L1.99995 1.68452L0.86858 2.81589L8.86858 10.8159L9.99995 9.68452ZM9.99995 9.68452H9.99995L8.86858 10.8159C9.49342 11.4407 10.5065 11.4407 11.1313 10.8159L9.99995 9.68452ZM18 1.68452L9.99995 9.68452L11.1313 10.8159L19.1313 2.81589L18 1.68452ZM18 1.68452V1.68452L19.1313 2.81589C19.7562 2.19105 19.7562 1.17799 19.1313 0.55315L18 1.68452ZM18 1.68452L17.9999 1.68452L19.1313 0.553152C18.5065 -0.0716896 17.4934 -0.0716872 16.8686 0.55315L18 1.68452ZM10.5656 9.11884L18 1.68452L16.8686 0.553151L9.43427 7.98747L10.5656 9.11884ZM1.99995 1.68452L9.43427 9.11884L10.5656 7.98747L3.13132 0.553151L1.99995 1.68452Z" fill="white"/>
</svg>
