<svg width="88" height="88" viewBox="0 0 88 88" fill="none" xmlns="http://www.w3.org/2000/svg">
<g opacity="0.5">
<path d="M20.3286 42.3256C21.1063 41.0822 22.1873 40.057 23.4702 39.3463C24.753 38.6356 26.1954 38.2627 27.6619 38.2627C29.1285 38.2627 30.5709 38.6356 31.8537 39.3463C33.1365 40.057 34.2176 41.0822 34.9953 42.3256" stroke="#F0F1F1" stroke-width="3" stroke-linecap="round" stroke-linejoin="round"/>
<path d="M67.9953 42.3255C67.2176 41.0822 66.1366 40.057 64.8537 39.3462C63.5709 38.6355 62.1285 38.2627 60.6619 38.2627C59.1954 38.2627 57.753 38.6355 56.4702 39.3462C55.1873 40.057 54.1063 41.0822 53.3286 42.3255" stroke="#F0F1F1" stroke-width="3" stroke-linecap="round" stroke-linejoin="round"/>
<path d="M64.1621 68.1585C62.2002 65.0982 59.473 62.5748 56.2369 60.8255C53.0007 59.0762 49.3618 58.1584 45.6621 58.1584C41.9625 58.1584 38.3235 59.0762 35.0874 60.8255C31.8512 62.5748 29.124 65.0982 27.1621 68.1584" stroke="#F0F1F1" stroke-width="3" stroke-linecap="round" stroke-linejoin="round"/>
<path d="M31.3287 3.99495C40.6547 1.01861 50.7259 1.38195 59.8132 5.02258C68.9004 8.66321 76.4367 15.354 81.128 23.9461C85.8193 32.5382 87.373 42.4955 85.5221 52.1083C83.6713 61.7212 78.5315 70.3898 70.9853 76.6257C63.4391 82.8616 53.9573 86.2758 44.1679 86.282C34.3785 86.2882 24.8923 82.886 17.3382 76.6597C9.78406 70.4333 4.6333 61.7712 2.7703 52.1607C0.907309 42.5503 2.44832 32.591 7.12873 23.993" stroke="#F0F1F1" stroke-width="3" stroke-linecap="round" stroke-linejoin="round"/>
<path d="M18.2847 2.49273C18.2549 2.4439 18.2131 2.40354 18.1633 2.37554C18.1134 2.34753 18.0572 2.33282 18 2.33282C17.9428 2.33282 17.8866 2.34753 17.8367 2.37554C17.7869 2.40354 17.7451 2.4439 17.7153 2.49273C16.656 4.22873 13 10.3561 13 12.7014C13 14.0275 13.5268 15.2993 14.4645 16.2369C15.4021 17.1746 16.6739 17.7014 18 17.7014C19.3261 17.7014 20.5979 17.1746 21.5355 16.2369C22.4732 15.2993 23 14.0275 23 12.7014C23 10.3561 19.344 4.22807 18.2847 2.49273Z" stroke="white" stroke-width="3" stroke-linecap="round" stroke-linejoin="round"/>
</g>
</svg>
