<svg width="88" height="88" viewBox="0 0 88 88" fill="none" xmlns="http://www.w3.org/2000/svg">
<g opacity="0.5">
<path d="M34.8333 38.1041C34.0556 39.3475 32.9745 40.3727 31.6917 41.0834C30.4089 41.7941 28.9664 42.167 27.4999 42.167C26.0334 42.167 24.5909 41.7941 23.3081 41.0834C22.0253 40.3727 20.9443 39.3475 20.1666 38.1041" stroke="#F0F1F1" stroke-width="3" stroke-linecap="round" stroke-linejoin="round"/>
<path d="M53.1666 38.1041C53.9443 39.3475 55.0253 40.3727 56.3081 41.0834C57.5909 41.7941 59.0334 42.167 60.4999 42.167C61.9664 42.167 63.4089 41.7941 64.6917 41.0834C65.9745 40.3727 67.0556 39.3475 67.8333 38.1041" stroke="#F0F1F1" stroke-width="3" stroke-linecap="round" stroke-linejoin="round"/>
<path d="M44 56.8334C45.4587 56.8334 46.8576 57.4128 47.8891 58.4443C48.9205 59.4757 49.5 60.8747 49.5 62.3334V66C49.5 67.4587 48.9205 68.8577 47.8891 69.8891C46.8576 70.9206 45.4587 71.5 44 71.5C42.5413 71.5 41.1424 70.9206 40.1109 69.8891C39.0795 68.8577 38.5 67.4587 38.5 66V62.3334C38.5 60.8747 39.0795 59.4757 40.1109 58.4443C41.1424 57.4128 42.5413 56.8334 44 56.8334Z" stroke="#F0F1F1" stroke-width="3" stroke-linecap="round" stroke-linejoin="round"/>
<path d="M31.1665 16.5H38.4998L31.1665 23.8333H38.4998" stroke="#F0F1F1" stroke-width="3" stroke-linecap="round" stroke-linejoin="round"/>
<path d="M16.4998 9.16675H23.8331L16.4998 16.5001H23.8331" stroke="#F0F1F1" stroke-width="3" stroke-linecap="round" stroke-linejoin="round"/>
<path d="M1.83325 1.83337H9.16658L1.83325 9.16671H9.16658" stroke="#F0F1F1" stroke-width="3" stroke-linecap="round" stroke-linejoin="round"/>
<path d="M31.1666 3.83632C40.4926 0.859983 50.5638 1.22332 59.6511 4.86395C68.7383 8.50458 76.2746 15.1954 80.9659 23.7874C85.6572 32.3795 87.2108 42.3368 85.36 51.9497C83.5092 61.5625 78.3694 70.2311 70.8232 76.4671C63.277 82.703 53.7951 86.1172 44.0057 86.1234C34.2164 86.1296 24.7302 82.7274 17.1761 76.501C9.62195 70.2747 4.47119 61.6126 2.60819 52.0021C0.7452 42.3916 2.28621 32.4323 6.96662 23.8343" stroke="#F0F1F1" stroke-width="3" stroke-linecap="round" stroke-linejoin="round"/>
</g>
</svg>
