<svg width="845" height="515" viewBox="0 0 845 515" fill="none" xmlns="http://www.w3.org/2000/svg">
<path opacity="0.4" fill-rule="evenodd" clip-rule="evenodd" d="M257.403 514.806C399.563 514.806 514.806 399.563 514.806 257.403C514.806 115.243 399.563 0 257.403 0C115.243 0 0 115.243 0 257.403C0 399.563 115.243 514.806 257.403 514.806ZM257.403 475.681C377.955 475.681 475.681 377.954 475.681 257.403C475.681 136.851 377.955 39.1252 257.403 39.1252C136.852 39.1252 39.1254 136.851 39.1254 257.403C39.1254 377.954 136.852 475.681 257.403 475.681Z" fill="white"/>
<path opacity="0.6" fill-rule="evenodd" clip-rule="evenodd" d="M257.403 473.621C376.817 473.621 473.622 376.817 473.622 257.403C473.622 137.989 376.817 41.1842 257.403 41.1842C137.989 41.1842 41.1846 137.989 41.1846 257.403C41.1846 376.817 137.989 473.621 257.403 473.621ZM257.403 434.496C355.209 434.496 434.496 355.209 434.496 257.403C434.496 159.597 355.209 80.3096 257.403 80.3096C159.597 80.3096 80.3099 159.597 80.3099 257.403C80.3099 355.209 159.597 434.496 257.403 434.496Z" fill="white"/>
<path fill-rule="evenodd" clip-rule="evenodd" d="M257.403 432.437C354.072 432.437 432.437 354.072 432.437 257.403C432.437 160.734 354.072 82.369 257.403 82.369C160.735 82.369 82.3691 160.734 82.3691 257.403C82.3691 354.072 160.735 432.437 257.403 432.437ZM257.403 393.312C332.464 393.312 393.312 332.463 393.312 257.403C393.312 182.343 332.464 121.494 257.403 121.494C182.343 121.494 121.494 182.343 121.494 257.403C121.494 332.463 182.343 393.312 257.403 393.312Z" fill="white"/>
<path fill-rule="evenodd" clip-rule="evenodd" d="M235.053 513.851C245.902 514.784 254.801 505.909 254.801 495.02C254.801 484.295 246.155 475.659 235.484 474.595C213.96 472.449 193.358 467.177 174.136 459.238C164.075 455.083 152.19 458.789 147.248 468.488C142.381 478.042 146.09 489.809 155.943 494.04C180.569 504.612 207.176 511.453 235.053 513.851Z" fill="#A2ADC1"/>
<path d="M259 514.5C251.8 515.3 233.833 513.833 226.5 513C224 499.333 221.5 472.3 225.5 473.5C229.5 474.7 253.5 475.467 263 475.8C266 488.3 266.2 513.7 259 514.5Z" fill="#A2ADC1"/>
<path fill-rule="evenodd" clip-rule="evenodd" d="M236.175 472.594C246.99 473.647 255.859 464.768 255.859 453.902C255.859 443.155 247.167 434.531 236.494 433.276C218.424 431.15 201.186 426.304 185.202 419.159C175.285 414.725 163.259 417.792 157.827 427.2C152.455 436.504 155.565 448.49 165.282 453.073C187.153 463.388 211.033 470.144 236.175 472.594Z" fill="#455F80"/>
<path fill-rule="evenodd" clip-rule="evenodd" d="M270.259 418.176C270.259 425.702 264.455 432.02 256.929 432.02C177.46 432.02 110.394 378.914 89.2853 306.254C86.2882 295.938 93.4745 285.816 104.054 283.951C114.697 282.074 124.703 289.282 128.056 299.556C145.763 353.805 196.769 393.002 256.929 393.002C264.083 393.002 270.259 398.552 270.259 405.705V418.176Z" fill="#172541"/>
<path d="M253 393H825C835.493 393 844 401.507 844 412V413C844 423.493 835.493 432 825 432H253V393Z" fill="#172541"/>
<path d="M254 434.5H826C836.493 434.5 845 443.007 845 453.5V454.6C845 465.093 836.493 473.6 826 473.6H254V434.5Z" fill="#455F80"/>
<path d="M253 475.7H825C835.493 475.7 844 484.207 844 494.7V495.8C844 506.293 835.493 514.8 825 514.8H253V475.7Z" fill="#A2ADC1"/>
<path d="M500.195 405.578V412.969C500.195 414.271 499.802 415.294 499.016 416.039C498.229 416.784 497.148 417.156 495.773 417.156C494.398 417.156 493.333 416.781 492.578 416.031C491.828 415.281 491.453 414.25 491.453 412.938V405.578H492.781V413.031C492.781 413.984 493.042 414.716 493.562 415.227C494.083 415.737 494.849 415.992 495.859 415.992C496.823 415.992 497.565 415.737 498.086 415.227C498.607 414.711 498.867 413.974 498.867 413.016V405.578H500.195ZM505.106 417L501.856 408.438H503.247L505.091 413.516C505.507 414.703 505.752 415.474 505.825 415.828H505.887C505.945 415.552 506.124 414.982 506.427 414.117C506.734 413.248 507.419 411.354 508.481 408.438H509.872L506.622 417H505.106ZM515.064 417.156C513.798 417.156 512.798 416.771 512.064 416C511.335 415.229 510.97 414.159 510.97 412.789C510.97 411.409 511.309 410.313 511.986 409.5C512.668 408.688 513.582 408.281 514.728 408.281C515.801 408.281 516.65 408.636 517.275 409.344C517.9 410.047 518.212 410.977 518.212 412.133V412.953H512.314C512.34 413.958 512.593 414.721 513.072 415.242C513.556 415.763 514.236 416.024 515.111 416.024C516.033 416.024 516.944 415.831 517.845 415.445V416.602C517.387 416.8 516.952 416.94 516.541 417.024C516.134 417.112 515.642 417.156 515.064 417.156ZM514.712 409.367C514.025 409.367 513.476 409.591 513.064 410.039C512.658 410.487 512.418 411.107 512.345 411.899H516.822C516.822 411.081 516.64 410.456 516.275 410.024C515.91 409.586 515.39 409.367 514.712 409.367ZM521.928 417H520.631V408.438H521.928V417ZM520.522 406.117C520.522 405.82 520.595 405.604 520.741 405.469C520.886 405.328 521.069 405.258 521.288 405.258C521.496 405.258 521.676 405.328 521.827 405.469C521.978 405.609 522.053 405.826 522.053 406.117C522.053 406.409 521.978 406.628 521.827 406.774C521.676 406.914 521.496 406.984 521.288 406.984C521.069 406.984 520.886 406.914 520.741 406.774C520.595 406.628 520.522 406.409 520.522 406.117ZM527.644 416.086C527.873 416.086 528.094 416.07 528.308 416.039C528.521 416.003 528.691 415.966 528.816 415.93V416.922C528.675 416.99 528.467 417.044 528.191 417.086C527.92 417.133 527.675 417.156 527.456 417.156C525.8 417.156 524.972 416.284 524.972 414.539V409.445H523.745V408.82L524.972 408.281L525.519 406.453H526.269V408.438H528.753V409.445H526.269V414.484C526.269 415 526.391 415.396 526.636 415.672C526.881 415.948 527.217 416.086 527.644 416.086ZM532.031 417H530.734V408.438H532.031V417ZM530.625 406.117C530.625 405.82 530.698 405.604 530.844 405.469C530.99 405.328 531.172 405.258 531.391 405.258C531.599 405.258 531.779 405.328 531.93 405.469C532.081 405.609 532.156 405.826 532.156 406.117C532.156 406.409 532.081 406.628 531.93 406.774C531.779 406.914 531.599 406.984 531.391 406.984C531.172 406.984 530.99 406.914 530.844 406.774C530.698 406.628 530.625 406.409 530.625 406.117ZM540.505 414.664C540.505 415.461 540.208 416.076 539.614 416.508C539.02 416.94 538.187 417.156 537.114 417.156C535.979 417.156 535.093 416.977 534.458 416.617V415.414C534.869 415.623 535.309 415.787 535.778 415.906C536.252 416.026 536.708 416.086 537.145 416.086C537.822 416.086 538.343 415.979 538.708 415.766C539.072 415.547 539.255 415.216 539.255 414.774C539.255 414.44 539.109 414.156 538.817 413.922C538.531 413.682 537.968 413.401 537.13 413.078C536.333 412.781 535.765 412.524 535.427 412.305C535.093 412.081 534.843 411.828 534.677 411.547C534.515 411.266 534.434 410.93 534.434 410.539C534.434 409.841 534.718 409.292 535.286 408.891C535.854 408.484 536.632 408.281 537.622 408.281C538.544 408.281 539.445 408.469 540.325 408.844L539.864 409.899C539.005 409.544 538.226 409.367 537.528 409.367C536.914 409.367 536.45 409.464 536.138 409.656C535.825 409.849 535.669 410.115 535.669 410.453C535.669 410.682 535.726 410.878 535.841 411.039C535.96 411.201 536.151 411.354 536.411 411.5C536.671 411.646 537.171 411.857 537.911 412.133C538.927 412.503 539.611 412.875 539.966 413.25C540.325 413.625 540.505 414.096 540.505 414.664Z" fill="white"/>
<path d="M647.419 416.548H639.434V414.869L642.302 411.97C643.151 411.101 643.705 410.499 643.966 410.166C644.226 409.827 644.414 409.515 644.528 409.228C644.643 408.942 644.7 408.645 644.7 408.338C644.7 407.879 644.572 407.538 644.317 407.314C644.067 407.09 643.731 406.978 643.309 406.978C642.867 406.978 642.437 407.08 642.02 407.283C641.604 407.486 641.169 407.775 640.716 408.15L639.403 406.595C639.966 406.116 640.432 405.778 640.802 405.58C641.171 405.382 641.575 405.231 642.013 405.127C642.45 405.017 642.94 404.963 643.481 404.963C644.195 404.963 644.825 405.093 645.372 405.353C645.919 405.614 646.343 405.978 646.645 406.447C646.947 406.916 647.098 407.452 647.098 408.056C647.098 408.582 647.005 409.077 646.817 409.541C646.635 409.999 646.348 410.47 645.958 410.955C645.572 411.439 644.89 412.129 643.911 413.025L642.442 414.408V414.517H647.419V416.548ZM656.759 416.548H648.775V414.869L651.642 411.97C652.491 411.101 653.046 410.499 653.306 410.166C653.567 409.827 653.754 409.515 653.869 409.228C653.983 408.942 654.041 408.645 654.041 408.338C654.041 407.879 653.913 407.538 653.658 407.314C653.408 407.09 653.072 406.978 652.65 406.978C652.207 406.978 651.778 407.08 651.361 407.283C650.944 407.486 650.509 407.775 650.056 408.15L648.744 406.595C649.306 406.116 649.772 405.778 650.142 405.58C650.512 405.382 650.916 405.231 651.353 405.127C651.791 405.017 652.28 404.963 652.822 404.963C653.535 404.963 654.166 405.093 654.713 405.353C655.259 405.614 655.684 405.978 655.986 406.447C656.288 406.916 656.439 407.452 656.439 408.056C656.439 408.582 656.345 409.077 656.158 409.541C655.976 409.999 655.689 410.47 655.298 410.955C654.913 411.439 654.231 412.129 653.252 413.025L651.783 414.408V414.517H656.759V416.548ZM658.389 415.431C658.389 414.994 658.506 414.663 658.741 414.439C658.975 414.215 659.316 414.103 659.764 414.103C660.196 414.103 660.53 414.218 660.764 414.447C661.004 414.676 661.123 415.004 661.123 415.431C661.123 415.843 661.004 416.168 660.764 416.408C660.524 416.642 660.191 416.759 659.764 416.759C659.327 416.759 658.988 416.645 658.748 416.416C658.509 416.181 658.389 415.853 658.389 415.431ZM671.12 414.181H669.745V416.548H667.386V414.181H662.511V412.502L667.519 405.127H669.745V412.306H671.12V414.181ZM667.386 412.306V410.369C667.386 410.046 667.399 409.577 667.425 408.963C667.451 408.348 667.472 407.991 667.488 407.892H667.425C667.232 408.319 667.001 408.736 666.73 409.142L664.636 412.306H667.386ZM674.039 408.548C674.039 409.21 674.096 409.705 674.211 410.033C674.331 410.356 674.521 410.517 674.781 410.517C675.281 410.517 675.531 409.861 675.531 408.548C675.531 407.246 675.281 406.595 674.781 406.595C674.521 406.595 674.331 406.757 674.211 407.08C674.096 407.397 674.039 407.887 674.039 408.548ZM677.5 408.533C677.5 409.731 677.268 410.632 676.805 411.236C676.341 411.835 675.661 412.134 674.766 412.134C673.906 412.134 673.242 411.827 672.773 411.213C672.305 410.593 672.07 409.7 672.07 408.533C672.07 406.153 672.969 404.963 674.766 404.963C675.646 404.963 676.32 405.272 676.789 405.892C677.263 406.507 677.5 407.387 677.5 408.533ZM682.875 405.127L676.539 416.548H674.664L681 405.127H682.875ZM682.039 413.111C682.039 413.772 682.096 414.267 682.211 414.595C682.331 414.918 682.521 415.08 682.781 415.08C683.281 415.08 683.531 414.423 683.531 413.111C683.531 411.809 683.281 411.158 682.781 411.158C682.521 411.158 682.331 411.319 682.211 411.642C682.096 411.96 682.039 412.45 682.039 413.111ZM685.5 413.095C685.5 414.288 685.268 415.186 684.805 415.791C684.341 416.39 683.661 416.689 682.766 416.689C681.906 416.689 681.242 416.382 680.773 415.767C680.305 415.147 680.07 414.257 680.07 413.095C680.07 410.715 680.969 409.525 682.766 409.525C683.646 409.525 684.32 409.835 684.789 410.455C685.263 411.069 685.5 411.95 685.5 413.095Z" fill="white"/>
<path d="M703.339 412.045C703.339 411.009 703.489 410.041 703.79 409.138C704.095 408.236 704.532 407.445 705.103 406.765H706.052C705.489 407.519 705.066 408.347 704.78 409.25C704.499 410.152 704.359 411.08 704.359 412.033C704.359 412.97 704.503 413.886 704.792 414.781C705.081 415.675 705.497 416.492 706.04 417.23H705.103C704.529 416.566 704.091 415.791 703.79 414.904C703.489 414.017 703.339 413.064 703.339 412.045ZM712.035 415.332V411.177C712.035 410.654 711.916 410.263 711.678 410.005C711.439 409.748 711.066 409.619 710.559 409.619C709.887 409.619 709.395 409.8 709.082 410.164C708.77 410.527 708.613 411.127 708.613 411.963V415.332H707.641V408.91H708.432L708.59 409.789H708.637C708.836 409.472 709.115 409.228 709.475 409.056C709.834 408.88 710.234 408.793 710.676 408.793C711.449 408.793 712.031 408.98 712.422 409.355C712.812 409.726 713.008 410.322 713.008 411.142V415.332H712.035ZM714.878 410.304V409.502H720.327V410.304H714.878ZM714.878 412.701V411.898H720.327V412.701H714.878ZM727.869 413.363H726.597V415.332H725.666V413.363H721.5V412.513L725.566 406.718H726.597V412.478H727.869V413.363ZM725.666 412.478V409.63C725.666 409.072 725.685 408.441 725.724 407.738H725.677C725.49 408.113 725.314 408.423 725.15 408.67L722.472 412.478H725.666ZM729 411.67C729 409.986 729.327 408.728 729.979 407.896C730.635 407.06 731.604 406.642 732.885 406.642C733.327 406.642 733.674 406.679 733.928 406.754V407.591C733.627 407.494 733.284 407.445 732.897 407.445C731.979 407.445 731.278 407.732 730.793 408.306C730.309 408.877 730.043 409.775 729.996 411.002H730.067C730.496 410.33 731.176 409.994 732.106 409.994C732.875 409.994 733.481 410.226 733.922 410.691C734.368 411.156 734.59 411.787 734.59 412.584C734.59 413.474 734.346 414.175 733.858 414.687C733.373 415.195 732.717 415.449 731.889 415.449C731.002 415.449 730.299 415.117 729.78 414.453C729.26 413.785 729 412.857 729 411.67ZM731.877 414.623C732.432 414.623 732.862 414.449 733.166 414.101C733.475 413.75 733.629 413.244 733.629 412.584C733.629 412.017 733.487 411.572 733.202 411.248C732.916 410.923 732.491 410.761 731.924 410.761C731.573 410.761 731.25 410.834 730.957 410.978C730.664 411.123 730.43 411.322 730.254 411.576C730.082 411.83 729.996 412.093 729.996 412.367C729.996 412.769 730.075 413.144 730.231 413.492C730.387 413.839 730.608 414.115 730.893 414.318C731.182 414.521 731.51 414.623 731.877 414.623ZM741.599 410.422C741.599 413.773 740.302 415.449 737.708 415.449C737.255 415.449 736.896 415.41 736.63 415.332V414.494C736.943 414.595 737.298 414.646 737.696 414.646C738.634 414.646 739.341 414.357 739.818 413.779C740.298 413.197 740.56 412.306 740.603 411.107H740.532C740.318 411.431 740.032 411.679 739.677 411.851C739.321 412.019 738.921 412.103 738.476 412.103C737.718 412.103 737.116 411.877 736.671 411.423C736.226 410.97 736.003 410.338 736.003 409.525C736.003 408.634 736.251 407.931 736.747 407.416C737.247 406.9 737.904 406.642 738.716 406.642C739.298 406.642 739.806 406.793 740.239 407.093C740.677 407.39 741.013 407.826 741.247 408.4C741.482 408.97 741.599 409.644 741.599 410.422ZM738.716 407.474C738.157 407.474 737.726 407.654 737.421 408.013C737.116 408.373 736.964 408.873 736.964 409.513C736.964 410.076 737.105 410.519 737.386 410.843C737.667 411.164 738.095 411.324 738.669 411.324C739.025 411.324 739.351 411.252 739.648 411.107C739.948 410.963 740.185 410.765 740.357 410.515C740.529 410.265 740.614 410.004 740.614 409.73C740.614 409.32 740.534 408.941 740.374 408.593C740.214 408.246 739.989 407.972 739.7 407.773C739.415 407.574 739.087 407.474 738.716 407.474ZM745.52 412.045C745.52 413.072 745.367 414.029 745.062 414.916C744.762 415.802 744.326 416.574 743.756 417.23H742.818C743.361 416.496 743.777 415.681 744.066 414.787C744.355 413.888 744.5 412.97 744.5 412.033C744.5 411.08 744.357 410.152 744.072 409.25C743.791 408.347 743.369 407.519 742.807 406.765H743.756C744.33 407.449 744.768 408.244 745.068 409.15C745.369 410.052 745.52 411.017 745.52 412.045Z" fill="white"/>
<path d="M500.195 446.578V453.969C500.195 455.271 499.802 456.294 499.016 457.039C498.229 457.784 497.148 458.156 495.773 458.156C494.398 458.156 493.333 457.781 492.578 457.031C491.828 456.281 491.453 455.25 491.453 453.938V446.578H492.781V454.031C492.781 454.984 493.042 455.716 493.562 456.227C494.083 456.737 494.849 456.992 495.859 456.992C496.823 456.992 497.565 456.737 498.086 456.227C498.607 455.711 498.867 454.974 498.867 454.016V446.578H500.195ZM504.528 458H503.231V445.844H504.528V458ZM510.9 458.156C509.66 458.156 508.699 457.776 508.017 457.016C507.34 456.25 507.002 455.169 507.002 453.773C507.002 452.341 507.345 451.234 508.033 450.453C508.726 449.672 509.71 449.281 510.986 449.281C511.397 449.281 511.809 449.326 512.22 449.414C512.632 449.503 512.955 449.607 513.189 449.727L512.791 450.828C512.504 450.714 512.192 450.62 511.853 450.547C511.515 450.469 511.215 450.43 510.955 450.43C509.215 450.43 508.345 451.539 508.345 453.758C508.345 454.81 508.556 455.617 508.978 456.18C509.405 456.742 510.035 457.023 510.869 457.023C511.582 457.023 512.314 456.87 513.064 456.562V457.711C512.491 458.008 511.77 458.156 510.9 458.156ZM518.92 458.156C517.655 458.156 516.655 457.771 515.92 457C515.191 456.229 514.827 455.159 514.827 453.789C514.827 452.409 515.165 451.312 515.842 450.5C516.524 449.688 517.439 449.281 518.584 449.281C519.657 449.281 520.506 449.635 521.131 450.344C521.756 451.047 522.069 451.977 522.069 453.133V453.953H516.17C516.196 454.958 516.449 455.721 516.928 456.242C517.413 456.763 518.092 457.023 518.967 457.023C519.889 457.023 520.801 456.831 521.702 456.445V457.602C521.243 457.799 520.808 457.94 520.397 458.023C519.991 458.112 519.498 458.156 518.92 458.156ZM518.569 450.367C517.881 450.367 517.332 450.591 516.92 451.039C516.514 451.487 516.274 452.107 516.202 452.898H520.678C520.678 452.081 520.496 451.456 520.131 451.023C519.767 450.586 519.246 450.367 518.569 450.367ZM528.394 449.281C528.774 449.281 529.115 449.312 529.417 449.375L529.237 450.578C528.883 450.5 528.571 450.461 528.3 450.461C527.607 450.461 527.014 450.742 526.519 451.305C526.029 451.867 525.784 452.568 525.784 453.406V458H524.487V449.438H525.558L525.706 451.023H525.769C526.086 450.466 526.469 450.036 526.917 449.734C527.365 449.432 527.857 449.281 528.394 449.281ZM536.484 458L536.227 456.781H536.164C535.737 457.318 535.31 457.682 534.883 457.875C534.461 458.062 533.932 458.156 533.297 458.156C532.448 458.156 531.781 457.938 531.297 457.5C530.818 457.062 530.578 456.44 530.578 455.633C530.578 453.904 531.961 452.997 534.727 452.914L536.18 452.867V452.336C536.18 451.664 536.034 451.169 535.742 450.852C535.456 450.529 534.995 450.367 534.359 450.367C533.646 450.367 532.839 450.586 531.938 451.023L531.539 450.031C531.961 449.802 532.422 449.622 532.922 449.492C533.427 449.362 533.932 449.297 534.438 449.297C535.458 449.297 536.214 449.523 536.703 449.977C537.198 450.43 537.445 451.156 537.445 452.156V458H536.484ZM533.555 457.086C534.362 457.086 534.995 456.865 535.453 456.422C535.917 455.979 536.148 455.359 536.148 454.562V453.789L534.852 453.844C533.82 453.88 533.076 454.042 532.617 454.328C532.164 454.609 531.938 455.049 531.938 455.648C531.938 456.117 532.078 456.474 532.359 456.719C532.646 456.964 533.044 457.086 533.555 457.086ZM543.091 457.086C543.32 457.086 543.541 457.07 543.755 457.039C543.968 457.003 544.138 456.966 544.263 456.93V457.922C544.122 457.99 543.914 458.044 543.638 458.086C543.367 458.133 543.122 458.156 542.903 458.156C541.247 458.156 540.419 457.284 540.419 455.539V450.445H539.192V449.82L540.419 449.281L540.966 447.453H541.716V449.438H544.2V450.445H541.716V455.484C541.716 456 541.838 456.396 542.083 456.672C542.328 456.948 542.664 457.086 543.091 457.086ZM547.478 458H546.181V449.438H547.478V458ZM546.072 447.117C546.072 446.82 546.145 446.604 546.291 446.469C546.436 446.328 546.619 446.258 546.838 446.258C547.046 446.258 547.226 446.328 547.377 446.469C547.528 446.609 547.603 446.826 547.603 447.117C547.603 447.409 547.528 447.628 547.377 447.773C547.226 447.914 547.046 447.984 546.838 447.984C546.619 447.984 546.436 447.914 546.291 447.773C546.145 447.628 546.072 447.409 546.072 447.117ZM552.303 458L549.053 449.438H550.444L552.287 454.516C552.704 455.703 552.949 456.474 553.022 456.828H553.084C553.142 456.552 553.321 455.982 553.623 455.117C553.931 454.247 554.616 452.354 555.678 449.438H557.069L553.819 458H552.303ZM562.261 458.156C560.995 458.156 559.995 457.771 559.261 457C558.532 456.229 558.167 455.159 558.167 453.789C558.167 452.409 558.506 451.312 559.183 450.5C559.865 449.688 560.779 449.281 561.925 449.281C562.998 449.281 563.847 449.635 564.472 450.344C565.097 451.047 565.409 451.977 565.409 453.133V453.953H559.511C559.537 454.958 559.79 455.721 560.269 456.242C560.753 456.763 561.433 457.023 562.308 457.023C563.23 457.023 564.141 456.831 565.042 456.445V457.602C564.584 457.799 564.149 457.94 563.738 458.023C563.331 458.112 562.839 458.156 562.261 458.156ZM561.909 450.367C561.222 450.367 560.672 450.591 560.261 451.039C559.855 451.487 559.615 452.107 559.542 452.898H564.019C564.019 452.081 563.836 451.456 563.472 451.023C563.107 450.586 562.586 450.367 561.909 450.367ZM575.606 458.156C574.367 458.156 573.406 457.776 572.723 457.016C572.046 456.25 571.708 455.169 571.708 453.773C571.708 452.341 572.052 451.234 572.739 450.453C573.432 449.672 574.416 449.281 575.692 449.281C576.104 449.281 576.515 449.326 576.927 449.414C577.338 449.503 577.661 449.607 577.895 449.727L577.497 450.828C577.21 450.714 576.898 450.62 576.559 450.547C576.221 450.469 575.921 450.43 575.661 450.43C573.921 450.43 573.052 451.539 573.052 453.758C573.052 454.81 573.262 455.617 573.684 456.18C574.111 456.742 574.742 457.023 575.575 457.023C576.289 457.023 577.02 456.87 577.77 456.562V457.711C577.197 458.008 576.476 458.156 575.606 458.156ZM587.4 453.711C587.4 455.107 587.048 456.198 586.345 456.984C585.642 457.766 584.671 458.156 583.431 458.156C582.666 458.156 581.986 457.977 581.392 457.617C580.798 457.258 580.34 456.742 580.017 456.07C579.694 455.398 579.533 454.612 579.533 453.711C579.533 452.315 579.882 451.229 580.58 450.453C581.278 449.672 582.246 449.281 583.486 449.281C584.684 449.281 585.634 449.68 586.338 450.477C587.046 451.273 587.4 452.352 587.4 453.711ZM580.877 453.711C580.877 454.805 581.095 455.638 581.533 456.211C581.97 456.784 582.614 457.07 583.463 457.07C584.311 457.07 584.955 456.786 585.392 456.219C585.835 455.646 586.056 454.81 586.056 453.711C586.056 452.622 585.835 451.797 585.392 451.234C584.955 450.667 584.306 450.383 583.447 450.383C582.598 450.383 581.957 450.661 581.525 451.219C581.093 451.776 580.877 452.607 580.877 453.711ZM591.178 458H589.881V445.844H591.178V458ZM595.425 458H594.128V449.438H595.425V458ZM594.019 447.117C594.019 446.82 594.092 446.604 594.238 446.469C594.383 446.328 594.566 446.258 594.784 446.258C594.993 446.258 595.172 446.328 595.323 446.469C595.474 446.609 595.55 446.826 595.55 447.117C595.55 447.409 595.474 447.628 595.323 447.773C595.172 447.914 594.993 447.984 594.784 447.984C594.566 447.984 594.383 447.914 594.238 447.773C594.092 447.628 594.019 447.409 594.019 447.117ZM601.141 457.086C601.37 457.086 601.591 457.07 601.805 457.039C602.018 457.003 602.188 456.966 602.312 456.93V457.922C602.172 457.99 601.964 458.044 601.688 458.086C601.417 458.133 601.172 458.156 600.953 458.156C599.297 458.156 598.469 457.284 598.469 455.539V450.445H597.242V449.82L598.469 449.281L599.016 447.453H599.766V449.438H602.25V450.445H599.766V455.484C599.766 456 599.888 456.396 600.133 456.672C600.378 456.948 600.714 457.086 601.141 457.086ZM605.528 458H604.231V449.438H605.528V458ZM604.122 447.117C604.122 446.82 604.195 446.604 604.341 446.469C604.486 446.328 604.669 446.258 604.887 446.258C605.096 446.258 605.276 446.328 605.427 446.469C605.578 446.609 605.653 446.826 605.653 447.117C605.653 447.409 605.578 447.628 605.427 447.773C605.276 447.914 605.096 447.984 604.887 447.984C604.669 447.984 604.486 447.914 604.341 447.773C604.195 447.628 604.122 447.409 604.122 447.117ZM614.002 455.664C614.002 456.461 613.705 457.076 613.111 457.508C612.517 457.94 611.684 458.156 610.611 458.156C609.476 458.156 608.59 457.977 607.955 457.617V456.414C608.366 456.622 608.806 456.786 609.275 456.906C609.749 457.026 610.205 457.086 610.642 457.086C611.319 457.086 611.84 456.979 612.205 456.766C612.569 456.547 612.752 456.216 612.752 455.773C612.752 455.44 612.606 455.156 612.314 454.922C612.028 454.682 611.465 454.401 610.627 454.078C609.83 453.781 609.262 453.523 608.923 453.305C608.59 453.081 608.34 452.828 608.173 452.547C608.012 452.266 607.931 451.93 607.931 451.539C607.931 450.841 608.215 450.292 608.783 449.891C609.351 449.484 610.129 449.281 611.119 449.281C612.041 449.281 612.942 449.469 613.822 449.844L613.361 450.898C612.502 450.544 611.723 450.367 611.025 450.367C610.41 450.367 609.947 450.464 609.634 450.656C609.322 450.849 609.166 451.115 609.166 451.453C609.166 451.682 609.223 451.878 609.338 452.039C609.457 452.201 609.647 452.354 609.908 452.5C610.168 452.646 610.668 452.857 611.408 453.133C612.423 453.503 613.108 453.875 613.463 454.25C613.822 454.625 614.002 455.096 614.002 455.664Z" fill="white"/>
<path d="M652.713 446.35C653.806 446.35 654.686 446.6 655.353 447.1C656.025 447.595 656.361 448.264 656.361 449.108C656.361 449.691 656.199 450.212 655.877 450.67C655.554 451.124 655.033 451.53 654.314 451.889C655.168 452.347 655.78 452.827 656.15 453.327C656.525 453.821 656.713 454.366 656.713 454.959C656.713 455.897 656.345 456.652 655.611 457.225C654.877 457.793 653.91 458.077 652.713 458.077C651.463 458.077 650.481 457.811 649.767 457.28C649.054 456.749 648.697 455.996 648.697 455.022C648.697 454.371 648.869 453.793 649.213 453.288C649.561 452.782 650.119 452.337 650.884 451.952C650.233 451.54 649.765 451.1 649.478 450.631C649.192 450.163 649.048 449.65 649.048 449.092C649.048 448.275 649.387 447.613 650.064 447.108C650.741 446.603 651.624 446.35 652.713 446.35ZM650.931 454.881C650.931 455.329 651.088 455.678 651.4 455.928C651.713 456.178 652.14 456.303 652.681 456.303C653.28 456.303 653.728 456.176 654.025 455.92C654.322 455.66 654.47 455.319 654.47 454.897C654.47 454.548 654.322 454.222 654.025 453.92C653.733 453.613 653.257 453.288 652.595 452.944C651.486 453.454 650.931 454.1 650.931 454.881ZM652.697 448.116C652.285 448.116 651.952 448.222 651.697 448.436C651.447 448.644 651.322 448.926 651.322 449.28C651.322 449.592 651.421 449.874 651.619 450.124C651.822 450.368 652.186 450.621 652.713 450.881C653.223 450.642 653.58 450.397 653.783 450.147C653.986 449.897 654.088 449.608 654.088 449.28C654.088 448.92 653.957 448.637 653.697 448.428C653.436 448.22 653.103 448.116 652.697 448.116ZM658.389 456.803C658.389 456.366 658.506 456.035 658.741 455.811C658.975 455.587 659.316 455.475 659.764 455.475C660.196 455.475 660.53 455.59 660.764 455.819C661.004 456.048 661.123 456.376 661.123 456.803C661.123 457.215 661.004 457.54 660.764 457.78C660.524 458.014 660.191 458.131 659.764 458.131C659.327 458.131 658.988 458.017 658.748 457.788C658.509 457.553 658.389 457.225 658.389 456.803ZM671.12 455.553H669.745V457.92H667.386V455.553H662.511V453.874L667.519 446.499H669.745V453.678H671.12V455.553ZM667.386 453.678V451.741C667.386 451.418 667.399 450.949 667.425 450.334C667.451 449.72 667.472 449.363 667.488 449.264H667.425C667.232 449.691 667.001 450.108 666.73 450.514L664.636 453.678H667.386ZM674.039 449.92C674.039 450.582 674.096 451.077 674.211 451.405C674.331 451.728 674.521 451.889 674.781 451.889C675.281 451.889 675.531 451.233 675.531 449.92C675.531 448.618 675.281 447.967 674.781 447.967C674.521 447.967 674.331 448.129 674.211 448.452C674.096 448.769 674.039 449.259 674.039 449.92ZM677.5 449.905C677.5 451.103 677.268 452.004 676.805 452.608C676.341 453.207 675.661 453.506 674.766 453.506C673.906 453.506 673.242 453.199 672.773 452.584C672.305 451.965 672.07 451.071 672.07 449.905C672.07 447.525 672.969 446.334 674.766 446.334C675.646 446.334 676.32 446.644 676.789 447.264C677.263 447.879 677.5 448.759 677.5 449.905ZM682.875 446.499L676.539 457.92H674.664L681 446.499H682.875ZM682.039 454.483C682.039 455.144 682.096 455.639 682.211 455.967C682.331 456.29 682.521 456.452 682.781 456.452C683.281 456.452 683.531 455.795 683.531 454.483C683.531 453.181 683.281 452.53 682.781 452.53C682.521 452.53 682.331 452.691 682.211 453.014C682.096 453.332 682.039 453.821 682.039 454.483ZM685.5 454.467C685.5 455.66 685.268 456.558 684.805 457.163C684.341 457.762 683.661 458.061 682.766 458.061C681.906 458.061 681.242 457.754 680.773 457.139C680.305 456.519 680.07 455.629 680.07 454.467C680.07 452.087 680.969 450.897 682.766 450.897C683.646 450.897 684.32 451.207 684.789 451.827C685.263 452.441 685.5 453.321 685.5 454.467Z" fill="white"/>
<path d="M703.339 453.417C703.339 452.381 703.489 451.413 703.79 450.51C704.095 449.608 704.532 448.817 705.103 448.137H706.052C705.489 448.891 705.066 449.719 704.78 450.622C704.499 451.524 704.359 452.452 704.359 453.405C704.359 454.342 704.503 455.258 704.792 456.153C705.081 457.047 705.497 457.864 706.04 458.602H705.103C704.529 457.938 704.091 457.163 703.79 456.276C703.489 455.389 703.339 454.436 703.339 453.417ZM712.035 456.704V452.549C712.035 452.026 711.916 451.635 711.678 451.377C711.439 451.12 711.066 450.991 710.559 450.991C709.887 450.991 709.395 451.172 709.082 451.536C708.77 451.899 708.613 452.499 708.613 453.334V456.704H707.641V450.282H708.432L708.59 451.161H708.637C708.836 450.844 709.115 450.6 709.475 450.428C709.834 450.252 710.234 450.165 710.676 450.165C711.449 450.165 712.031 450.352 712.422 450.727C712.812 451.098 713.008 451.694 713.008 452.514V456.704H712.035ZM714.878 451.676V450.874H720.327V451.676H714.878ZM714.878 454.073V453.27H720.327V454.073H714.878ZM725.437 456.704H724.488V450.598C724.488 450.09 724.504 449.61 724.535 449.157C724.453 449.239 724.361 449.325 724.259 449.415C724.158 449.504 723.693 449.885 722.865 450.557L722.349 449.889L724.617 448.137H725.437V456.704ZM729 453.042C729 451.358 729.327 450.1 729.979 449.268C730.635 448.432 731.604 448.014 732.885 448.014C733.327 448.014 733.674 448.051 733.928 448.125V448.963C733.627 448.866 733.284 448.817 732.897 448.817C731.979 448.817 731.278 449.104 730.793 449.678C730.309 450.249 730.043 451.147 729.996 452.374H730.067C730.496 451.702 731.176 451.366 732.106 451.366C732.875 451.366 733.481 451.598 733.922 452.063C734.368 452.528 734.59 453.159 734.59 453.956C734.59 454.846 734.346 455.547 733.858 456.059C733.373 456.567 732.717 456.821 731.889 456.821C731.002 456.821 730.299 456.489 729.78 455.825C729.26 455.157 729 454.229 729 453.042ZM731.877 455.995C732.432 455.995 732.862 455.821 733.166 455.473C733.475 455.122 733.629 454.616 733.629 453.956C733.629 453.389 733.487 452.944 733.202 452.62C732.916 452.295 732.491 452.133 731.924 452.133C731.573 452.133 731.25 452.206 730.957 452.35C730.664 452.495 730.43 452.694 730.254 452.948C730.082 453.202 729.996 453.465 729.996 453.739C729.996 454.141 730.075 454.516 730.231 454.864C730.387 455.211 730.608 455.487 730.893 455.69C731.182 455.893 731.51 455.995 731.877 455.995ZM738.646 451.471C739.548 451.471 740.257 451.696 740.773 452.145C741.292 452.59 741.552 453.202 741.552 453.979C741.552 454.866 741.269 455.561 740.702 456.065C740.14 456.569 739.362 456.821 738.37 456.821C737.405 456.821 736.669 456.667 736.161 456.358V455.42C736.435 455.596 736.775 455.735 737.181 455.836C737.587 455.934 737.987 455.983 738.382 455.983C739.07 455.983 739.603 455.821 739.982 455.497C740.364 455.172 740.556 454.704 740.556 454.09C740.556 452.895 739.823 452.297 738.359 452.297C737.987 452.297 737.491 452.354 736.87 452.467L736.366 452.145L736.689 448.137H740.948V449.034H737.521L737.304 451.606C737.753 451.516 738.2 451.471 738.646 451.471ZM745.52 453.417C745.52 454.444 745.367 455.401 745.062 456.288C744.762 457.174 744.326 457.946 743.756 458.602H742.818C743.361 457.868 743.777 457.053 744.066 456.159C744.355 455.26 744.5 454.342 744.5 453.405C744.5 452.452 744.357 451.524 744.072 450.622C743.791 449.719 743.369 448.891 742.807 448.137H743.756C744.33 448.821 744.768 449.616 745.068 450.522C745.369 451.424 745.52 452.389 745.52 453.417Z" fill="white"/>
<path d="M496.461 488.602C495.206 488.602 494.214 489.021 493.484 489.859C492.76 490.693 492.398 491.836 492.398 493.289C492.398 494.784 492.747 495.94 493.445 496.758C494.148 497.57 495.148 497.977 496.445 497.977C497.242 497.977 498.151 497.833 499.172 497.547V498.711C498.38 499.008 497.404 499.156 496.242 499.156C494.56 499.156 493.26 498.646 492.344 497.625C491.432 496.604 490.977 495.154 490.977 493.273C490.977 492.096 491.195 491.065 491.633 490.18C492.076 489.294 492.711 488.612 493.539 488.133C494.372 487.654 495.352 487.414 496.477 487.414C497.674 487.414 498.721 487.633 499.617 488.07L499.055 489.211C498.19 488.805 497.326 488.602 496.461 488.602ZM505.575 490.281C505.955 490.281 506.296 490.312 506.598 490.375L506.419 491.578C506.065 491.5 505.752 491.461 505.481 491.461C504.789 491.461 504.195 491.742 503.7 492.305C503.21 492.867 502.966 493.568 502.966 494.406V499H501.669V490.438H502.739L502.887 492.023H502.95C503.268 491.466 503.651 491.036 504.098 490.734C504.546 490.432 505.039 490.281 505.575 490.281ZM515.791 494.711C515.791 496.107 515.439 497.198 514.736 497.984C514.033 498.766 513.061 499.156 511.822 499.156C511.056 499.156 510.377 498.977 509.783 498.617C509.189 498.258 508.731 497.742 508.408 497.07C508.085 496.398 507.923 495.612 507.923 494.711C507.923 493.315 508.272 492.229 508.97 491.453C509.668 490.672 510.637 490.281 511.877 490.281C513.074 490.281 514.025 490.68 514.728 491.477C515.436 492.273 515.791 493.352 515.791 494.711ZM509.267 494.711C509.267 495.805 509.486 496.638 509.923 497.211C510.361 497.784 511.004 498.07 511.853 498.07C512.702 498.07 513.345 497.786 513.783 497.219C514.226 496.646 514.447 495.81 514.447 494.711C514.447 493.622 514.226 492.797 513.783 492.234C513.345 491.667 512.697 491.383 511.837 491.383C510.989 491.383 510.348 491.661 509.916 492.219C509.483 492.776 509.267 493.607 509.267 494.711ZM524.131 499V493.461C524.131 492.763 523.972 492.242 523.655 491.898C523.337 491.555 522.84 491.383 522.163 491.383C521.261 491.383 520.603 491.628 520.186 492.117C519.774 492.607 519.569 493.409 519.569 494.523V499H518.272V486.844H519.569V490.523C519.569 490.966 519.548 491.333 519.506 491.625H519.584C519.84 491.214 520.202 490.891 520.67 490.656C521.144 490.417 521.683 490.297 522.288 490.297C523.334 490.297 524.118 490.547 524.639 491.047C525.165 491.542 525.428 492.331 525.428 493.414V499H524.131ZM534.159 499V493.461C534.159 492.763 534.001 492.242 533.683 491.898C533.365 491.555 532.868 491.383 532.191 491.383C531.295 491.383 530.639 491.625 530.222 492.109C529.805 492.594 529.597 493.393 529.597 494.508V499H528.3V490.438H529.355L529.566 491.609H529.628C529.894 491.188 530.266 490.862 530.745 490.633C531.224 490.398 531.758 490.281 532.347 490.281C533.378 490.281 534.154 490.531 534.675 491.031C535.196 491.526 535.456 492.32 535.456 493.414V499H534.159ZM539.367 487.578L539.484 487.75C539.349 488.271 539.154 488.878 538.898 489.57C538.643 490.258 538.378 490.898 538.102 491.492H537.148C537.513 490.008 537.779 488.703 537.945 487.578H539.367ZM546.77 496.664C546.77 497.461 546.473 498.076 545.88 498.508C545.286 498.94 544.453 499.156 543.38 499.156C542.244 499.156 541.359 498.977 540.723 498.617V497.414C541.135 497.622 541.575 497.786 542.044 497.906C542.518 498.026 542.973 498.086 543.411 498.086C544.088 498.086 544.609 497.979 544.973 497.766C545.338 497.547 545.52 497.216 545.52 496.773C545.52 496.44 545.374 496.156 545.083 495.922C544.796 495.682 544.234 495.401 543.395 495.078C542.598 494.781 542.031 494.523 541.692 494.305C541.359 494.081 541.109 493.828 540.942 493.547C540.781 493.266 540.7 492.93 540.7 492.539C540.7 491.841 540.984 491.292 541.552 490.891C542.119 490.484 542.898 490.281 543.888 490.281C544.809 490.281 545.71 490.469 546.591 490.844L546.13 491.898C545.27 491.544 544.492 491.367 543.794 491.367C543.179 491.367 542.716 491.464 542.403 491.656C542.091 491.849 541.934 492.115 541.934 492.453C541.934 492.682 541.992 492.878 542.106 493.039C542.226 493.201 542.416 493.354 542.677 493.5C542.937 493.646 543.437 493.857 544.177 494.133C545.192 494.503 545.877 494.875 546.231 495.25C546.591 495.625 546.77 496.096 546.77 496.664ZM562.756 493.18C562.756 495.065 562.243 496.508 561.217 497.508C560.196 498.503 558.725 499 556.803 499H553.639V487.578H557.139C558.915 487.578 560.295 488.07 561.28 489.055C562.264 490.039 562.756 491.414 562.756 493.18ZM561.35 493.227C561.35 491.737 560.975 490.615 560.225 489.859C559.48 489.104 558.371 488.727 556.897 488.727H554.967V497.852H556.584C558.168 497.852 559.358 497.464 560.155 496.688C560.952 495.906 561.35 494.753 561.35 493.227ZM566.613 499H565.316V490.438H566.613V499ZM565.206 488.117C565.206 487.82 565.279 487.604 565.425 487.469C565.571 487.328 565.753 487.258 565.972 487.258C566.18 487.258 566.36 487.328 566.511 487.469C566.662 487.609 566.738 487.826 566.738 488.117C566.738 488.409 566.662 488.628 566.511 488.773C566.36 488.914 566.18 488.984 565.972 488.984C565.753 488.984 565.571 488.914 565.425 488.773C565.279 488.628 565.206 488.409 565.206 488.117ZM575.086 496.664C575.086 497.461 574.789 498.076 574.195 498.508C573.602 498.94 572.768 499.156 571.695 499.156C570.56 499.156 569.674 498.977 569.039 498.617V497.414C569.451 497.622 569.891 497.786 570.359 497.906C570.833 498.026 571.289 498.086 571.727 498.086C572.404 498.086 572.924 497.979 573.289 497.766C573.654 497.547 573.836 497.216 573.836 496.773C573.836 496.44 573.69 496.156 573.398 495.922C573.112 495.682 572.549 495.401 571.711 495.078C570.914 494.781 570.346 494.523 570.008 494.305C569.674 494.081 569.424 493.828 569.258 493.547C569.096 493.266 569.016 492.93 569.016 492.539C569.016 491.841 569.299 491.292 569.867 490.891C570.435 490.484 571.214 490.281 572.203 490.281C573.125 490.281 574.026 490.469 574.906 490.844L574.445 491.898C573.586 491.544 572.807 491.367 572.109 491.367C571.495 491.367 571.031 491.464 570.719 491.656C570.406 491.849 570.25 492.115 570.25 492.453C570.25 492.682 570.307 492.878 570.422 493.039C570.542 493.201 570.732 493.354 570.992 493.5C571.253 493.646 571.753 493.857 572.492 494.133C573.508 494.503 574.193 494.875 574.547 495.25C574.906 495.625 575.086 496.096 575.086 496.664ZM581.02 499.156C579.755 499.156 578.755 498.771 578.02 498C577.291 497.229 576.927 496.159 576.927 494.789C576.927 493.409 577.265 492.312 577.942 491.5C578.624 490.688 579.539 490.281 580.684 490.281C581.757 490.281 582.606 490.635 583.231 491.344C583.856 492.047 584.169 492.977 584.169 494.133V494.953H578.27C578.296 495.958 578.549 496.721 579.028 497.242C579.512 497.763 580.192 498.023 581.067 498.023C581.989 498.023 582.901 497.831 583.802 497.445V498.602C583.343 498.799 582.908 498.94 582.497 499.023C582.091 499.112 581.598 499.156 581.02 499.156ZM580.669 491.367C579.981 491.367 579.432 491.591 579.02 492.039C578.614 492.487 578.374 493.107 578.302 493.898H582.778C582.778 493.081 582.596 492.456 582.231 492.023C581.867 491.586 581.346 491.367 580.669 491.367ZM591.853 499L591.595 497.781H591.533C591.106 498.318 590.679 498.682 590.252 498.875C589.83 499.062 589.301 499.156 588.666 499.156C587.817 499.156 587.15 498.938 586.666 498.5C586.186 498.062 585.947 497.44 585.947 496.633C585.947 494.904 587.33 493.997 590.095 493.914L591.548 493.867V493.336C591.548 492.664 591.403 492.169 591.111 491.852C590.824 491.529 590.364 491.367 589.728 491.367C589.015 491.367 588.207 491.586 587.306 492.023L586.908 491.031C587.33 490.802 587.791 490.622 588.291 490.492C588.796 490.362 589.301 490.297 589.806 490.297C590.827 490.297 591.582 490.523 592.072 490.977C592.567 491.43 592.814 492.156 592.814 493.156V499H591.853ZM588.923 498.086C589.731 498.086 590.364 497.865 590.822 497.422C591.285 496.979 591.517 496.359 591.517 495.562V494.789L590.22 494.844C589.189 494.88 588.444 495.042 587.986 495.328C587.533 495.609 587.306 496.049 587.306 496.648C587.306 497.117 587.447 497.474 587.728 497.719C588.015 497.964 588.413 498.086 588.923 498.086ZM601.217 496.664C601.217 497.461 600.92 498.076 600.327 498.508C599.733 498.94 598.899 499.156 597.827 499.156C596.691 499.156 595.806 498.977 595.17 498.617V497.414C595.582 497.622 596.022 497.786 596.491 497.906C596.965 498.026 597.42 498.086 597.858 498.086C598.535 498.086 599.056 497.979 599.42 497.766C599.785 497.547 599.967 497.216 599.967 496.773C599.967 496.44 599.821 496.156 599.53 495.922C599.243 495.682 598.681 495.401 597.842 495.078C597.045 494.781 596.478 494.523 596.139 494.305C595.806 494.081 595.556 493.828 595.389 493.547C595.228 493.266 595.147 492.93 595.147 492.539C595.147 491.841 595.431 491.292 595.998 490.891C596.566 490.484 597.345 490.281 598.334 490.281C599.256 490.281 600.157 490.469 601.037 490.844L600.577 491.898C599.717 491.544 598.939 491.367 598.241 491.367C597.626 491.367 597.162 491.464 596.85 491.656C596.537 491.849 596.381 492.115 596.381 492.453C596.381 492.682 596.439 492.878 596.553 493.039C596.673 493.201 596.863 493.354 597.123 493.5C597.384 493.646 597.884 493.857 598.623 494.133C599.639 494.503 600.324 494.875 600.678 495.25C601.037 495.625 601.217 496.096 601.217 496.664ZM607.152 499.156C605.886 499.156 604.886 498.771 604.152 498C603.422 497.229 603.058 496.159 603.058 494.789C603.058 493.409 603.396 492.312 604.073 491.5C604.756 490.688 605.67 490.281 606.816 490.281C607.889 490.281 608.738 490.635 609.363 491.344C609.988 492.047 610.3 492.977 610.3 494.133V494.953H604.402C604.428 495.958 604.68 496.721 605.159 497.242C605.644 497.763 606.323 498.023 607.198 498.023C608.12 498.023 609.032 497.831 609.933 497.445V498.602C609.474 498.799 609.04 498.94 608.628 499.023C608.222 499.112 607.73 499.156 607.152 499.156ZM606.8 491.367C606.113 491.367 605.563 491.591 605.152 492.039C604.745 492.487 604.506 493.107 604.433 493.898H608.909C608.909 493.081 608.727 492.456 608.363 492.023C607.998 491.586 607.477 491.367 606.8 491.367Z" fill="white"/>
<path d="M649.908 499.292L654.197 489.917H648.564V487.886H656.759V489.401L652.439 499.292H649.908ZM658.389 498.175C658.389 497.737 658.506 497.407 658.741 497.183C658.975 496.959 659.316 496.847 659.764 496.847C660.196 496.847 660.53 496.961 660.764 497.19C661.004 497.42 661.123 497.748 661.123 498.175C661.123 498.586 661.004 498.912 660.764 499.151C660.524 499.386 660.191 499.503 659.764 499.503C659.327 499.503 658.988 499.388 658.748 499.159C658.509 498.925 658.389 498.597 658.389 498.175ZM667.034 491.995C668.139 491.995 669.016 492.305 669.667 492.925C670.323 493.545 670.652 494.394 670.652 495.472C670.652 496.748 670.258 497.729 669.472 498.417C668.685 499.104 667.56 499.448 666.097 499.448C664.826 499.448 663.8 499.243 663.019 498.831V496.745C663.43 496.964 663.909 497.144 664.456 497.284C665.003 497.42 665.521 497.487 666.011 497.487C667.485 497.487 668.222 496.883 668.222 495.675C668.222 494.524 667.459 493.948 665.933 493.948C665.657 493.948 665.352 493.977 665.019 494.034C664.685 494.086 664.415 494.144 664.206 494.206L663.245 493.69L663.675 487.87H669.87V489.917H665.792L665.581 492.159L665.855 492.104C666.172 492.032 666.566 491.995 667.034 491.995ZM674.039 491.292C674.039 491.953 674.096 492.448 674.211 492.776C674.331 493.099 674.521 493.261 674.781 493.261C675.281 493.261 675.531 492.604 675.531 491.292C675.531 489.99 675.281 489.339 674.781 489.339C674.521 489.339 674.331 489.5 674.211 489.823C674.096 490.141 674.039 490.631 674.039 491.292ZM677.5 491.276C677.5 492.474 677.268 493.375 676.805 493.979C676.341 494.578 675.661 494.878 674.766 494.878C673.906 494.878 673.242 494.571 672.773 493.956C672.305 493.336 672.07 492.443 672.07 491.276C672.07 488.896 672.969 487.706 674.766 487.706C675.646 487.706 676.32 488.016 676.789 488.636C677.263 489.25 677.5 490.131 677.5 491.276ZM682.875 487.87L676.539 499.292H674.664L681 487.87H682.875ZM682.039 495.854C682.039 496.516 682.096 497.011 682.211 497.339C682.331 497.662 682.521 497.823 682.781 497.823C683.281 497.823 683.531 497.167 683.531 495.854C683.531 494.552 683.281 493.901 682.781 493.901C682.521 493.901 682.331 494.063 682.211 494.386C682.096 494.703 682.039 495.193 682.039 495.854ZM685.5 495.839C685.5 497.032 685.268 497.93 684.805 498.534C684.341 499.133 683.661 499.433 682.766 499.433C681.906 499.433 681.242 499.125 680.773 498.511C680.305 497.891 680.07 497 680.07 495.839C680.07 493.459 680.969 492.269 682.766 492.269C683.646 492.269 684.32 492.578 684.789 493.198C685.263 493.813 685.5 494.693 685.5 495.839Z" fill="white"/>
<path d="M703.339 494.788C703.339 493.753 703.489 492.784 703.79 491.882C704.095 490.979 704.532 490.188 705.103 489.509H706.052C705.489 490.263 705.066 491.091 704.78 491.993C704.499 492.896 704.359 493.823 704.359 494.776C704.359 495.714 704.503 496.63 704.792 497.524C705.081 498.419 705.497 499.235 706.04 499.974H705.103C704.529 499.31 704.091 498.534 703.79 497.647C703.489 496.761 703.339 495.808 703.339 494.788ZM712.035 498.075V493.921C712.035 493.397 711.916 493.007 711.678 492.749C711.439 492.491 711.066 492.362 710.559 492.362C709.887 492.362 709.395 492.544 709.082 492.907C708.77 493.271 708.613 493.87 708.613 494.706V498.075H707.641V491.653H708.432L708.59 492.532H708.637C708.836 492.216 709.115 491.972 709.475 491.8C709.834 491.624 710.234 491.536 710.676 491.536C711.449 491.536 712.031 491.724 712.422 492.099C712.812 492.47 713.008 493.065 713.008 493.886V498.075H712.035ZM714.878 493.048V492.245H720.327V493.048H714.878ZM714.878 495.444V494.642H720.327V495.444H714.878ZM725.437 498.075H724.488V491.97C724.488 491.462 724.504 490.981 724.535 490.528C724.453 490.61 724.361 490.696 724.259 490.786C724.158 490.876 723.693 491.257 722.865 491.929L722.349 491.261L724.617 489.509H725.437V498.075ZM731.579 492.843C732.481 492.843 733.19 493.067 733.705 493.517C734.225 493.962 734.485 494.573 734.485 495.351C734.485 496.237 734.202 496.933 733.635 497.437C733.073 497.94 732.295 498.192 731.303 498.192C730.338 498.192 729.602 498.038 729.094 497.729V496.792C729.368 496.968 729.707 497.106 730.114 497.208C730.52 497.306 730.92 497.354 731.315 497.354C732.002 497.354 732.536 497.192 732.914 496.868C733.297 496.544 733.489 496.075 733.489 495.462C733.489 494.267 732.756 493.669 731.291 493.669C730.92 493.669 730.424 493.726 729.803 493.839L729.299 493.517L729.621 489.509H733.881V490.405H730.454L730.237 492.978C730.686 492.888 731.133 492.843 731.579 492.843ZM742.003 496.106H740.732V498.075H739.8V496.106H735.634V495.257L739.7 489.462H740.732V495.222H742.003V496.106ZM739.8 495.222V492.374C739.8 491.815 739.82 491.185 739.859 490.481H739.812C739.624 490.856 739.448 491.167 739.284 491.413L736.607 495.222H739.8ZM745.52 494.788C745.52 495.815 745.367 496.772 745.062 497.659C744.762 498.546 744.326 499.317 743.756 499.974H742.818C743.361 499.239 743.777 498.425 744.066 497.53C744.355 496.632 744.5 495.714 744.5 494.776C744.5 493.823 744.357 492.896 744.072 491.993C743.791 491.091 743.369 490.263 742.807 489.509H743.756C744.33 490.192 744.768 490.987 745.068 491.894C745.369 492.796 745.52 493.761 745.52 494.788Z" fill="white"/>
<path d="M200.18 214.43C199.268 214.43 198.562 214.773 198.062 215.461C197.562 216.143 197.312 217.096 197.312 218.32C197.312 220.867 198.268 222.141 200.18 222.141C200.982 222.141 201.953 221.94 203.094 221.539V223.57C202.156 223.961 201.109 224.156 199.953 224.156C198.292 224.156 197.021 223.654 196.141 222.648C195.26 221.638 194.82 220.19 194.82 218.305C194.82 217.117 195.036 216.078 195.469 215.188C195.901 214.292 196.521 213.607 197.328 213.133C198.141 212.654 199.091 212.414 200.18 212.414C201.289 212.414 202.404 212.682 203.523 213.219L202.742 215.188C202.315 214.984 201.885 214.807 201.453 214.656C201.021 214.505 200.596 214.43 200.18 214.43ZM218.898 218.273C218.898 220.164 218.43 221.617 217.492 222.633C216.555 223.648 215.211 224.156 213.461 224.156C211.711 224.156 210.367 223.648 209.43 222.633C208.492 221.617 208.023 220.159 208.023 218.258C208.023 216.357 208.492 214.906 209.43 213.906C210.372 212.901 211.721 212.398 213.477 212.398C215.232 212.398 216.573 212.904 217.5 213.914C218.432 214.924 218.898 216.378 218.898 218.273ZM210.562 218.273C210.562 219.549 210.805 220.51 211.289 221.156C211.773 221.802 212.497 222.125 213.461 222.125C215.393 222.125 216.359 220.841 216.359 218.273C216.359 215.701 215.398 214.414 213.477 214.414C212.513 214.414 211.786 214.74 211.297 215.391C210.807 216.036 210.562 216.997 210.562 218.273ZM234.398 224H231.32L226.352 215.359H226.281C226.38 216.885 226.43 217.974 226.43 218.625V224H224.266V212.578H227.32L232.281 221.133H232.336C232.258 219.648 232.219 218.599 232.219 217.984V212.578H234.398V224ZM249.758 218.18C249.758 220.06 249.221 221.5 248.148 222.5C247.081 223.5 245.536 224 243.516 224H240.281V212.578H243.867C245.732 212.578 247.18 213.07 248.211 214.055C249.242 215.039 249.758 216.414 249.758 218.18ZM247.242 218.242C247.242 215.789 246.159 214.562 243.992 214.562H242.703V222H243.742C246.076 222 247.242 220.747 247.242 218.242ZM255.125 224V212.578H257.547V224H255.125ZM267.828 224H265.406V214.594H262.305V212.578H270.93V214.594H267.828V224ZM275.688 224V212.578H278.109V224H275.688ZM294.352 218.273C294.352 220.164 293.883 221.617 292.945 222.633C292.008 223.648 290.664 224.156 288.914 224.156C287.164 224.156 285.82 223.648 284.883 222.633C283.945 221.617 283.477 220.159 283.477 218.258C283.477 216.357 283.945 214.906 284.883 213.906C285.826 212.901 287.174 212.398 288.93 212.398C290.685 212.398 292.026 212.904 292.953 213.914C293.885 214.924 294.352 216.378 294.352 218.273ZM286.016 218.273C286.016 219.549 286.258 220.51 286.742 221.156C287.227 221.802 287.951 222.125 288.914 222.125C290.846 222.125 291.812 220.841 291.812 218.273C291.812 215.701 290.852 214.414 288.93 214.414C287.966 214.414 287.24 214.74 286.75 215.391C286.26 216.036 286.016 216.997 286.016 218.273ZM309.852 224H306.773L301.805 215.359H301.734C301.833 216.885 301.883 217.974 301.883 218.625V224H299.719V212.578H302.773L307.734 221.133H307.789C307.711 219.648 307.672 218.599 307.672 217.984V212.578H309.852V224ZM322.477 220.828C322.477 221.859 322.104 222.672 321.359 223.266C320.62 223.859 319.589 224.156 318.266 224.156C317.047 224.156 315.969 223.927 315.031 223.469V221.219C315.802 221.562 316.453 221.805 316.984 221.945C317.521 222.086 318.01 222.156 318.453 222.156C318.984 222.156 319.391 222.055 319.672 221.852C319.958 221.648 320.102 221.346 320.102 220.945C320.102 220.721 320.039 220.523 319.914 220.352C319.789 220.174 319.604 220.005 319.359 219.844C319.12 219.682 318.628 219.424 317.883 219.07C317.185 218.742 316.661 218.427 316.312 218.125C315.964 217.823 315.685 217.471 315.477 217.07C315.268 216.669 315.164 216.201 315.164 215.664C315.164 214.654 315.505 213.859 316.188 213.281C316.875 212.703 317.823 212.414 319.031 212.414C319.625 212.414 320.19 212.484 320.727 212.625C321.268 212.766 321.833 212.964 322.422 213.219L321.641 215.102C321.031 214.852 320.526 214.677 320.125 214.578C319.729 214.479 319.339 214.43 318.953 214.43C318.495 214.43 318.143 214.536 317.898 214.75C317.654 214.964 317.531 215.242 317.531 215.586C317.531 215.799 317.581 215.987 317.68 216.148C317.779 216.305 317.935 216.458 318.148 216.609C318.367 216.755 318.88 217.021 319.688 217.406C320.755 217.917 321.487 218.43 321.883 218.945C322.279 219.456 322.477 220.083 322.477 220.828ZM205.336 240.43C204.424 240.43 203.719 240.773 203.219 241.461C202.719 242.143 202.469 243.096 202.469 244.32C202.469 246.867 203.424 248.141 205.336 248.141C206.138 248.141 207.109 247.94 208.25 247.539V249.57C207.312 249.961 206.266 250.156 205.109 250.156C203.448 250.156 202.177 249.654 201.297 248.648C200.417 247.638 199.977 246.19 199.977 244.305C199.977 243.117 200.193 242.078 200.625 241.188C201.057 240.292 201.677 239.607 202.484 239.133C203.297 238.654 204.247 238.414 205.336 238.414C206.445 238.414 207.56 238.682 208.68 239.219L207.898 241.188C207.471 240.984 207.042 240.807 206.609 240.656C206.177 240.505 205.753 240.43 205.336 240.43ZM224.055 244.273C224.055 246.164 223.586 247.617 222.648 248.633C221.711 249.648 220.367 250.156 218.617 250.156C216.867 250.156 215.523 249.648 214.586 248.633C213.648 247.617 213.18 246.159 213.18 244.258C213.18 242.357 213.648 240.906 214.586 239.906C215.529 238.901 216.878 238.398 218.633 238.398C220.388 238.398 221.729 238.904 222.656 239.914C223.589 240.924 224.055 242.378 224.055 244.273ZM215.719 244.273C215.719 245.549 215.961 246.51 216.445 247.156C216.93 247.802 217.654 248.125 218.617 248.125C220.549 248.125 221.516 246.841 221.516 244.273C221.516 241.701 220.555 240.414 218.633 240.414C217.669 240.414 216.943 240.74 216.453 241.391C215.964 242.036 215.719 242.997 215.719 244.273ZM234.258 250L231.508 241.039H231.438C231.536 242.862 231.586 244.078 231.586 244.688V250H229.422V238.578H232.719L235.422 247.312H235.469L238.336 238.578H241.633V250H239.375V244.594C239.375 244.339 239.378 244.044 239.383 243.711C239.393 243.378 239.43 242.492 239.492 241.055H239.422L236.477 250H234.258ZM252.352 250L249.602 241.039H249.531C249.63 242.862 249.68 244.078 249.68 244.688V250H247.516V238.578H250.812L253.516 247.312H253.562L256.43 238.578H259.727V250H257.469V244.594C257.469 244.339 257.471 244.044 257.477 243.711C257.487 243.378 257.523 242.492 257.586 241.055H257.516L254.57 250H252.352ZM275.977 244.273C275.977 246.164 275.508 247.617 274.57 248.633C273.633 249.648 272.289 250.156 270.539 250.156C268.789 250.156 267.445 249.648 266.508 248.633C265.57 247.617 265.102 246.159 265.102 244.258C265.102 242.357 265.57 240.906 266.508 239.906C267.451 238.901 268.799 238.398 270.555 238.398C272.31 238.398 273.651 238.904 274.578 239.914C275.51 240.924 275.977 242.378 275.977 244.273ZM267.641 244.273C267.641 245.549 267.883 246.51 268.367 247.156C268.852 247.802 269.576 248.125 270.539 248.125C272.471 248.125 273.438 246.841 273.438 244.273C273.438 241.701 272.477 240.414 270.555 240.414C269.591 240.414 268.865 240.74 268.375 241.391C267.885 242.036 267.641 242.997 267.641 244.273ZM291.477 250H288.398L283.43 241.359H283.359C283.458 242.885 283.508 243.974 283.508 244.625V250H281.344V238.578H284.398L289.359 247.133H289.414C289.336 245.648 289.297 244.599 289.297 243.984V238.578H291.477V250ZM297.359 250V238.578H299.781V248H304.414V250H297.359ZM312.961 243.281L315.344 238.578H317.953L314.164 245.555V250H311.758V245.633L307.969 238.578H310.594L312.961 243.281ZM208.094 270.273C208.094 272.164 207.625 273.617 206.688 274.633C205.75 275.648 204.406 276.156 202.656 276.156C200.906 276.156 199.562 275.648 198.625 274.633C197.688 273.617 197.219 272.159 197.219 270.258C197.219 268.357 197.688 266.906 198.625 265.906C199.568 264.901 200.917 264.398 202.672 264.398C204.427 264.398 205.768 264.904 206.695 265.914C207.628 266.924 208.094 268.378 208.094 270.273ZM199.758 270.273C199.758 271.549 200 272.51 200.484 273.156C200.969 273.802 201.693 274.125 202.656 274.125C204.589 274.125 205.555 272.841 205.555 270.273C205.555 267.701 204.594 266.414 202.672 266.414C201.708 266.414 200.982 266.74 200.492 267.391C200.003 268.036 199.758 268.997 199.758 270.273ZM218.312 266.43C217.401 266.43 216.695 266.773 216.195 267.461C215.695 268.143 215.445 269.096 215.445 270.32C215.445 272.867 216.401 274.141 218.312 274.141C219.115 274.141 220.086 273.94 221.227 273.539V275.57C220.289 275.961 219.242 276.156 218.086 276.156C216.424 276.156 215.154 275.654 214.273 274.648C213.393 273.638 212.953 272.19 212.953 270.305C212.953 269.117 213.169 268.078 213.602 267.188C214.034 266.292 214.654 265.607 215.461 265.133C216.273 264.654 217.224 264.414 218.312 264.414C219.422 264.414 220.536 264.682 221.656 265.219L220.875 267.188C220.448 266.984 220.018 266.807 219.586 266.656C219.154 266.505 218.729 266.43 218.312 266.43ZM231.516 266.43C230.604 266.43 229.898 266.773 229.398 267.461C228.898 268.143 228.648 269.096 228.648 270.32C228.648 272.867 229.604 274.141 231.516 274.141C232.318 274.141 233.289 273.94 234.43 273.539V275.57C233.492 275.961 232.445 276.156 231.289 276.156C229.628 276.156 228.357 275.654 227.477 274.648C226.596 273.638 226.156 272.19 226.156 270.305C226.156 269.117 226.372 268.078 226.805 267.188C227.237 266.292 227.857 265.607 228.664 265.133C229.477 264.654 230.427 264.414 231.516 264.414C232.625 264.414 233.74 264.682 234.859 265.219L234.078 267.188C233.651 266.984 233.221 266.807 232.789 266.656C232.357 266.505 231.932 266.43 231.516 266.43ZM249.164 264.578V271.969C249.164 272.812 248.974 273.552 248.594 274.188C248.219 274.823 247.674 275.31 246.961 275.648C246.247 275.987 245.404 276.156 244.43 276.156C242.961 276.156 241.82 275.781 241.008 275.031C240.195 274.276 239.789 273.245 239.789 271.938V264.578H242.203V271.57C242.203 272.451 242.38 273.096 242.734 273.508C243.089 273.919 243.674 274.125 244.492 274.125C245.284 274.125 245.857 273.919 246.211 273.508C246.57 273.091 246.75 272.44 246.75 271.555V264.578H249.164ZM257.383 269.648H258.164C258.93 269.648 259.495 269.521 259.859 269.266C260.224 269.01 260.406 268.609 260.406 268.062C260.406 267.521 260.219 267.135 259.844 266.906C259.474 266.677 258.898 266.562 258.117 266.562H257.383V269.648ZM257.383 271.617V276H254.961V264.578H258.289C259.841 264.578 260.99 264.862 261.734 265.43C262.479 265.992 262.852 266.849 262.852 268C262.852 268.672 262.667 269.271 262.297 269.797C261.927 270.318 261.404 270.727 260.727 271.023C262.445 273.591 263.565 275.25 264.086 276H261.398L258.672 271.617H257.383ZM270.945 269.648H271.727C272.492 269.648 273.057 269.521 273.422 269.266C273.786 269.01 273.969 268.609 273.969 268.062C273.969 267.521 273.781 267.135 273.406 266.906C273.036 266.677 272.461 266.562 271.68 266.562H270.945V269.648ZM270.945 271.617V276H268.523V264.578H271.852C273.404 264.578 274.552 264.862 275.297 265.43C276.042 265.992 276.414 266.849 276.414 268C276.414 268.672 276.229 269.271 275.859 269.797C275.49 270.318 274.966 270.727 274.289 271.023C276.008 273.591 277.128 275.25 277.648 276H274.961L272.234 271.617H270.945ZM282.086 276V264.578H284.508V276H282.086ZM300.516 276H297.438L292.469 267.359H292.398C292.497 268.885 292.547 269.974 292.547 270.625V276H290.383V264.578H293.438L298.398 273.133H298.453C298.375 271.648 298.336 270.599 298.336 269.984V264.578H300.516V276ZM310.734 269.586H315.266V275.508C314.531 275.747 313.839 275.914 313.188 276.008C312.542 276.107 311.88 276.156 311.203 276.156C309.479 276.156 308.161 275.651 307.25 274.641C306.344 273.625 305.891 272.169 305.891 270.273C305.891 268.43 306.417 266.992 307.469 265.961C308.526 264.93 309.99 264.414 311.859 264.414C313.031 264.414 314.161 264.648 315.25 265.117L314.445 267.055C313.612 266.638 312.745 266.43 311.844 266.43C310.797 266.43 309.958 266.781 309.328 267.484C308.698 268.188 308.383 269.133 308.383 270.32C308.383 271.56 308.635 272.508 309.141 273.164C309.651 273.815 310.391 274.141 311.359 274.141C311.865 274.141 312.378 274.089 312.898 273.984V271.602H310.734V269.586ZM210.031 302H207.273L205.727 296C205.669 295.786 205.57 295.346 205.43 294.68C205.294 294.008 205.216 293.557 205.195 293.328C205.164 293.609 205.086 294.062 204.961 294.688C204.836 295.307 204.74 295.75 204.672 296.016L203.133 302H200.383L197.469 290.578H199.852L201.312 296.812C201.568 297.964 201.753 298.961 201.867 299.805C201.898 299.508 201.969 299.049 202.078 298.43C202.193 297.805 202.299 297.32 202.398 296.977L204.062 290.578H206.352L208.016 296.977C208.089 297.263 208.18 297.701 208.289 298.289C208.398 298.878 208.482 299.383 208.539 299.805C208.591 299.398 208.674 298.893 208.789 298.289C208.904 297.68 209.008 297.188 209.102 296.812L210.555 290.578H212.938L210.031 302ZM217.375 302V290.578H219.797V302H217.375ZM230.078 302H227.656V292.594H224.555V290.578H233.18V292.594H230.078V302ZM247.297 302H244.883V297.07H240.359V302H237.938V290.578H240.359V295.055H244.883V290.578H247.297V302ZM267.336 302L266.508 299.281H262.344L261.516 302H258.906L262.938 290.531H265.898L269.945 302H267.336ZM265.93 297.25C265.164 294.786 264.732 293.393 264.633 293.07C264.539 292.747 264.471 292.492 264.43 292.305C264.258 292.971 263.766 294.62 262.953 297.25H265.93ZM283.625 302H280.859L278.203 297.68L275.547 302H272.953L276.742 296.109L273.195 290.578H275.867L278.328 294.688L280.742 290.578H283.352L279.766 296.242L283.625 302ZM294.805 298.828C294.805 299.859 294.432 300.672 293.688 301.266C292.948 301.859 291.917 302.156 290.594 302.156C289.375 302.156 288.297 301.927 287.359 301.469V299.219C288.13 299.562 288.781 299.805 289.312 299.945C289.849 300.086 290.339 300.156 290.781 300.156C291.312 300.156 291.719 300.055 292 299.852C292.286 299.648 292.43 299.346 292.43 298.945C292.43 298.721 292.367 298.523 292.242 298.352C292.117 298.174 291.932 298.005 291.688 297.844C291.448 297.682 290.956 297.424 290.211 297.07C289.513 296.742 288.99 296.427 288.641 296.125C288.292 295.823 288.013 295.471 287.805 295.07C287.596 294.669 287.492 294.201 287.492 293.664C287.492 292.654 287.833 291.859 288.516 291.281C289.203 290.703 290.151 290.414 291.359 290.414C291.953 290.414 292.518 290.484 293.055 290.625C293.596 290.766 294.161 290.964 294.75 291.219L293.969 293.102C293.359 292.852 292.854 292.677 292.453 292.578C292.057 292.479 291.667 292.43 291.281 292.43C290.823 292.43 290.471 292.536 290.227 292.75C289.982 292.964 289.859 293.242 289.859 293.586C289.859 293.799 289.909 293.987 290.008 294.148C290.107 294.305 290.263 294.458 290.477 294.609C290.695 294.755 291.208 295.021 292.016 295.406C293.083 295.917 293.815 296.43 294.211 296.945C294.607 297.456 294.805 298.083 294.805 298.828ZM302.297 295.953H303.094C303.839 295.953 304.396 295.807 304.766 295.516C305.135 295.219 305.32 294.789 305.32 294.227C305.32 293.659 305.164 293.24 304.852 292.969C304.544 292.698 304.06 292.562 303.398 292.562H302.297V295.953ZM307.766 294.141C307.766 295.37 307.38 296.31 306.609 296.961C305.844 297.612 304.753 297.938 303.336 297.938H302.297V302H299.875V290.578H303.523C304.909 290.578 305.961 290.878 306.68 291.477C307.404 292.07 307.766 292.958 307.766 294.141ZM319.914 302L319.086 299.281H314.922L314.094 302H311.484L315.516 290.531H318.477L322.523 302H319.914ZM318.508 297.25C317.742 294.786 317.31 293.393 317.211 293.07C317.117 292.747 317.049 292.492 317.008 292.305C316.836 292.971 316.344 294.62 315.531 297.25H318.508Z" fill="#172541"/>
</svg>
