<svg width="88" height="90" viewBox="0 0 88 90" fill="none" xmlns="http://www.w3.org/2000/svg">
<g opacity="0.5">
<path d="M34.8333 40.1041C34.0556 41.3475 21.4494 39.3935 20.1666 40.1042" stroke="#F0F1F1" stroke-width="3" stroke-linecap="round" stroke-linejoin="round"/>
<path d="M53.1666 40.1041C53.9443 41.3474 66.5504 39.3933 67.8333 40.104" stroke="#F0F1F1" stroke-width="3" stroke-linecap="round" stroke-linejoin="round"/>
<path d="M45 59C49.5087 59 53.8327 59.8297 57.0208 61.3065C60.2089 62.7834 62 64.7864 62 66.875V72.125C62 74.2136 60.2089 76.2166 57.0208 77.6935C53.8327 79.1703 49.5087 80 45 80C40.4913 80 36.1673 79.1703 32.9792 77.6935C29.7911 76.2166 28 74.2136 28 72.125V66.875C28 64.7864 29.7911 62.7834 32.9792 61.3065C36.1673 59.8297 40.4913 59 45 59Z" stroke="#F0F1F1" stroke-width="3" stroke-linecap="round" stroke-linejoin="round"/>
<path d="M17.8406 1.85718L24.4632 15.6865L12.4376 13.0521L19.0602 26.8814" stroke="#F0F1F1" stroke-width="3" stroke-linecap="round" stroke-linejoin="round"/>
<path d="M31.1666 5.83632C40.4926 2.85998 50.5638 3.22332 59.6511 6.86395C68.7383 10.5046 76.2746 17.1954 80.9659 25.7874C85.6572 34.3795 87.2108 44.3368 85.36 53.9497C83.5092 63.5625 78.3694 72.2311 70.8232 78.4671C63.277 84.703 53.7951 88.1172 44.0057 88.1234C34.2164 88.1296 24.7302 84.7274 17.1761 78.501C9.62195 72.2747 4.47119 63.6126 2.60819 54.0021C0.7452 44.3916 2.28621 34.4323 6.96662 25.8343" stroke="#F0F1F1" stroke-width="3" stroke-linecap="round" stroke-linejoin="round"/>
</g>
</svg>
