<svg width="87" height="105" viewBox="0 0 87 105" fill="none" xmlns="http://www.w3.org/2000/svg">
<path d="M17.0339 26.1428C17.0339 29.576 17.7101 32.9755 19.0239 36.1473C20.3377 39.319 22.2634 42.201 24.691 44.6286C27.1186 47.0562 30.0005 48.9818 33.1723 50.2956C36.3441 51.6094 39.7436 52.2857 43.1768 52.2857C46.6099 52.2857 50.0094 51.6094 53.1812 50.2956C56.353 48.9818 59.235 47.0562 61.6625 44.6286C64.0901 42.201 66.0158 39.319 67.3296 36.1473C68.6434 32.9755 69.3196 29.576 69.3196 26.1428C69.3196 22.7097 68.6434 19.3102 67.3296 16.1384C66.0158 12.9666 64.0901 10.0846 61.6625 7.65706C59.235 5.22947 56.353 3.3038 53.1812 1.99C50.0094 0.676203 46.6099 0 43.1768 0C39.7436 0 36.3441 0.676203 33.1723 1.99C30.0005 3.3038 27.1186 5.22947 24.691 7.65706C22.2634 10.0846 20.3377 12.9666 19.0239 16.1384C17.7101 19.3102 17.0339 22.7097 17.0339 26.1428Z" fill="#455F80"/>
<path d="M0.11792 104.571C0.11792 93.1511 4.65446 82.1989 12.7295 74.1238C20.8046 66.0487 31.7568 61.5122 43.1767 61.5122C54.5966 61.5122 65.5488 66.0487 73.6238 74.1238C81.6989 82.1989 86.2355 93.1511 86.2355 104.571H0.11792Z" fill="#455F80"/>
</svg>
