<svg width="55" height="57" viewBox="0 0 55 57" fill="none" xmlns="http://www.w3.org/2000/svg">
<path d="M11.4583 18.259C11.4583 20.3617 11.8732 22.4437 12.6794 24.3863C13.4855 26.3289 14.6671 28.094 16.1567 29.5807C17.6464 31.0675 19.4148 32.2469 21.361 33.0516C23.3073 33.8562 25.3933 34.2704 27.4999 34.2704C29.6065 34.2704 31.6925 33.8562 33.6388 33.0516C35.5851 32.2469 37.3535 31.0675 38.8431 29.5807C40.3327 28.094 41.5143 26.3289 42.3205 24.3863C43.1267 22.4437 43.5416 20.3617 43.5416 18.259C43.5416 16.1564 43.1267 14.0743 42.3205 12.1317C41.5143 10.1892 40.3327 8.42408 38.8431 6.93729C37.3535 5.4505 35.5851 4.27112 33.6388 3.46647C31.6925 2.66183 29.6065 2.24768 27.4999 2.24768C25.3933 2.24768 23.3073 2.66183 21.361 3.46647C19.4148 4.27112 17.6464 5.4505 16.1567 6.93729C14.6671 8.42408 13.4855 10.1892 12.6794 12.1317C11.8732 14.0743 11.4583 16.1564 11.4583 18.259V18.259Z" stroke="white" stroke-width="3" stroke-linecap="round" stroke-linejoin="round"/>
<path d="M27.5 34.2704V54.8563" stroke="white" stroke-width="3" stroke-linecap="round" stroke-linejoin="round"/>
<path d="M20.625 47.9944H34.375" stroke="white" stroke-width="3" stroke-linecap="round" stroke-linejoin="round"/>
</svg>
