<svg width="290" height="155" viewBox="0 0 290 155" fill="none" xmlns="http://www.w3.org/2000/svg">
<path fill-rule="evenodd" clip-rule="evenodd" d="M141.2 7.54926L144.086 1.05602C144.438 0.264206 145.562 0.264203 145.914 1.05602L148.8 7.54926C226.858 9.57794 289.5 73.9313 289.5 153C289.5 153.828 288.828 154.5 288 154.5C287.172 154.5 286.5 153.828 286.5 153C286.5 74.2895 223.138 10.4999 145 10.4999C66.8615 10.4999 3.5 74.2895 3.5 153C3.5 153.828 2.82843 154.5 2 154.5C1.17157 154.5 0.5 153.828 0.5 153C0.5 73.9313 63.1421 9.57794 141.2 7.54926Z" fill="#172541"/>
</svg>
