<svg xmlns="http://www.w3.org/2000/svg" viewBox="0 0 844 83">
  <g id="Layer_2" data-name="Layer 2">
    <g id="Layer_1-2" data-name="Layer 1">
      <g>
        <path d="M196,18.5V9a8,8,0,0,1,8-8h30" style="fill: none;stroke: #dde0e5;stroke-linecap: round;stroke-linejoin: round;stroke-width: 2px"/>
        <path d="M449,18.5V9a8,8,0,0,0-8-8H411" style="fill: none;stroke: #dde0e5;stroke-linecap: round;stroke-linejoin: round;stroke-width: 2px"/>
        <path d="M4,47H840a4,4,0,0,1,4,4h0a4,4,0,0,1-4,4H4a4,4,0,0,1-4-4H0A4,4,0,0,1,4,47Z" style="fill: #dde0e5"/>
        <path d="M448.64,43H196a8,8,0,0,0-8,8h0a8,8,0,0,0,8,8H448.64a8,8,0,0,0,8-8h0A8,8,0,0,0,448.64,43Z" style="fill: #80c3bf"/>
        <path d="M322.29,47h0a4,4,0,0,0-4,4v0a4,4,0,0,0,4,4h0a4,4,0,0,0,4-4v0A4,4,0,0,0,322.29,47Z" style="fill: #172541"/>
        <path d="M4,48H4a3,3,0,0,0-3,3H1a3,3,0,0,0,3,3H4a3,3,0,0,0,3-3H7A3,3,0,0,0,4,48Z" style="fill: #a2adc1"/>
        <path d="M124,48h0a3,3,0,0,0-3,3h0a3,3,0,0,0,3,3h0a3,3,0,0,0,3-3h0A3,3,0,0,0,124,48Z" style="fill: #a2adc1"/>
        <path d="M244,48h0a3,3,0,0,0-3,3h0a3,3,0,0,0,3,3h0a3,3,0,0,0,3-3h0A3,3,0,0,0,244,48Z" style="fill: #fff;opacity: 0.20000000298023224;isolation: isolate"/>
        <path d="M363,48h0a3,3,0,0,0-3,3h0a3,3,0,0,0,3,3h0a3,3,0,0,0,3-3h0A3,3,0,0,0,363,48Z" style="fill: #fff;opacity: 0.20000000298023224;isolation: isolate"/>
        <path d="M483,48h0a3,3,0,0,0-3,3h0a3,3,0,0,0,3,3h0a3,3,0,0,0,3-3h0A3,3,0,0,0,483,48Z" style="fill: #a2adc1"/>
        <path d="M602,48h0a3,3,0,0,0-3,3h0a3,3,0,0,0,3,3h0a3,3,0,0,0,3-3h0A3,3,0,0,0,602,48Z" style="fill: #a2adc1"/>
        <path d="M722,48h0a3,3,0,0,0-3,3h0a3,3,0,0,0,3,3h0a3,3,0,0,0,3-3h0A3,3,0,0,0,722,48Z" style="fill: #a2adc1"/>
        <path d="M840,48h0a3,3,0,0,0-3,3h0a3,3,0,0,0,3,3h0a3,3,0,0,0,3-3h0A3,3,0,0,0,840,48Z" style="fill: #a2adc1"/>
        <path d="M322,77a6,6,0,0,0-6,6h12A6,6,0,0,0,322,77Z" style="fill: #172541"/>
        <path d="M322,79V52" style="fill: none;stroke: #172541;stroke-width: 2px"/>
      </g>
    </g>
  </g>
</svg>
