<svg width="171" height="57" viewBox="0 0 171 57" fill="none" xmlns="http://www.w3.org/2000/svg">
<path d="M9.03577 15.0002C9.03577 16.8388 9.39696 18.6593 10.0987 20.3579C10.8005 22.0565 11.8291 23.5999 13.1258 24.8999C14.4225 26.2 15.9619 27.2312 17.6561 27.9348C19.3504 28.6384 21.1662 29.0005 23 29.0005C24.8339 29.0005 26.6497 28.6384 28.3439 27.9348C30.0382 27.2312 31.5776 26.2 32.8743 24.8999C34.171 23.5999 35.1996 22.0565 35.9013 20.3579C36.6031 18.6593 36.9643 16.8388 36.9643 15.0002C36.9643 13.1617 36.6031 11.3412 35.9013 9.64258C35.1996 7.94399 34.171 6.40062 32.8743 5.10058C31.5776 3.80053 30.0382 2.76928 28.3439 2.0657C26.6497 1.36213 24.8339 1 23 1C21.1662 1 19.3504 1.36213 17.6561 2.0657C15.9619 2.76928 14.4225 3.80053 13.1258 5.10058C11.8291 6.40062 10.8005 7.94399 10.0987 9.64258C9.39696 11.3412 9.03577 13.1617 9.03577 15.0002Z" fill="white"/>
<path d="M0 57.0001C9.08968e-08 50.8845 2.42321 45.0193 6.73654 40.695C11.0499 36.3706 16.9 33.9412 23 33.9412C29.1 33.9412 34.9501 36.3706 39.2635 40.695C43.5768 45.0193 46 50.8845 46 57.0001H0Z" fill="white"/>
<path d="M71.6703 15.0002C71.6703 16.8388 72.0315 18.6593 72.7333 20.3579C73.435 22.0565 74.4636 23.5999 75.7603 24.8999C77.057 26.2 78.5964 27.2312 80.2907 27.9348C81.9849 28.6384 83.8008 29.0005 85.6346 29.0005C87.4684 29.0005 89.2843 28.6384 90.9785 27.9348C92.6727 27.2312 94.2121 26.2 95.5088 24.8999C96.8055 23.5999 97.8341 22.0565 98.5359 20.3579C99.2377 18.6593 99.5989 16.8388 99.5989 15.0002C99.5989 13.1617 99.2377 11.3412 98.5359 9.64258C97.8341 7.94399 96.8055 6.40062 95.5088 5.10058C94.2121 3.80053 92.6727 2.76928 90.9785 2.0657C89.2843 1.36213 87.4684 1 85.6346 1C83.8008 1 81.9849 1.36213 80.2907 2.0657C78.5964 2.76928 77.057 3.80053 75.7603 5.10058C74.4636 6.40062 73.435 7.94399 72.7333 9.64258C72.0315 11.3412 71.6703 13.1617 71.6703 15.0002Z" fill="#293C5A"/>
<path d="M62.6348 57.0001C62.6348 50.8845 65.058 45.0193 69.3713 40.695C73.6846 36.3706 79.5348 33.9412 85.6348 33.9412C91.7347 33.9412 97.5849 36.3706 101.898 40.695C106.212 45.0193 108.635 50.8845 108.635 57.0001H62.6348Z" fill="#293C5A"/>
<path d="M133.412 14.5736C133.412 16.3936 133.773 18.1958 134.475 19.8773C135.176 21.5587 136.205 23.0865 137.502 24.3735C138.798 25.6604 140.338 26.6813 142.032 27.3777C143.726 28.0742 145.542 28.4327 147.376 28.4327C149.21 28.4327 151.026 28.0742 152.72 27.3777C154.414 26.6813 155.953 25.6604 157.25 24.3735C158.547 23.0865 159.575 21.5587 160.277 19.8773C160.979 18.1958 161.34 16.3936 161.34 14.5736C161.34 12.7537 160.979 10.9515 160.277 9.27002C159.575 7.58856 158.547 6.06075 157.25 4.77382C155.953 3.48689 154.414 2.46604 152.72 1.76956C151.026 1.07307 149.21 0.7146 147.376 0.7146C145.542 0.7146 143.726 1.07307 142.032 1.76956C140.338 2.46604 138.798 3.48689 137.502 4.77382C136.205 6.06075 135.176 7.58856 134.475 9.27002C133.773 10.9515 133.412 12.7537 133.412 14.5736Z" fill="#293C5A"/>
<path d="M124.151 56.7148C124.151 50.6608 126.574 44.8549 130.888 40.5741C135.201 36.2933 141.051 33.8884 147.151 33.8884C153.251 33.8884 159.101 36.2933 163.414 40.5741C167.728 44.8549 170.151 50.6608 170.151 56.7148H124.151Z" fill="#293C5A"/>
</svg>
