<svg width="369" height="369" viewBox="0 0 369 369" fill="none" xmlns="http://www.w3.org/2000/svg">
<g id="Dot pattern">
<path id="Combined Shape" fill-rule="evenodd" clip-rule="evenodd" d="M9 4.5C9 6.98528 6.98528 9 4.5 9C2.01472 9 0 6.98528 0 4.5C0 2.01472 2.01472 0 4.5 0C6.98528 0 9 2.01472 9 4.5ZM69 4.5C69 6.98528 66.9853 9 64.5 9C62.0147 9 60 6.98528 60 4.5C60 2.01472 62.0147 0 64.5 0C66.9853 0 69 2.01472 69 4.5ZM124.5 9C126.985 9 129 6.98528 129 4.5C129 2.01472 126.985 0 124.5 0C122.015 0 120 2.01472 120 4.5C120 6.98528 122.015 9 124.5 9ZM189 4.5C189 6.98528 186.985 9 184.5 9C182.015 9 180 6.98528 180 4.5C180 2.01472 182.015 0 184.5 0C186.985 0 189 2.01472 189 4.5ZM244.5 9C246.985 9 249 6.98528 249 4.5C249 2.01472 246.985 0 244.5 0C242.015 0 240 2.01472 240 4.5C240 6.98528 242.015 9 244.5 9ZM309 4.5C309 6.98528 306.985 9 304.5 9C302.015 9 300 6.98528 300 4.5C300 2.01472 302.015 0 304.5 0C306.985 0 309 2.01472 309 4.5ZM364.5 9C366.985 9 369 6.98528 369 4.5C369 2.01472 366.985 0 364.5 0C362.015 0 360 2.01472 360 4.5C360 6.98528 362.015 9 364.5 9ZM9 64.5C9 66.9853 6.98528 69 4.5 69C2.01472 69 0 66.9853 0 64.5C0 62.0147 2.01472 60 4.5 60C6.98528 60 9 62.0147 9 64.5ZM64.5 69C66.9853 69 69 66.9853 69 64.5C69 62.0147 66.9853 60 64.5 60C62.0147 60 60 62.0147 60 64.5C60 66.9853 62.0147 69 64.5 69ZM129 64.5C129 66.9853 126.985 69 124.5 69C122.015 69 120 66.9853 120 64.5C120 62.0147 122.015 60 124.5 60C126.985 60 129 62.0147 129 64.5ZM184.5 69C186.985 69 189 66.9853 189 64.5C189 62.0147 186.985 60 184.5 60C182.015 60 180 62.0147 180 64.5C180 66.9853 182.015 69 184.5 69ZM249 64.5C249 66.9853 246.985 69 244.5 69C242.015 69 240 66.9853 240 64.5C240 62.0147 242.015 60 244.5 60C246.985 60 249 62.0147 249 64.5ZM304.5 69C306.985 69 309 66.9853 309 64.5C309 62.0147 306.985 60 304.5 60C302.015 60 300 62.0147 300 64.5C300 66.9853 302.015 69 304.5 69ZM369 64.5C369 66.9853 366.985 69 364.5 69C362.015 69 360 66.9853 360 64.5C360 62.0147 362.015 60 364.5 60C366.985 60 369 62.0147 369 64.5ZM4.5 129C6.98528 129 9 126.985 9 124.5C9 122.015 6.98528 120 4.5 120C2.01472 120 0 122.015 0 124.5C0 126.985 2.01472 129 4.5 129ZM69 124.5C69 126.985 66.9853 129 64.5 129C62.0147 129 60 126.985 60 124.5C60 122.015 62.0147 120 64.5 120C66.9853 120 69 122.015 69 124.5ZM124.5 129C126.985 129 129 126.985 129 124.5C129 122.015 126.985 120 124.5 120C122.015 120 120 122.015 120 124.5C120 126.985 122.015 129 124.5 129ZM189 124.5C189 126.985 186.985 129 184.5 129C182.015 129 180 126.985 180 124.5C180 122.015 182.015 120 184.5 120C186.985 120 189 122.015 189 124.5ZM244.5 129C246.985 129 249 126.985 249 124.5C249 122.015 246.985 120 244.5 120C242.015 120 240 122.015 240 124.5C240 126.985 242.015 129 244.5 129ZM309 124.5C309 126.985 306.985 129 304.5 129C302.015 129 300 126.985 300 124.5C300 122.015 302.015 120 304.5 120C306.985 120 309 122.015 309 124.5ZM364.5 129C366.985 129 369 126.985 369 124.5C369 122.015 366.985 120 364.5 120C362.015 120 360 122.015 360 124.5C360 126.985 362.015 129 364.5 129ZM9 184.5C9 186.985 6.98528 189 4.5 189C2.01472 189 0 186.985 0 184.5C0 182.015 2.01472 180 4.5 180C6.98528 180 9 182.015 9 184.5ZM64.5 189C66.9853 189 69 186.985 69 184.5C69 182.015 66.9853 180 64.5 180C62.0147 180 60 182.015 60 184.5C60 186.985 62.0147 189 64.5 189ZM129 184.5C129 186.985 126.985 189 124.5 189C122.015 189 120 186.985 120 184.5C120 182.015 122.015 180 124.5 180C126.985 180 129 182.015 129 184.5ZM184.5 189C186.985 189 189 186.985 189 184.5C189 182.015 186.985 180 184.5 180C182.015 180 180 182.015 180 184.5C180 186.985 182.015 189 184.5 189ZM249 184.5C249 186.985 246.985 189 244.5 189C242.015 189 240 186.985 240 184.5C240 182.015 242.015 180 244.5 180C246.985 180 249 182.015 249 184.5ZM304.5 189C306.985 189 309 186.985 309 184.5C309 182.015 306.985 180 304.5 180C302.015 180 300 182.015 300 184.5C300 186.985 302.015 189 304.5 189ZM369 184.5C369 186.985 366.985 189 364.5 189C362.015 189 360 186.985 360 184.5C360 182.015 362.015 180 364.5 180C366.985 180 369 182.015 369 184.5ZM4.5 249C6.98528 249 9 246.985 9 244.5C9 242.015 6.98528 240 4.5 240C2.01472 240 0 242.015 0 244.5C0 246.985 2.01472 249 4.5 249ZM69 244.5C69 246.985 66.9853 249 64.5 249C62.0147 249 60 246.985 60 244.5C60 242.015 62.0147 240 64.5 240C66.9853 240 69 242.015 69 244.5ZM124.5 249C126.985 249 129 246.985 129 244.5C129 242.015 126.985 240 124.5 240C122.015 240 120 242.015 120 244.5C120 246.985 122.015 249 124.5 249ZM189 244.5C189 246.985 186.985 249 184.5 249C182.015 249 180 246.985 180 244.5C180 242.015 182.015 240 184.5 240C186.985 240 189 242.015 189 244.5ZM244.5 249C246.985 249 249 246.985 249 244.5C249 242.015 246.985 240 244.5 240C242.015 240 240 242.015 240 244.5C240 246.985 242.015 249 244.5 249ZM309 244.5C309 246.985 306.985 249 304.5 249C302.015 249 300 246.985 300 244.5C300 242.015 302.015 240 304.5 240C306.985 240 309 242.015 309 244.5ZM364.5 249C366.985 249 369 246.985 369 244.5C369 242.015 366.985 240 364.5 240C362.015 240 360 242.015 360 244.5C360 246.985 362.015 249 364.5 249ZM9 304.5C9 306.985 6.98528 309 4.5 309C2.01472 309 0 306.985 0 304.5C0 302.015 2.01472 300 4.5 300C6.98528 300 9 302.015 9 304.5ZM64.5 309C66.9853 309 69 306.985 69 304.5C69 302.015 66.9853 300 64.5 300C62.0147 300 60 302.015 60 304.5C60 306.985 62.0147 309 64.5 309ZM129 304.5C129 306.985 126.985 309 124.5 309C122.015 309 120 306.985 120 304.5C120 302.015 122.015 300 124.5 300C126.985 300 129 302.015 129 304.5ZM184.5 309C186.985 309 189 306.985 189 304.5C189 302.015 186.985 300 184.5 300C182.015 300 180 302.015 180 304.5C180 306.985 182.015 309 184.5 309ZM249 304.5C249 306.985 246.985 309 244.5 309C242.015 309 240 306.985 240 304.5C240 302.015 242.015 300 244.5 300C246.985 300 249 302.015 249 304.5ZM304.5 309C306.985 309 309 306.985 309 304.5C309 302.015 306.985 300 304.5 300C302.015 300 300 302.015 300 304.5C300 306.985 302.015 309 304.5 309ZM369 304.5C369 306.985 366.985 309 364.5 309C362.015 309 360 306.985 360 304.5C360 302.015 362.015 300 364.5 300C366.985 300 369 302.015 369 304.5ZM4.5 369C6.98528 369 9 366.985 9 364.5C9 362.015 6.98528 360 4.5 360C2.01472 360 0 362.015 0 364.5C0 366.985 2.01472 369 4.5 369ZM69 364.5C69 366.985 66.9853 369 64.5 369C62.0147 369 60 366.985 60 364.5C60 362.015 62.0147 360 64.5 360C66.9853 360 69 362.015 69 364.5ZM124.5 369C126.985 369 129 366.985 129 364.5C129 362.015 126.985 360 124.5 360C122.015 360 120 362.015 120 364.5C120 366.985 122.015 369 124.5 369ZM189 364.5C189 366.985 186.985 369 184.5 369C182.015 369 180 366.985 180 364.5C180 362.015 182.015 360 184.5 360C186.985 360 189 362.015 189 364.5ZM244.5 369C246.985 369 249 366.985 249 364.5C249 362.015 246.985 360 244.5 360C242.015 360 240 362.015 240 364.5C240 366.985 242.015 369 244.5 369ZM309 364.5C309 366.985 306.985 369 304.5 369C302.015 369 300 366.985 300 364.5C300 362.015 302.015 360 304.5 360C306.985 360 309 362.015 309 364.5ZM364.5 369C366.985 369 369 366.985 369 364.5C369 362.015 366.985 360 364.5 360C362.015 360 360 362.015 360 364.5C360 366.985 362.015 369 364.5 369Z" fill="#80C3BF"/>
</g>
</svg>
