<svg width="69" height="789" viewBox="0 0 69 789" fill="none" xmlns="http://www.w3.org/2000/svg">
<g id="Dot pattern">
<path id="Combined Shape" fill-rule="evenodd" clip-rule="evenodd" d="M4.5 9C6.98528 9 9 6.98528 9 4.5C9 2.01472 6.98528 0 4.5 0C2.01472 0 0 2.01472 0 4.5C0 6.98528 2.01472 9 4.5 9ZM4.5 429C6.98528 429 9 426.985 9 424.5C9 422.015 6.98528 420 4.5 420C2.01472 420 0 422.015 0 424.5C0 426.985 2.01472 429 4.5 429ZM69 4.5C69 6.98528 66.9853 9 64.5 9C62.0147 9 60 6.98528 60 4.5C60 2.01472 62.0147 0 64.5 0C66.9853 0 69 2.01472 69 4.5ZM64.5 429C66.9853 429 69 426.985 69 424.5C69 422.015 66.9853 420 64.5 420C62.0147 420 60 422.015 60 424.5C60 426.985 62.0147 429 64.5 429ZM9 64.5C9 66.9853 6.98528 69 4.5 69C2.01472 69 0 66.9853 0 64.5C0 62.0147 2.01472 60 4.5 60C6.98528 60 9 62.0147 9 64.5ZM4.5 489C6.98528 489 9 486.985 9 484.5C9 482.015 6.98528 480 4.5 480C2.01472 480 0 482.015 0 484.5C0 486.985 2.01472 489 4.5 489ZM69 64.5C69 66.9853 66.9853 69 64.5 69C62.0147 69 60 66.9853 60 64.5C60 62.0147 62.0147 60 64.5 60C66.9853 60 69 62.0147 69 64.5ZM64.5 489C66.9853 489 69 486.985 69 484.5C69 482.015 66.9853 480 64.5 480C62.0147 480 60 482.015 60 484.5C60 486.985 62.0147 489 64.5 489ZM9 124.5C9 126.985 6.98528 129 4.5 129C2.01472 129 0 126.985 0 124.5C0 122.015 2.01472 120 4.5 120C6.98528 120 9 122.015 9 124.5ZM4.5 549C6.98528 549 9 546.985 9 544.5C9 542.015 6.98528 540 4.5 540C2.01472 540 0 542.015 0 544.5C0 546.985 2.01472 549 4.5 549ZM69 124.5C69 126.985 66.9853 129 64.5 129C62.0147 129 60 126.985 60 124.5C60 122.015 62.0147 120 64.5 120C66.9853 120 69 122.015 69 124.5ZM64.5 549C66.9853 549 69 546.985 69 544.5C69 542.015 66.9853 540 64.5 540C62.0147 540 60 542.015 60 544.5C60 546.985 62.0147 549 64.5 549ZM9 184.5C9 186.985 6.98528 189 4.5 189C2.01472 189 0 186.985 0 184.5C0 182.015 2.01472 180 4.5 180C6.98528 180 9 182.015 9 184.5ZM4.5 609C6.98528 609 9 606.985 9 604.5C9 602.015 6.98528 600 4.5 600C2.01472 600 0 602.015 0 604.5C0 606.985 2.01472 609 4.5 609ZM69 184.5C69 186.985 66.9853 189 64.5 189C62.0147 189 60 186.985 60 184.5C60 182.015 62.0147 180 64.5 180C66.9853 180 69 182.015 69 184.5ZM64.5 609C66.9853 609 69 606.985 69 604.5C69 602.015 66.9853 600 64.5 600C62.0147 600 60 602.015 60 604.5C60 606.985 62.0147 609 64.5 609ZM9 244.5C9 246.985 6.98528 249 4.5 249C2.01472 249 0 246.985 0 244.5C0 242.015 2.01472 240 4.5 240C6.98528 240 9 242.015 9 244.5ZM4.5 669C6.98528 669 9 666.985 9 664.5C9 662.015 6.98528 660 4.5 660C2.01472 660 0 662.015 0 664.5C0 666.985 2.01472 669 4.5 669ZM69 244.5C69 246.985 66.9853 249 64.5 249C62.0147 249 60 246.985 60 244.5C60 242.015 62.0147 240 64.5 240C66.9853 240 69 242.015 69 244.5ZM64.5 669C66.9853 669 69 666.985 69 664.5C69 662.015 66.9853 660 64.5 660C62.0147 660 60 662.015 60 664.5C60 666.985 62.0147 669 64.5 669ZM9 304.5C9 306.985 6.98528 309 4.5 309C2.01472 309 0 306.985 0 304.5C0 302.015 2.01472 300 4.5 300C6.98528 300 9 302.015 9 304.5ZM4.5 729C6.98528 729 9 726.985 9 724.5C9 722.015 6.98528 720 4.5 720C2.01472 720 0 722.015 0 724.5C0 726.985 2.01472 729 4.5 729ZM69 304.5C69 306.985 66.9853 309 64.5 309C62.0147 309 60 306.985 60 304.5C60 302.015 62.0147 300 64.5 300C66.9853 300 69 302.015 69 304.5ZM64.5 729C66.9853 729 69 726.985 69 724.5C69 722.015 66.9853 720 64.5 720C62.0147 720 60 722.015 60 724.5C60 726.985 62.0147 729 64.5 729ZM9 364.5C9 366.985 6.98528 369 4.5 369C2.01472 369 0 366.985 0 364.5C0 362.015 2.01472 360 4.5 360C6.98528 360 9 362.015 9 364.5ZM4.5 789C6.98528 789 9 786.985 9 784.5C9 782.015 6.98528 780 4.5 780C2.01472 780 0 782.015 0 784.5C0 786.985 2.01472 789 4.5 789ZM69 364.5C69 366.985 66.9853 369 64.5 369C62.0147 369 60 366.985 60 364.5C60 362.015 62.0147 360 64.5 360C66.9853 360 69 362.015 69 364.5ZM64.5 789C66.9853 789 69 786.985 69 784.5C69 782.015 66.9853 780 64.5 780C62.0147 780 60 782.015 60 784.5C60 786.985 62.0147 789 64.5 789Z" fill="#80C3BF"/>
</g>
</svg>
