<svg width="32" height="32" viewBox="0 0 32 32" fill="none" xmlns="http://www.w3.org/2000/svg">
<path d="M4 30.334C4 27.1514 5.26428 24.0991 7.51472 21.8487C9.76516 19.5983 12.8174 18.334 16 18.334C19.1826 18.334 22.2348 19.5983 24.4853 21.8487C26.7357 24.0991 28 27.1514 28 30.334H4Z" stroke="#80C3BF" stroke-width="2" stroke-linecap="round" stroke-linejoin="round"/>
<path d="M8.66669 9.00033C8.66669 10.9452 9.4393 12.8105 10.8146 14.1858C12.1898 15.561 14.0551 16.3337 16 16.3337C17.9449 16.3337 19.8102 15.561 21.1855 14.1858C22.5607 12.8105 23.3334 10.9452 23.3334 9.00033C23.3334 7.0554 22.5607 5.19014 21.1855 3.81488C19.8102 2.43961 17.9449 1.66699 16 1.66699C14.0551 1.66699 12.1898 2.43961 10.8146 3.81488C9.4393 5.19014 8.66669 7.0554 8.66669 9.00033V9.00033Z" stroke="#80C3BF" stroke-width="2" stroke-linecap="round" stroke-linejoin="round"/>
<path d="M9.68134 5.27734C10.8166 6.45513 12.1778 7.39185 13.6834 8.03149C15.189 8.67112 16.8082 9.00053 18.444 9.00001C20.1023 9.00099 21.7434 8.66343 23.2667 8.00801" stroke="#80C3BF" stroke-width="2" stroke-linecap="round" stroke-linejoin="round"/>
</svg>
